<svg xmlns="http://www.w3.org/2000/svg" width="13" height="13" viewBox="0 0 16 16">
 <path style="fill:#4f4c4d"
       d="M 6.2519531 0.99804688 L 6.0976562 2.8417969 A 5.5 5.5 0 0 0 4.4902344 3.7714844 L 2.8144531 2.9824219 L 1.0644531 6.0136719 L 2.5859375 7.0703125 A 5.5 5.5 0 0 0 2.5019531 7.9980469 A 5.5 5.5 0 0 0 2.5820312 8.9296875 L 1.0644531 9.9824219 L 2.8144531 13.015625 L 4.4863281 12.228516 A 5.5 5.5 0 0 0 6.0976562 13.152344 L 6.2480469 15.001953 L 9.7480469 15.001953 L 9.9023438 13.158203 A 5.5 5.5 0 0 0 11.509766 12.228516 L 13.185547 13.017578 L 14.935547 9.984375 L 13.414062 8.9277344 A 5.5 5.5 0 0 0 13.498047 8 A 5.5 5.5 0 0 0 13.417969 7.0683594 L 14.935547 6.015625 L 13.185547 2.984375 L 11.513672 3.7714844 A 5.5 5.5 0 0 0 9.9023438 2.8476562 L 9.7519531 0.99804688 L 6.2519531 0.99804688 z M 8 5 A 3 3 0 0 1 11 8 A 3 3 0 0 1 8 11 A 3 3 0 0 1 5 8 A 3 3 0 0 1 8 5 z "
       />
</svg>
