<svg xmlns="http://www.w3.org/2000/svg" width="16" height="16" viewBox="0 0 16 16">
 <path style="fill:#4f4c4d" 
       d="m 12,3 c 0.554,0 1,0.446 1,1 l 0,8 c 0,0.554 -0.446,1 -1,1 l -1,0 c -0.554,0 -1,-0.446 -1,-1 L 10,8.9140625 3.769531,12.919922 A 0.50005,0.50005 0 0 1 3,12.5 l 0,-9 A 0.50005,0.50005 0 0 1 3.515625,3 0.50005,0.50005 0 0 1 3.769531,3.0800781 L 10,7.0859375 10,4 c 0,-0.554 0.446,-1 1,-1 l 1,0 z m 0,0.8300781 -1,0 L 11,12 12,12 12,3.8300781 Z M 4,4.4140625 4,11.585938 9.578125,8 4,4.4140625 Z"
       />
</svg>
