<svg xmlns="http://www.w3.org/2000/svg" width="14" height="14" viewBox="0 0 122.88 113.6"><path fill="#6d6d70" d="M71.89 100.56q-3.86 3.82-8.37 7.63l3.74-.62a49.38 49.38 0 0 0 7.08-2l.43.64 1 1.27a16.4 16.4 0 0 0 2.13 2 55.29 55.29 0 0 1-9.73 2.92 58.73 58.73 0 0 1-22.83 0 53.48 53.48 0 0 1-10.6-3.27.26.26 0 0 1-.14-.07 62.1 62.1 0 0 1-9.6-5.17A54.41 54.41 0 0 1 16.6 97a52.69 52.69 0 0 1-6.89-8.38A59.79 59.79 0 0 1 4.46 79a55.79 55.79 0 0 1-3.34-10.78 58.73 58.73 0 0 1 0-22.83 52.86 52.86 0 0 1 3.28-10.6.33.33 0 0 1 .06-.14A60.34 60.34 0 0 1 9.71 25a54 54 0 0 1 6.89-8.39 52.19 52.19 0 0 1 8.4-6.9 59.7 59.7 0 0 1 9.67-5.25 54.52 54.52 0 0 1 10.72-3.34 58.73 58.73 0 0 1 22.83 0 53.89 53.89 0 0 1 10.6 3.27.28.28 0 0 1 .13.07 61.75 61.75 0 0 1 9.68 5.25A54.41 54.41 0 0 1 97 16.59a52.27 52.27 0 0 1 6.89 8.41 58.19 58.19 0 0 1 5.25 9.67 54.52 54.52 0 0 1 3.34 10.74l.12.6-5.42-1.53a47 47 0 0 0-2.6-7.83 54.22 54.22 0 0 0-2.87-5.76H85.08a65.47 65.47 0 0 1 4.2 8.49l-6.16-1.66a65.73 65.73 0 0 0-3.86-6.83h-20v3.41l-.61.22a13.48 13.48 0 0 0-4.36 2.68v-6.33h-20q-7.67 11.91-8.62 23.44h25.57q1 2.47 2.09 5H25.62c.31 7.87 3 15.67 7.88 23.44h20.82V61.56l5 11v10.17h4.76l2.29 5h-7.08v17.51a123.84 123.84 0 0 0 10.53-9.65q1.05 2.49 2.07 5zM114.75 98a4.64 4.64 0 0 1-1.17.79h-.08a4.14 4.14 0 0 1-4.36-.6l-11.6-9.84-4 9.77a12.93 12.93 0 0 1-1.19 2.25 9.1 9.1 0 0 1-1.51 1.76 4.78 4.78 0 0 1-7.5-.82 9.28 9.28 0 0 1-.92-1.63c-6.9-17.49-16.26-34.9-23.26-52.4A3.11 3.11 0 0 1 62.65 43c16.77 3.1 38.5 10.19 55.55 14.71 5.3 1.4 6.16 6.07 2.25 9.69a12.21 12.21 0 0 1-2 1.52c-3 1.7-6 3.67-9 5.47l11.55 9.9a4.25 4.25 0 0 1 1 1.26v.08a4.28 4.28 0 0 1 .39 1.47 4.26 4.26 0 0 1-.16 1.54 4.39 4.39 0 0 1-.72 1.39 94.55 94.55 0 0 1-6.76 7.97zm-3-3.84 5.59-6.56c-2.46-2.11-13-10.29-14.09-12.26a2.41 2.41 0 0 1 .83-3.25c3.66-2 8.36-4.86 11.83-7.17a8.38 8.38 0 0 0 1.22-.89 4.42 4.42 0 0 0 .75-.87l.16-.3-.31-.18a3.92 3.92 0 0 0-.76-.26L65 48.6l21.83 49.14a4.8 4.8 0 0 0 .38.7l.22.29.28-.2a4.51 4.51 0 0 0 .73-.89 7.51 7.51 0 0 0 .68-1.33c1.63-4 3.49-9.47 5.4-13.17l.23-.32a2.4 2.4 0 0 1 3.37-.27l13.64 11.57zm-61.62 14.03a105.56 105.56 0 0 1-19.26-20.48H15.16a51.5 51.5 0 0 0 12.61 12 52.81 52.81 0 0 0 8.89 4.8s.07 0 .11.07a49.13 49.13 0 0 0 9.64 3 65.13 65.13 0 0 0 3.75.62zM11.89 82.73H27.7a50.6 50.6 0 0 1-7-23.44H5a55.75 55.75 0 0 0 1 7.94A48.27 48.27 0 0 0 9 77a54.16 54.16 0 0 0 2.86 5.76zM5 54.31h15.75a54.38 54.38 0 0 1 7.77-23.44H11.89A54.16 54.16 0 0 0 9 36.63s0 .07-.07.1a49.91 49.91 0 0 0-3 9.65 51.46 51.46 0 0 0-1 7.93zM15.13 25.9h16.59A117.72 117.72 0 0 1 50.46 5.35c-1.39.17-2.76.37-4.08.65a48.36 48.36 0 0 0-9.75 3 55.24 55.24 0 0 0-8.89 4.8 51.5 51.5 0 0 0-12.61 12zm48-20.55A114.63 114.63 0 0 1 81.88 25.9h16.6a48.63 48.63 0 0 0-5-5.76 49.81 49.81 0 0 0-7.63-6.27A53.27 53.27 0 0 0 77 9.06s-.06 0-.1-.06a49.15 49.15 0 0 0-9.64-3c-1.36-.27-2.73-.48-4.09-.65zm-3.84 3.24V25.9h16.49A115.68 115.68 0 0 0 59.29 8.59zm-5 96.63V87.71H37a105.67 105.67 0 0 0 17.35 17.51zm0-79.32V8.59A116.3 116.3 0 0 0 37.82 25.9z"/></svg>