<svg xmlns="http://www.w3.org/2000/svg" width="32" height="32"><path d="M26.332 4a3.004 3.004 0 0 1 2.996 2.793l.004.207v14.004a3 3 0 0 1-2.793 2.992l-.207.008h-5.664v3.328H23c.531-.004.973.406 1.008.934a.995.995 0 0 1-.871 1.058l-.137.008H9a.999.999 0 0 1-.133-1.988L9 27.332h2.336v-3.328H5.668a3.005 3.005 0 0 1-2.996-2.797l-.004-.203V7a2.995 2.995 0 0 1 2.793-2.992L5.668 4h20.668Zm-7.664 20.004h-5.336v3.328h5.336ZM26.332 6H5.668c-.5 0-.922.367-.992.863L4.668 7v14.004c0 .504.375.926.863.988l.137.012h20.668a1 1 0 0 0 .988-.867l.008-.133V7c0-.5-.367-.922-.863-.992Zm-1.66 2c.32 0 .598.23.656.547l.012.121v10.668a.67.67 0 0 1-.547.656l-.121.012H12.668a.666.666 0 0 1-.656-.547L12 19.336V8.668c0-.324.23-.598.547-.656L12.668 8ZM10 8c.32 0 .598.23.656.547l.012.121v10.668a.67.67 0 0 1-.547.656l-.121.012H7.332a.665.665 0 0 1-.652-.547l-.012-.121V8.668c0-.324.23-.598.547-.656L7.332 8Zm0 0"/></svg>