<svg xmlns="http://www.w3.org/2000/svg" width="32" height="32"><path fill="#212121" d="M9.895 17.59h1.203q.856-.001 1.273-.43c.274-.285.41-.668.41-1.14 0-.457-.136-.817-.41-1.07q-.409-.383-1.129-.384-.647 0-1.082.36a1.13 1.13 0 0 0-.441.922H7.46q0-.89.48-1.594c.32-.473.77-.844 1.34-1.11a4.5 4.5 0 0 1 1.906-.398q1.81 0 2.829.867 1.026.857 1.027 2.375 0 .78-.48 1.438a3.1 3.1 0 0 1-1.247 1.008q.957.346 1.426 1.03.479.687.477 1.626c0 1.012-.367 1.82-1.11 2.43q-1.1.914-2.921.914-1.7-.001-2.79-.899-1.072-.897-1.074-2.375h2.254q0 .64.477 1.047.488.405 1.187.406.808 0 1.258-.422.462-.429.46-1.132 0-1.705-1.87-1.704h-1.2Zm14.539 1.984q-.002 2.361-.98 3.61-.975 1.249-2.856 1.25-1.865 0-2.844-1.227-.983-1.224-1.012-3.516v-2.093c0-1.59.328-2.793.985-3.618q.995-1.235 2.851-1.234c1.242 0 2.192.406 2.848 1.227q.978 1.217 1.008 3.507Zm-2.262-2.297c0-.941-.129-1.629-.39-2.054q-.383-.65-1.204-.649c-.531 0-.922.203-1.18.617q-.375.609-.398 1.914v2.766q-.001 1.39.379 2.07.38.674 1.219.672.827 0 1.191-.648.37-.65.383-1.985ZM23.668 4A4.334 4.334 0 0 1 28 8.332v15.336A4.334 4.334 0 0 1 23.668 28H8.332A4.334 4.334 0 0 1 4 23.668V8.332A4.334 4.334 0 0 1 8.332 4ZM26 11.332H6v12.336A2.336 2.336 0 0 0 8.332 26h15.336A2.33 2.33 0 0 0 26 23.668ZM23.668 6H8.332A2.33 2.33 0 0 0 6 8.332v1h20v-1A2.33 2.33 0 0 0 23.668 6m0 0"/></svg>