<svg xmlns="http://www.w3.org/2000/svg" width="32" height="32" viewBox="0 0 32 32">
 <path style="fill:#6d6d70"
       d="m 16,4 c -2.316276,0.00399 -4.581898,0.6782457 -6.5234375,1.9414062 L 15.292969,11.707031 16.707031,10.292969 12.916016,6.5019531 C 13.911359,6.174075 14.952054,6.0046901 16,6 c 5.522847,0 10,4.477153 10,10 -0.007,1.782801 -0.490491,3.531316 -1.400391,5.064453 l 1.464844,1.464844 C 27.326632,20.585449 27.99889,18.31768 28,16 28,9.372583 22.627417,4 16,4 Z M 5.9355469,9.4707031 C 4.6733682,11.414552 4.0011102,13.68232 4,16 c 0,6.627417 5.372583,12 12,12 2.316276,-0.004 4.581899,-0.678245 6.523438,-1.941406 l -5.816407,-5.765625 -1.414062,1.414062 3.791015,3.791016 C 18.088641,25.825925 17.047946,25.99531 16,26 10.477153,26 6,21.522847 6,16 c 0.007,-1.782801 0.4904904,-3.531316 1.4003906,-5.064453 z"
       />
</svg>
