<svg xmlns="http://www.w3.org/2000/svg" width="32" height="32"><path fill="#000" d="M7 5.332h18a4.343 4.343 0 0 1 4.328 4.09l.004.246v12.664c0 2.3-1.793 4.2-4.086 4.328l-.246.008H7a4.343 4.343 0 0 1-4.328-4.09l-.004-.246V9.668c0-2.3 1.793-4.2 4.086-4.328zh18Zm20.332 7.164L16.465 18.22a.97.97 0 0 1-.8.054l-.13-.054L4.668 12.5v9.832c0 1.215.93 2.227 2.14 2.328l.192.008h18a2.33 2.33 0 0 0 2.324-2.145l.008-.191ZM25 7.332H7a2.33 2.33 0 0 0-2.324 2.145l-.008.191v.57L16 16.203l11.332-5.965v-.57c0-1.215-.93-2.227-2.14-2.328Zm0 0"/></svg>