<svg xmlns="http://www.w3.org/2000/svg" width="32" height="32"><path d="M4.932 5A.93.93 0 0 0 4 5.932v.137A.93.93 0 0 0 4.932 7h2.137A.93.93 0 0 0 8 6.068v-.137A.93.93 0 0 0 7.068 5H4.932zm6 0a.93.93 0 0 0-.932.932v.137a.93.93 0 0 0 .932.932h16.137A.93.93 0 0 0 28 6.068v-.137A.93.93 0 0 0 27.068 5H10.932zm-6 7a.93.93 0 0 0-.932.932v.137a.93.93 0 0 0 .932.932h2.137A.93.93 0 0 0 8 13.068v-.137A.93.93 0 0 0 7.068 12H4.932zm6 0a.93.93 0 0 0-.932.932v.137a.93.93 0 0 0 .932.932h16.137a.93.93 0 0 0 .932-.932v-.137a.93.93 0 0 0-.932-.932H10.932zm-6 7a.93.93 0 0 0-.932.932v.137a.93.93 0 0 0 .932.932h2.137A.93.93 0 0 0 8 20.068v-.137A.93.93 0 0 0 7.068 19H4.932zm6 0a.93.93 0 0 0-.932.932v.137a.93.93 0 0 0 .932.932h16.137a.93.93 0 0 0 .932-.932v-.137a.93.93 0 0 0-.932-.932H10.932zm-6 7a.93.93 0 0 0-.932.932v.137a.93.93 0 0 0 .932.932h2.137A.93.93 0 0 0 8 27.068v-.137A.93.93 0 0 0 7.068 26H4.932zm6 0a.93.93 0 0 0-.932.932v.137a.93.93 0 0 0 .932.932h16.137a.93.93 0 0 0 .932-.932v-.137a.93.93 0 0 0-.932-.932H10.932z" fill="#6d6d70"/></svg>