<svg xmlns="http://www.w3.org/2000/svg" width="32" height="32"><path d="M23.672 18.668c1.656-.004 3 1.34 3 2.996v.77a5 5 0 0 1-1.203 3.25c-2.094 2.445-5.278 3.652-9.469 3.652-4.195 0-7.375-1.207-9.465-3.656a5 5 0 0 1-1.195-3.246v-.77c0-1.656 1.34-3 2.996-3h15.336Zm0 2H8.336a.996.996 0 0 0-1 .996v.77a3 3 0 0 0 .723 1.949c1.668 1.957 4.289 2.953 7.941 2.953s6.273-.996 7.95-2.953a3 3 0 0 0 .722-1.95v-.769a1 1 0 0 0-1-1ZM16 2.672a6.667 6.667 0 1 1 0 13.332 6.666 6.666 0 1 1 0-13.332m0 2a4.667 4.667 0 1 0 0 9.332 4.667 4.667 0 1 0 0-9.332m0 0"/></svg>