<svg xmlns="http://www.w3.org/2000/svg" width="32" height="32"><path fill="#212121" d="M9.895 17.59h1.203c.57 0 .996-.145 1.273-.43.274-.285.41-.668.41-1.14 0-.457-.136-.817-.41-1.07-.273-.255-.648-.384-1.129-.384-.43 0-.793.121-1.082.36a1.127 1.127 0 0 0-.441.922H7.46c0-.594.16-1.125.48-1.594.32-.473.77-.844 1.34-1.11a4.515 4.515 0 0 1 1.906-.398c1.208 0 2.149.29 2.829.867.683.57 1.027 1.364 1.027 2.375 0 .52-.16 1-.48 1.438a3.09 3.09 0 0 1-1.247 1.008c.637.23 1.114.574 1.426 1.03.32.458.477 1 .477 1.626 0 1.012-.367 1.82-1.11 2.43-.734.609-1.707.914-2.921.914-1.133 0-2.063-.301-2.79-.899-.714-.598-1.074-1.39-1.074-2.375h2.254c0 .426.16.777.477 1.047.324.27.722.406 1.187.406.54 0 .957-.14 1.258-.422.309-.285.46-.664.46-1.132 0-1.137-.624-1.704-1.87-1.704h-1.2Zm14.539 1.984c0 1.574-.329 2.778-.98 3.61-.65.832-1.602 1.25-2.856 1.25-1.243 0-2.192-.41-2.844-1.227-.656-.816-.992-1.988-1.012-3.516v-2.093c0-1.59.328-2.793.985-3.618.664-.824 1.613-1.234 2.851-1.234 1.242 0 2.192.406 2.848 1.227.652.812.988 1.98 1.008 3.507Zm-2.262-2.297c0-.941-.129-1.629-.39-2.054-.255-.434-.657-.649-1.204-.649-.531 0-.922.203-1.18.617-.25.407-.382 1.043-.398 1.914v2.766c0 .926.125 1.617.379 2.07.254.45.66.672 1.219.672.55 0 .949-.215 1.191-.648.246-.434.375-1.094.383-1.985ZM23.668 4A4.334 4.334 0 0 1 28 8.332v15.336A4.334 4.334 0 0 1 23.668 28H8.332A4.334 4.334 0 0 1 4 23.668V8.332A4.334 4.334 0 0 1 8.332 4ZM26 11.332H6v12.336A2.336 2.336 0 0 0 8.332 26h15.336A2.33 2.33 0 0 0 26 23.668ZM23.668 6H8.332A2.33 2.33 0 0 0 6 8.332v1h20v-1A2.33 2.33 0 0 0 23.668 6Zm0 0"/></svg>