<svg xmlns="http://www.w3.org/2000/svg" width="32" height="32"><path fill="#fff" d="M5.932 3A.93.93 0 0 0 5 3.932V24l5 5h16.068a.93.93 0 0 0 .932-.932V3.932A.93.93 0 0 0 26.068 3H5.932zM7 5h18v22H11v-4H7V5zm4 2a1 1 0 1 0 0 2h10a1 1 0 1 0 0-2H11zm0 4a1 1 0 1 0 0 2h10a1 1 0 1 0 0-2H11zm-.049 4a.95.95 0 0 0-.951.951v.098a.95.95 0 0 0 .951.951h5.098a.95.95 0 0 0 .951-.951v-.098a.95.95 0 0 0-.951-.951h-5.098zm9 4a.95.95 0 0 0-.951.951v.098a.95.95 0 0 0 .951.951h1.098a.95.95 0 0 0 .951-.951v-.098a.95.95 0 0 0-.951-.951h-1.098z"/></svg>