<svg xmlns="http://www.w3.org/2000/svg" width="32" height="32"><path fill="#6d6d70" d="M7.5 4a.5.5 0 0 0-.5.5V5H4a1 1 0 0 0-1 1v22a1 1 0 0 0 1 1h24a1 1 0 0 0 1-1V6a1 1 0 0 0-1-1h-3v-.5a.5.5 0 0 0-.5-.5h-3a.5.5 0 0 0-.5.5V5H11v-.5a.5.5 0 0 0-.5-.5h-3zM5 8h22v18.73H5V8zm5.787 3c-1.46 0-2.717.416-3.771 1.246l1.131 1.842c.48-.34.915-.58 1.305-.719a3.513 3.513 0 0 1 1.162-.207c1.096 0 1.645.478 1.645 1.436 0 .623-.209 1.065-.625 1.324-.411.254-1.065.381-1.961.381H8.78v2.049h.877c.97 0 1.676.125 2.119.373s.664.668.664 1.262c0 .663-.193 1.145-.578 1.445s-.981.449-1.787.449a5.742 5.742 0 0 1-1.596-.234A7.15 7.15 0 0 1 7 21.041v2.275c.97.456 2.082.684 3.336.684 1.497 0 2.649-.337 3.455-1.012.806-.68 1.209-1.629 1.209-2.846 0-.836-.239-1.5-.719-1.99-.48-.496-1.186-.807-2.119-.934v-.051c.791-.208 1.404-.589 1.842-1.143s.656-1.226.656-2.016c0-.946-.347-1.684-1.043-2.215-.69-.53-1.634-.795-2.83-.795zm10.205 0c-1.357 0-2.361.53-3.014 1.59-.652 1.054-.979 2.695-.979 4.924 0 2.136.334 3.752 1.002 4.846.673 1.094 1.67 1.641 2.99 1.641 1.362 0 2.369-.53 3.021-1.59.658-1.06.986-2.691.986-4.896 0-2.131-.339-3.75-1.018-4.855-.673-1.106-1.67-1.658-2.99-1.658zm0 2.16c.558 0 .962.34 1.213 1.02.256.674.385 1.785.385 3.334 0 1.532-.126 2.637-.377 3.316s-.657 1.02-1.221 1.02c-.574 0-.983-.334-1.229-1.002-.24-.674-.361-1.785-.361-3.334s.124-2.66.369-3.334c.245-.68.652-1.02 1.221-1.02z"/></svg>