<svg xmlns="http://www.w3.org/2000/svg" width="32" height="32" viewBox="0 0 32 32">
 <path style="fill:#ffffff"
       d="M 2.9316406 5 C 2.4152006 5 2 5.4152002 2 5.9316406 L 2 26.068359 C 2 26.5848 2.4152006 27 2.9316406 27 L 29.068359 27 C 29.5848 27 30 26.5848 30 26.068359 L 30 5.9316406 C 30 5.4152002 29.5848 5 29.068359 5 L 2.9316406 5 z M 6.2011719 7 L 25.798828 7 L 16 13.783203 L 6.2011719 7 z M 4 7.9082031 L 15.431641 15.822266 A 1.0001 1.0001 0 0 0 16.568359 15.822266 L 28 7.9082031 L 28 25 L 4 25 L 4 7.9082031 z "
       />
</svg>
