<svg xmlns="http://www.w3.org/2000/svg" width="32" height="32"><path fill="#FFF" d="M22.707 14.707a.998.998 0 0 0-.434-1.7 1 1 0 0 0-.98.286l-6.625 6.629-2.629-2.629a1 1 0 0 0-1.414 1.414l3.336 3.332a1 1 0 0 0 1.414 0Zm-1.383-9.262a2.995 2.995 0 0 0-2.992-2.777h-4.664a3.005 3.005 0 0 0-2.984 2.664H8.332a3 3 0 0 0-3 3v18a3 3 0 0 0 3 3h15.336a3 3 0 0 0 3-3v-18a3 3 0 0 0-3-3h-2.352Zm0 .016.008.207q.001-.103-.004-.207Zm-7.656 3.207h4.664a3 3 0 0 0 2.496-1.336h2.84c.55 0 1 .45 1 1v18a1 1 0 0 1-1 1H8.332a1 1 0 0 1-1-1v-18c0-.55.45-1 1-1h2.84a3 3 0 0 0 2.496 1.336m0-4h4.664a1 1 0 1 1 0 2h-4.664a1 1 0 1 1 0-2m0 0"/></svg>