<svg xmlns="http://www.w3.org/2000/svg" width="32" height="32"><path fill="#FFF" d="M18.332 2.668a3.002 3.002 0 0 1 2.984 2.668v-.004h2.352a3 3 0 0 1 3 3v7a8.517 8.517 0 0 0-2-.562V8.332c0-.55-.45-1-1-1h-2.84a2.997 2.997 0 0 1-2.496 1.336h-4.664a2.997 2.997 0 0 1-2.496-1.336h-2.84c-.55 0-1 .45-1 1v18a1 1 0 0 0 1 1h7.313a8.543 8.543 0 0 0 1.433 2H8.332a3 3 0 0 1-3-3v-18a3 3 0 0 1 3-3h2.352a3.005 3.005 0 0 1 2.984-2.664Zm2.996 2.793.004.207c0-.07 0-.137-.004-.207Zm-2.996-.793h-4.664a1 1 0 1 0 0 2h4.664a1 1 0 1 0 0-2Zm12.336 18.664a7.337 7.337 0 0 1-7.336 7.336 7.335 7.335 0 1 1 7.336-7.336Zm-11.336-.664a.664.664 0 0 0-.664.664c0 .371.297.668.664.668h6.39l-2.195 2.195a.667.667 0 0 0 .945.941l3.333-3.331a.665.665 0 0 0 0-.942l-3.332-3.336a.667.667 0 1 0-.946.946l2.196 2.195Zm0 0"/></svg>