<svg xmlns="http://www.w3.org/2000/svg" width="32" height="32"><path d="M21.004 4a3 3 0 0 1 3 3v1.004h1a4.34 4.34 0 0 1 4.336 4.332l.004 7.996a3 3 0 0 1-3 3H24V25a3 3 0 0 1-3 3H11a3 3 0 0 1-3-3v-1.668H5.668a3 3 0 0 1-3-3V12.34A4.333 4.333 0 0 1 7 8.004h1V7a3 3 0 0 1 3-3ZM21 18H11c-.55 0-1 .45-1 1v6c0 .55.45 1 1 1h10c.55 0 1-.45 1-1v-6c0-.55-.45-1-1-1m4.004-7.996H7a2.334 2.334 0 0 0-2.332 2.336v7.992c0 .555.445 1 1 1H8V19a3 3 0 0 1 3-3h10a3 3 0 0 1 3 3v2.332h2.379a.997.997 0 0 0 .965-.996l-.004-7.996a2.34 2.34 0 0 0-2.336-2.336m-4-4.004H11c-.55 0-1 .45-1 1v1.004h12.004V7c0-.55-.45-1-1-1m0 0"/></svg>