<svg xmlns="http://www.w3.org/2000/svg" width="32" height="32" viewBox="0 0 32 32">
 <path style="fill:#ffffff"
       d="M 7.5 4 C 7.223 4 7 4.223 7 4.5 L 7 5 L 5 5 L 4 5 C 3.446 5 3 5.446 3 6 L 3 28 C 3 28.554 3.446 29 4 29 L 28 29 C 28.554 29 29 28.554 29 28 L 29 6 C 29 5.446 28.553999 5 28 5 L 27 5 L 25 5 L 25 4.5 C 25 4.223 24.777 4 24.5 4 L 21.5 4 C 21.223 4 21 4.223 21 4.5 L 21 5 L 11 5 L 11 4.5 C 11 4.223 10.777 4 10.5 4 L 7.5 4 z M 5 8 L 27 8 L 27 27 L 5 27 L 5 8 z M 10.578125 11 C 9.969938 11 9.4209155 11.06087 8.9296875 11.183594 C 8.4384595 11.300474 7.9855175 11.471287 7.5703125 11.693359 C 7.1551085 11.915432 6.631579 12.294383 6 12.832031 L 7.4746094 14.576172 C 7.9833814 14.155403 8.4716171 13.831432 8.9394531 13.603516 C 9.4072891 13.3756 9.8896415 13.261719 10.386719 13.261719 C 10.860403 13.261719 11.236876 13.38738 11.517578 13.638672 C 11.804128 13.889965 11.947266 14.272837 11.947266 14.787109 C 11.947266 15.131906 11.882566 15.465689 11.753906 15.787109 C 11.625252 16.10853 11.415445 16.45803 11.123047 16.837891 C 10.830649 17.211907 10.207122 17.887332 9.2539062 18.863281 L 6 22 L 6.0351562 24 L 15 24 L 15 22 L 9 22 L 9.4121094 21.597656 L 11.060547 20.046875 C 12.159962 19.041706 12.926626 18.26615 13.359375 17.722656 C 13.797972 17.179164 14.11954 16.650991 14.324219 16.136719 C 14.534745 15.616601 14.640625 15.060948 14.640625 14.470703 C 14.640625 13.792798 14.470041 13.191976 14.130859 12.666016 C 13.791674 12.140054 13.315207 11.7297 12.701172 11.4375 C 12.087137 11.145299 11.379294 11 10.578125 11 z M 21.816406 11 L 16 19 L 16 21 L 22 21 L 22 24 L 24 24 L 24 21 L 26 21 L 26 19 L 24 19 L 24 11 L 21.816406 11 z M 22 14 L 22 19 L 18.46875 19 L 22 14 z "
       />
</svg>
