<svg xmlns="http://www.w3.org/2000/svg" width="32" height="32" viewBox="0 0 32 32">
 <path style="fill:#ffffff"
       d="M 16 3 C 12.682695 3 10 5.7768287 10 9.1425781 C 10 12.239864 12.306354 14.735986 15.253906 15.130859 C 9.6201213 15.478817 5 19.443679 5 24.572266 C 5 25.439724 5.511781 26.161184 6.15625 26.683594 C 6.800719 27.206004 7.6268388 27.605876 8.6054688 27.941406 C 10.562728 28.612467 13.145929 29 16 29 C 18.854071 29 21.437272 28.612467 23.394531 27.941406 C 24.373161 27.605876 25.199281 27.206004 25.84375 26.683594 C 26.488219 26.161184 27 25.439724 27 24.572266 C 27 19.443679 22.379879 15.478817 16.746094 15.130859 C 19.693646 14.735986 22 12.239864 22 9.1425781 C 22 5.7768283 19.317305 2.9999993 16 3 z M 16 5 C 18.205543 4.9999995 20 6.8276841 20 9.1425781 C 20 11.457472 18.205543 13.285157 16 13.285156 C 13.794458 13.285156 12 11.457472 12 9.1425781 C 12 6.8276845 13.794458 5 16 5 z M 16 17 C 21.059613 17 25 20.46891 25 24.572266 C 25 24.651586 24.95157 24.830939 24.583984 25.128906 C 24.216398 25.426874 23.577108 25.765862 22.746094 26.050781 C 21.084065 26.62062 18.668777 27 16 27 C 13.331223 27 10.915935 26.62062 9.2539062 26.050781 C 8.4228922 25.765862 7.7836016 25.426874 7.4160156 25.128906 C 7.0484286 24.830939 7 24.651582 7 24.572266 C 7 20.46891 10.940387 17 16 17 z "
       />
</svg>
