<svg xmlns="http://www.w3.org/2000/svg" width="32" height="32"><path d="M21.332 11a1 1 0 1 1 2 0v4.332c0 .555-.445 1-1 1h-3.664a1 1 0 1 1 0-2h1.691a4.67 4.67 0 0 0-4.359-3c-1.457 0-2.715.621-3.563 1.64a1 1 0 0 1-1.41.13 1 1 0 0 1-.129-1.41c1.23-1.477 3.051-2.36 5.102-2.36A6.65 6.65 0 0 1 21.332 12Zm-10.664 9v1a1 1 0 1 1-2 0v-4a1 1 0 0 1 1-1h3.664a1 1 0 1 1 0 2h-1.55a4.69 4.69 0 0 0 3.62 2.625 4.67 4.67 0 0 0 4.168-1.605 1.002 1.002 0 0 1 1.723.304 1 1 0 0 1-.2.992A6.683 6.683 0 0 1 10.669 20ZM16 2.668C8.637 2.668 2.668 8.637 2.668 16S8.637 29.332 16 29.332 29.332 23.363 29.332 16 23.363 2.668 16 2.668M27.332 16c0 6.258-5.074 11.332-11.332 11.332S4.668 22.258 4.668 16 9.742 4.668 16 4.668 27.332 9.742 27.332 16m0 0"/></svg>