<svg xmlns="http://www.w3.org/2000/svg" width="32" height="32"><path fill="#fff" d="M16 3c-3.317 0-6 2.777-6 6.143 0 3.097 2.306 5.593 5.254 5.988C9.62 15.479 5 19.444 5 24.572c0 .867.512 1.589 1.156 2.111s1.471.922 2.449 1.258C10.563 28.612 13.146 29 16 29s5.437-.388 7.395-1.059c.979-.336 1.805-.735 2.449-1.258S27 25.44 27 24.572c0-5.129-4.62-9.093-10.254-9.441C19.694 14.736 22 12.24 22 9.143 22 5.777 19.317 3 16 3zm0 2c2.206 0 4 1.828 4 4.143s-1.794 4.143-4 4.143-4-1.828-4-4.143S13.794 5 16 5zm0 12c5.06 0 9 3.469 9 7.572 0 .079-.048.259-.416.557s-1.007.637-1.838.922c-1.662.57-4.077.949-6.746.949s-5.084-.379-6.746-.949c-.831-.285-1.47-.624-1.838-.922S7 24.652 7 24.572C7 20.469 10.94 17 16 17z"/></svg>