<svg xmlns="http://www.w3.org/2000/svg" width="32" height="32"><path fill="#000" d="M23.668 4A4.334 4.334 0 0 1 28 8.332v15.336A4.334 4.334 0 0 1 23.668 28H8.332A4.334 4.334 0 0 1 4 23.668V8.332A4.334 4.334 0 0 1 8.332 4ZM26 11.332H6v12.336A2.336 2.336 0 0 0 8.332 26h15.336A2.33 2.33 0 0 0 26 23.668Zm-15.668 8a1.667 1.667 0 1 1 .002 3.334 1.667 1.667 0 0 1-.002-3.334m5.668 0a1.667 1.667 0 1 1 0 3.336 1.667 1.667 0 1 1 0-3.336M10.332 14a1.667 1.667 0 1 1 .002 3.334A1.667 1.667 0 0 1 10.332 14M16 14a1.667 1.667 0 1 1 .002 3.334A1.667 1.667 0 0 1 16 14m5.668 0a1.666 1.666 0 1 1-.004 3.333A1.666 1.666 0 0 1 21.668 14m2-8H8.332A2.33 2.33 0 0 0 6 8.332v1h20v-1A2.33 2.33 0 0 0 23.668 6m0 0"/></svg>