<svg xmlns="http://www.w3.org/2000/svg" width="32" height="32"><path fill="#212121" d="M20.668 16.332c0-.55-.45-1-1-1H13c-.55 0-1 .45-1 1V17c0 1.332 1.844 2.332 4.332 2.332 2.492 0 4.336-1 4.336-2.332Zm-2-4.672a2.333 2.333 0 0 0-2.336-2.328 2.33 2.33 0 1 0 0 4.66 2.334 2.334 0 0 0 2.336-2.332ZM5.332 6a3.333 3.333 0 0 1 3.336-3.332H24A3.333 3.333 0 0 1 27.332 6v19a1 1 0 0 1-1 1h-19c0 .738.598 1.332 1.336 1.332h17.664a1 1 0 1 1 0 2H8.668A3.333 3.333 0 0 1 5.332 26Zm2 0v18h18V6c0-.738-.594-1.332-1.332-1.332H8.668c-.738 0-1.336.594-1.336 1.332Zm0 0"/></svg>