<svg xmlns="http://www.w3.org/2000/svg" width="32" height="32"><path fill="#fff" d="M7.5 4a.5.5 0 0 0-.5.5V5H4a1 1 0 0 0-1 1v22a1 1 0 0 0 1 1h24a1 1 0 0 0 1-1V6a1 1 0 0 0-1-1h-3v-.5a.5.5 0 0 0-.5-.5h-3a.5.5 0 0 0-.5.5V5H11v-.5a.5.5 0 0 0-.5-.5h-3zM5 8h22v19H5V8zm5.578 3a6.79 6.79 0 0 0-1.648.184c-.491.117-.944.288-1.359.51s-.939.601-1.57 1.139l1.475 1.744c.509-.421.997-.745 1.465-.973s.95-.342 1.447-.342c.474 0 .85.126 1.131.377.287.251.43.634.43 1.148a2.67 2.67 0 0 1-.193 1c-.129.321-.338.671-.631 1.051-.292.374-.916 1.049-1.869 2.025L6 22l.035 2H15v-2H9l.412-.402 1.648-1.551c1.099-1.005 1.866-1.781 2.299-2.324.439-.543.76-1.072.965-1.586a4.4 4.4 0 0 0 .316-1.666c0-.678-.171-1.279-.51-1.805s-.816-.936-1.43-1.229S11.379 11 10.578 11zm11.238 0L16 19v2h6v3h2v-3h2v-2h-2v-8h-2.184zM22 14v5h-3.531L22 14z"/></svg>