<svg xmlns="http://www.w3.org/2000/svg" width="32" height="32"><path d="m12.457 18.684.656-5.782h6.38v1.883h-4.528l-.277 2.445a3.6 3.6 0 0 1 1.707-.43q1.627 0 2.546 1.009.926 1.008.926 2.82-.002 1.102-.472 1.976a3.26 3.26 0 0 1-1.329 1.352c-.578.316-1.257.477-2.046.477a4.4 4.4 0 0 1-1.91-.414 3.47 3.47 0 0 1-1.403-1.18 3.27 3.27 0 0 1-.539-1.727h2.234q.072.71.496 1.11.429.39 1.114.39.768 0 1.18-.547.414-.555.413-1.562c0-.645-.156-1.14-.476-1.484q-.474-.516-1.352-.516-.802 0-1.3.422l-.22.203ZM23.668 4A4.334 4.334 0 0 1 28 8.332v15.336A4.334 4.334 0 0 1 23.668 28H8.332A4.334 4.334 0 0 1 4 23.668V8.332A4.334 4.334 0 0 1 8.332 4ZM26 11.332H6v12.336A2.336 2.336 0 0 0 8.332 26h15.336A2.33 2.33 0 0 0 26 23.668ZM23.668 6H8.332A2.33 2.33 0 0 0 6 8.332v1h20v-1A2.33 2.33 0 0 0 23.668 6m0 0"/></svg>