<svg xmlns="http://www.w3.org/2000/svg" width="32" height="32" viewBox="0 0 32 32">
 <path style="fill:#6d6d70"
       d="M 7,4 C 6.446,4 6,4.446 6,5 L 6,6 5,6 C 4.446,6 4,6.446 4,7 l 0,4 c 0,0.554 0.446,1 1,1 l 1,0 0,8 -1,0 c -0.554,0 -1,0.446 -1,1 l 0,4 c 0,0.554 0.446,1 1,1 l 1,0 0,1 c 0,0.554 0.446,1 1,1 l 20,0 c 0.554,0 1,-0.446 1,-1 L 28,5 C 28,4.446 27.554,4 27,4 Z m 1,2 3,0 0,20 -3,0 z m 4,0 14,0 0,20 -14,0 z m 7,3 c -1.656854,0 -3,1.343146 -3,3 0,1.656854 1.343146,3 3,3 1.656854,0 3,-1.343146 3,-3 0,-1.656854 -1.343146,-3 -3,-3 z m 0,7 c -3.313708,0 -6,2.238576 -6,5 0,1.104569 2.686292,2 6,2 3.313708,0 6,-0.895431 6,-2 0,-2.761424 -2.686292,-5 -6,-5 z"
       />
</svg>
