<svg xmlns="http://www.w3.org/2000/svg" width="32" height="32"><path fill="#212121" d="M4.332 23.332a1.667 1.667 0 1 1 .002 3.334 1.667 1.667 0 0 1-.002-3.334ZM9 24h19.332a.999.999 0 0 1 1.008.934.995.995 0 0 1-.871 1.058l-.137.008H9a1.002 1.002 0 0 1-.137-1.992L9 24h19.332Zm-4.668-9.332a1.666 1.666 0 1 1 .003 3.333 1.666 1.666 0 0 1-.003-3.333ZM9 15.332h19.332c.531-.004.973.406 1.008.934a.995.995 0 0 1-.871 1.058l-.137.008H9a1 1 0 0 1-.137-1.988L9 15.332h19.332ZM4.332 6a1.667 1.667 0 1 1 0 3.332 1.667 1.667 0 0 1 0-3.332ZM9 6.668h19.332a.996.996 0 0 1 1.008.93.996.996 0 0 1-.871 1.062l-.137.008H9a1 1 0 0 1-.996-.934 1 1 0 0 1 .86-1.058L9 6.668h19.332Zm0 0"/></svg>