<svg xmlns="http://www.w3.org/2000/svg" width="32" height="32" viewBox="0 0 32 32">
 <path style="fill:#ffffff"
       d="M 16 1 A 4 4 0 0 0 12 5 L 6 5 C 5.446 5 5 5.446 5 6 L 5 28 C 5 28.554 5.446 29 6 29 L 11.980469 29 L 11.980469 29.015625 C 11.980469 29.569625 12.426469 30.015625 12.980469 30.015625 L 26.980469 30.015625 C 27.534469 30.015625 27.980469 29.569625 27.980469 29.015625 L 27.980469 19.015625 C 27.980469 18.461625 27.534469 18.015625 26.980469 18.015625 L 12.980469 18.015625 C 12.426469 18.015625 11.980469 18.461625 11.980469 19.015625 L 11.980469 27 L 7 27 L 7 7 L 11 7 L 11 9 L 21 9 L 21 7 L 25 7 L 25 18 L 27 18 L 27 6 C 27 5.446 26.554 5 26 5 L 20 5 A 4 4 0 0 0 16 1 z M 16 3 A 2 2 0 0 1 18 5 A 2 2 0 0 1 16 7 A 2 2 0 0 1 14 5 A 2 2 0 0 1 16 3 z M 15.648438 20.015625 L 24.3125 20.015625 L 19.980469 23.265625 L 15.648438 20.015625 z M 13.980469 21.167969 L 19.380859 25.316406 C 19.736269 25.582649 20.224668 25.582649 20.580078 25.316406 L 25.980469 21.236328 L 25.980469 28.015625 L 13.980469 28.015625 L 13.980469 21.167969 z "
       />
</svg>
