<svg xmlns="http://www.w3.org/2000/svg" width="32" height="32"><path fill="#6d6d70" d="M7.5 4a.5.5 0 0 0-.5.5V5H4a1 1 0 0 0-1 1v22a1 1 0 0 0 1 1h24a1 1 0 0 0 1-1V6a1 1 0 0 0-1-1h-3v-.5a.5.5 0 0 0-.5-.5h-3a.5.5 0 0 0-.5.5V5H11v-.5a.5.5 0 0 0-.5-.5h-3zM5 8h22v18.73H5V8zm6.859 3-.562 6.535 1.26.578a9.52 9.52 0 0 1 1.064-.191 8.28 8.28 0 0 1 1.197-.098c1.999 0 2.998.647 2.998 1.939 0 1.357-.965 2.035-2.896 2.035a9.83 9.83 0 0 1-2.037-.229A9.518 9.518 0 0 1 11 20.964v2.342c1.024.462 2.368.693 4.033.693 1.917 0 3.392-.386 4.422-1.158S21 20.968 21 19.535c0-1.211-.429-2.163-1.289-2.859-.853-.696-2.003-1.045-3.449-1.045-.614 0-1.131.041-1.547.123l-.357.063.275-2.518h5.344V11H11.86z"/></svg>