<svg xmlns="http://www.w3.org/2000/svg" width="16" height="16" viewBox="0 0 16 16">
 <path style="fill:#6d6d70"
       d="M 12 0 L 12 2 L 10 2 L 10 4 L 12 4 L 12 6 L 14 6 L 14 4 L 16 4 L 16 2 L 14 2 L 14 0 L 12 0 z M 3.6796875 1 C 3.3026272 1 3 1.3026272 3 1.6796875 L 3 2 L 2 2 C 1.446 2 1 2.446 1 3 L 1 14 C 1 14.554 1.446 15 2 15 L 14 15 C 14.554 15 15 14.554 15 14 L 15 7 L 13 7 L 13 13 L 3 13 L 3 5 L 9 5 L 9 2 L 6 2 L 6 1.6796875 C 6 1.3026272 5.6973728 1 5.3203125 1 L 3.6796875 1 z M 5 6 C 4.446 6 4 6.446 4 7 C 4 7.554 4.446 8 5 8 C 5.554 8 6 7.554 6 7 C 6 6.446 5.554 6 5 6 z M 8 6 C 7.446 6 7 6.446 7 7 C 7 7.554 7.446 8 8 8 C 8.554 8 9 7.554 9 7 C 9 6.446 8.554 6 8 6 z M 11 6 C 10.446 6 10 6.446 10 7 C 10 7.554 10.446 8 11 8 C 11.554 8 12 7.554 12 7 C 12 6.446 11.554 6 11 6 z M 5 9 C 4.446 9 4 9.446 4 10 C 4 10.554 4.446 11 5 11 C 5.554 11 6 10.554 6 10 C 6 9.446 5.554 9 5 9 z M 8 9 C 7.446 9 7 9.446 7 10 C 7 10.554 7.446 11 8 11 C 8.554 11 9 10.554 9 10 C 9 9.446 8.554 9 8 9 z M 11 9 C 10.446 9 10 9.446 10 10 C 10 10.554 10.446 11 11 11 C 11.554 11 12 10.554 12 10 C 12 9.446 11.554 9 11 9 z "
       />
</svg>
