<svg xmlns="http://www.w3.org/2000/svg" width="16" height="16" viewBox="0 0 114.54 122.88"><path fill="#6d6d70" fill-rule="evenodd" d="M85.1 4v14.72h-5.4V7.1H6v98.46h44.08v9.5a18.1 18.1 0 0 0 1.41 7l.35.8H4a4 4 0 0 1-4-4V4a4 4 0 0 1 4-4h77.11a4 4 0 0 1 4 4zM70.56 31.05H105a9.53 9.53 0 0 1 9.51 9.51v72.81a9.53 9.53 0 0 1-9.51 9.51H70.56a9.53 9.53 0 0 1-9.51-9.51V40.55a9.51 9.51 0 0 1 9.51-9.5m-6.23 78.62h46.92V41.42H64.33zm23.45 3a3.91 3.91 0 1 1-3.91 3.91 3.9 3.9 0 0 1 3.91-3.91m-47.14-3.07a4.57 4.57 0 1 1-4.56 4.56 4.56 4.56 0 0 1 4.56-4.56"/></svg>