<svg xmlns="http://www.w3.org/2000/svg" width="20" height="20" viewBox="0 0 101.83 122.88"><path d="M6.77 12.82h16.25v10.5h-7.01a5.76 5.76 0 0 0-5.72 5.72v78.43c0 3.13 2.58 5.72 5.72 5.72h69.8c3.14 0 5.72-2.58 5.72-5.72V29.04c0-3.14-2.59-5.72-5.72-5.72H78.8v-10.5h16.25c3.73 0 6.77 3.07 6.77 6.77v96.51a6.81 6.81 0 0 1-6.77 6.77H6.77c-3.71 0-6.77-3.05-6.77-6.77V19.59a6.79 6.79 0 0 1 6.77-6.77h0zm31.02 83.07a3.64 3.64 0 1 1 0-7.28h26.24a3.64 3.64 0 1 1 0 7.28H37.79h0zm-7.76-21.98a3.64 3.64 0 1 1 0-7.28h41.76a3.64 3.64 0 1 1 0 7.28H30.03h0zM23.2 51.94a3.64 3.64 0 1 1 0-7.28h55.44a3.64 3.64 0 1 1 0 7.28H23.2h0zm9.2-42.48h7.68C40.73 4.13 45.04 0 50.26 0c5.19 0 9.47 4.07 10.17 9.35l8.99.11a1.12 1.12 0 0 1 1.13 1.13v15.33a1.12 1.12 0 0 1-1.13 1.13h-37c-.61 0-1.13-.5-1.13-1.13V10.59c-.02-.62.49-1.13 1.11-1.13h0 0 0zm13.66 4.64c.69.95 1.69 1.89 2.74 2.37.86.26 1.8.28 2.67.04 1.36-.63 2.62-2.14 3.2-3.4.07-.36.11-.73.11-1.13 0-2.67-2.05-4.84-4.57-4.84-2.53 0-4.57 2.17-4.57 4.84 0 .82.15 1.53.42 2.12h0 0 0z" fill="#6d6d70" fill-rule="evenodd"/></svg>
