<svg xmlns="http://www.w3.org/2000/svg" width="20" height="20" viewBox="0 0 122.88 91.99"><path fill="#6d6d70" fill-rule="evenodd" d="M45.13 35.29h-.04c-7.01-.79-16.42.01-20.78 0-7.27.31-14.84 6.62-19.29 16.01-2.61 5.51-3.3 9.66-3.73 15.55C.42 72.79-.03 78.67 0 84.47c1.43 9.03 12.88 6.35 13.85 0l1.39-18.2c.21-2.75.4-4.61 1.51-7.23.52-1.23 1.15-2.28 1.89-3.15l.69 33.25-.39 2.78h31.49l-.42-3.1.61-36.67c3.2-1.29 5.96-1.89 8.39-1.99l-.37.75c-2.61 5.51-3.3 9.66-3.73 15.55-.86 5.93-1.32 11.81-1.29 17.61 1.43 9.03 12.88 6.35 13.85 0l1.39-18.2c.21-2.75.4-4.61 1.51-7.23.52-1.23 1.15-2.28 1.89-3.15l.69 33.25-.46 3.24h31.62l-.48-3.55.49-28.62v.56l.1-4.87c.74.87 1.36 1.92 1.89 3.15 1.12 2.62 1.3 4.48 1.51 7.23l1.39 18.2c1.34 8.68 13.85 8.85 13.85 0 .03-5.81-.42-11.68-1.29-17.61-.43-5.89-1.12-10.04-3.73-15.55-4.57-9.65-10.48-14.76-19.45-15.81-5.53-.45-14.82.06-20.36-.1-1.38.19-2.74.47-4.06.87-3.45-.48-8.01-1.07-12.56-1.09-6.65-.02-13.26 1.12-16.28.5zM88.3 0c9.01 0 16.32 7.31 16.32 16.32S97.31 32.64 88.3 32.64s-16.32-7.31-16.32-16.32S79.29 0 88.3 0zM34.56 0c9.01 0 16.32 7.31 16.32 16.32s-7.31 16.32-16.32 16.32-16.32-7.31-16.32-16.32S25.55 0 34.56 0z"/></svg>