<svg xmlns="http://www.w3.org/2000/svg" width="16" height="16" viewBox="0 0 106.45 122.88"><path d="M27.03 0H78.2c10.61 0 18.1 8.75 19.28 19.28l7.71 68.38c.02.06.03.13.04.19.59 4.97 1.02 9.29 1.16 13.11.14 3.85-.02 7.15-.63 10-.01.05-.03.11-.04.16-.56 6.55-6.1 11.75-12.8 11.75h-79.8c-6.7 0-12.25-5.2-12.8-11.77a1.07 1.07 0 0 1-.03-.25l-.01-.46v-.07l-.11-3.52c-.16-4.77-.34-10.29.05-15.06l-.01.02L.3 91c.02-.25.05-.51.08-.76l7.37-70.96C8.84 8.73 16.43 0 27.03 0h0zm76.87 103.37a61.02 61.02 0 0 0-.05-2.3c-.13-3.45-.51-7.43-1.04-11.99a7.64 7.64 0 0 0-2.79-.52H6.48c-1.23 0-2.39.29-3.42.8-.56 3.9-.56 8.74-.45 13.33 2.33-3.32 6.18-5.5 10.52-5.5h79.8c4.63 0 8.71 2.48 10.97 6.18h0zm-88.95 4.48h19.74v7.01H14.95v-7.01h0z" fill-rule="evenodd" fill="#6d6d70"/></svg>
