<svg xmlns="http://www.w3.org/2000/svg" viewBox="0 0 560 140"><defs><style>.cls-1{fill:#dfdfdf;}.cls-2{fill:#2dcaff;}</style></defs><g id="text"><path id="path48" class="cls-1" d="M246,98.1A6.12,6.12,0,0,1,239.86,92V69.8a28.33,28.33,0,0,1,28.3-28.3,6.14,6.14,0,0,1,0,12.27,16,16,0,0,0-16,16V92A6.13,6.13,0,0,1,246,98.1"/><g id="g4575"><path id="path40" class="cls-1" d="M232.26,68v3.53c0-.57.06-1.15.06-1.73S232.31,68.6,232.26,68Z"/><path class="cls-1" d="M232.27,71.54V68l0-20.38a6.13,6.13,0,0,0-12.16-1.12,28.31,28.31,0,1,0,0,46.63v3.12a16.08,16.08,0,0,1-16,16l-11.23.07a6.14,6.14,0,0,0,0,12.28l11.23-.08a28.33,28.33,0,0,0,28.3-28.3ZM220,71.19a16.06,16.06,0,1,1,0-2.82,13.62,13.62,0,0,1,.07,1.44C220.06,70.27,220,70.74,220,71.19Z"/><path class="cls-1" d="M220.06,69.81c0,.46,0,.93-.06,1.38V68.37A13.62,13.62,0,0,1,220.06,69.81Z"/></g><path class="cls-1" d="M326.24,41.5a6.13,6.13,0,0,0-6.1,5.5,28.3,28.3,0,1,0,0,45.6A6.14,6.14,0,0,0,332.38,92V47.63A6.13,6.13,0,0,0,326.24,41.5ZM303.41,85.83a16,16,0,1,1,16-16A16,16,0,0,1,303.41,85.83Z"/><path id="path60" class="cls-1" d="M388.28,41.66h0a20,20,0,0,0-14.15,5.83A20,20,0,0,0,360,41.66h0A20.08,20.08,0,0,0,339.9,61.74V91.9a6,6,0,1,0,12.09,0V61.85a8.17,8.17,0,0,1,7.46-8.25,8,8,0,0,1,8.53,8V91.9a6.05,6.05,0,0,0,6,6h.21a6,6,0,0,0,6-6V61.58a8,8,0,0,1,8-8h0a8,8,0,0,1,8,8V91.9a6,6,0,1,0,12.08,0V61.74a20.08,20.08,0,0,0-20.08-20.08"/><path id="path64" class="cls-1" d="M464.1,41.66h0A20,20,0,0,0,450,47.49a20,20,0,0,0-14.15-5.83h0a20.08,20.08,0,0,0-20.08,20.08V91.9a6,6,0,1,0,12.09,0V61.85a8.17,8.17,0,0,1,7.46-8.25,8,8,0,0,1,8.53,8V91.9a6,6,0,0,0,6,6h.22a6,6,0,0,0,6-6V61.58a8,8,0,0,1,8-8h0a8,8,0,0,1,8,8V91.9a6,6,0,1,0,12.08,0V61.74A20.08,20.08,0,0,0,464.1,41.66"/><path id="path68" class="cls-1" d="M539.92,41.66h0a20,20,0,0,0-14.15,5.83,20,20,0,0,0-14.15-5.83h0a20.08,20.08,0,0,0-20.08,20.08V91.9a6,6,0,1,0,12.09,0V61.85a8.17,8.17,0,0,1,7.46-8.25,8,8,0,0,1,8.53,8V91.9a6,6,0,0,0,6,6h.22a6,6,0,0,0,6-6V61.58a8,8,0,0,1,8-8h0a8,8,0,0,1,8,8V91.9A6.05,6.05,0,0,0,554,98h0a6,6,0,0,0,6-6V61.74a20.08,20.08,0,0,0-20.08-20.08"/></g><g id="icon"><path id="path92" class="cls-1" d="M159,7.69l-44.36,20,17,28.23L159,8.6Z"/><path id="path72" class="cls-1" d="M43.14,32.87,46.12,0H1.35Z"/><path id="path76" class="cls-2" d="M44.08,72.71l26.12,3L49.62,52.55Z"/><path id="path80" class="cls-2" d="M41.59,44.29,0,11.57C5,20.13,17.17,41.3,34.28,70.94Z"/><path id="path84" class="cls-2" d="M52.85,35.7,101.71,22,97,0H56.09Z"/><path id="path88" class="cls-2" d="M99.58,32.9,56.23,45.06,83.86,76.13Z"/><path id="path96" class="cls-2" d="M111.1,18.46,151.94,0H107.13Z"/><path id="path100" class="cls-2" d="M95,74.6l29.32-5.82,1.73-3L108.66,37Z"/><path id="path104" class="cls-1" d="M77.31,86.52,40.85,82.33c16.44,28.46,30,51.9,33.3,57.67Z"/><path id="path108" class="cls-2" d="M87.08,89.56,84.2,138.22l18.42-31.9Z"/><path id="path112" class="cls-2" d="M96,84.53l11.86,12.79,9.88-17.11Z"/></g></svg>