<svg xmlns="http://www.w3.org/2000/svg" viewBox="0 0 620 140"><g id="grommunio"><path d="M186.67,53.18q-11.14,0-13.28,16.21-1.11,8.42,1.28,12.57a8.33,8.33,0,0,0,7.67,4.15,12.13,12.13,0,0,0,8.23-3.24,11.92,11.92,0,0,0,4.34-7.6l1.44-11a9.43,9.43,0,0,0-2.3-7.9,9.32,9.32,0,0,0-7.38-3.24Zm-9.92,43.06q-8.92,0-13.66-7.09T160,69.39q1.67-12.57,7.94-19.45a20.65,20.65,0,0,1,15.8-6.9,18,18,0,0,1,8.18,1.73,18.83,18.83,0,0,1,6.44,5.77.24.24,0,0,0,.19.1.1.1,0,0,0,.11-.1l.1-.71a6.6,6.6,0,0,1,2.35-4,6.44,6.44,0,0,1,4.38-1.72h1.12a4.52,4.52,0,0,1,3.72,1.72,4.9,4.9,0,0,1,1.19,4L205.89,92.7q-3.6,27.36-31,27.36a66.68,66.68,0,0,1-10.13-.81,5.39,5.39,0,0,1-3.73-2.43,6.34,6.34,0,0,1-.94-4.46,4.53,4.53,0,0,1,2.05-3.25,4.86,4.86,0,0,1,3.83-.6,39.76,39.76,0,0,0,10,1.21q7.5,0,11.47-4T192.57,93l.42-3.14c0-.07,0-.1-.09-.1a.33.33,0,0,0-.22.1,22.78,22.78,0,0,1-15.94,6.38Zm38.61.51A4.83,4.83,0,0,1,211.54,95,4.91,4.91,0,0,1,210.35,91l5.42-41.14a6.4,6.4,0,0,1,2.25-4,6.32,6.32,0,0,1,4.28-1.72h2a4.82,4.82,0,0,1,3.82,1.72,4.9,4.9,0,0,1,1.19,4l-.56,4.26c0,.07,0,.1.09.1s.21,0,.22-.1a26.86,26.86,0,0,1,8.57-6.59,30.43,30.43,0,0,1,10.86-3.24A3.72,3.72,0,0,1,252,45.68a4.42,4.42,0,0,1,1,3.65A5.75,5.75,0,0,1,251,53a6.7,6.7,0,0,1-3.87,1.73Q229,56.11,226.81,72.94l-2.38,18A6.4,6.4,0,0,1,222.18,95a6.32,6.32,0,0,1-4.28,1.72Z" style="fill:#dfdfdf"/><path id="B" d="M284.85,57.13q-2.39-4.26-8.36-4.26a11.92,11.92,0,0,0-9.58,4.26q-3.48,4.15-4.68,13.27t1.18,13.38q2.49,4.16,8.47,4.16a11.7,11.7,0,0,0,9.46-4.16q3.6-4.26,4.8-13.38T284.85,57.13Zm5.52,33.54q-7.64,7.1-19.79,7.09t-18-7.09q-5.74-7.2-4-20.27t9.34-20.16q7.74-7.2,19.9-7.2t17.9,7.2q5.85,7.09,4.13,20.16T290.37,90.67Z" style="fill:#dfdfdf"/><path id="C" d="M305.13,96.75A4.82,4.82,0,0,1,301.31,95,5.1,5.1,0,0,1,300.22,91l5.42-41.14a6.59,6.59,0,0,1,2.15-4,6.32,6.32,0,0,1,4.28-1.72h1.42a4.72,4.72,0,0,1,3.74,1.62,4.92,4.92,0,0,1,1.3,4l-.09.71c0,.07,0,.1.09.1s.2,0,.21-.1q6.94-7.29,14.44-7.3a12.37,12.37,0,0,1,7.07,1.73q2.61,1.71,4.16,6.08c0,.06.06.1.19.1a.39.39,0,0,0,.22-.1Q352.23,43,360.24,43q8.4,0,11.45,4.56t1.68,15.71L369.73,91A6.4,6.4,0,0,1,367.48,95a6,6,0,0,1-4.18,1.72h-1.73A4.83,4.83,0,0,1,357.75,95,4.91,4.91,0,0,1,356.56,91l3.37-25.63c.65-4.93.61-8.18-.13-9.73s-2.47-2.33-5.17-2.33A9,9,0,0,0,349,55.71q-3,2.43-3.27,4.86l-4,30.4A6.4,6.4,0,0,1,339.51,95a6.32,6.32,0,0,1-4.28,1.72H333.5A4.83,4.83,0,0,1,329.68,95,5.14,5.14,0,0,1,328.59,91L332,65.34q1-7.31-.26-9.63t-5.15-2.43A9,9,0,0,0,321,55.71q-3,2.43-3.27,4.86l-4,30.4A6.4,6.4,0,0,1,311.44,95a6.32,6.32,0,0,1-4.28,1.72Z" style="fill:#dfdfdf"/><path id="C-2" data-name="C" d="M378.64,96.75A4.82,4.82,0,0,1,374.82,95,5.1,5.1,0,0,1,373.73,91l5.41-41.14a6.65,6.65,0,0,1,2.16-4,6.32,6.32,0,0,1,4.28-1.72H387a4.72,4.72,0,0,1,3.74,1.62,4.92,4.92,0,0,1,1.3,4l-.09.71c0,.07,0,.1.08.1s.21,0,.22-.1q6.94-7.29,14.44-7.3a12.39,12.39,0,0,1,7.07,1.73q2.61,1.71,4.16,6.08c0,.06.06.1.19.1a.39.39,0,0,0,.22-.1Q425.74,43,433.74,43q8.42,0,11.46,4.56t1.68,15.71L443.24,91A6.4,6.4,0,0,1,441,95a6,6,0,0,1-4.18,1.72h-1.73A4.82,4.82,0,0,1,431.26,95,4.91,4.91,0,0,1,430.07,91l3.37-25.63c.65-4.93.61-8.18-.14-9.73s-2.46-2.33-5.16-2.33a9,9,0,0,0-5.59,2.43q-3,2.43-3.27,4.86l-4,30.4A6.4,6.4,0,0,1,413,95a6.32,6.32,0,0,1-4.28,1.72H407A4.82,4.82,0,0,1,403.19,95,5.14,5.14,0,0,1,402.1,91l3.38-25.63q1-7.31-.26-9.63t-5.15-2.43a9,9,0,0,0-5.59,2.43q-3,2.43-3.27,4.86l-4,30.4A6.4,6.4,0,0,1,385,95a6.32,6.32,0,0,1-4.28,1.72Z" style="fill:#dfdfdf"/><path d="M463,97.76q-8.91,0-12.33-4.86t-1.85-16.72l3.47-26.35a6.42,6.42,0,0,1,2.26-4,6.31,6.31,0,0,1,4.28-1.72h1.62a4.82,4.82,0,0,1,3.82,1.72,4.9,4.9,0,0,1,1.19,4l-3.28,24.93q-.93,7.09.63,9.83c1.05,1.82,3.09,2.74,6.13,2.74,2.77,0,5.49-1.19,8.17-3.55s4.29-4.9,4.64-7.6l3.47-26.35a6.46,6.46,0,0,1,2.26-4,6.32,6.32,0,0,1,4.28-1.72h2a4.54,4.54,0,0,1,3.72,1.72,4.94,4.94,0,0,1,1.19,4L493.28,91A6.4,6.4,0,0,1,491,95a6,6,0,0,1-4.18,1.72h-1.32a5.14,5.14,0,0,1-3.94-1.62A5.58,5.58,0,0,1,480.41,91v-.7c0-.07,0-.11-.09-.11a.35.35,0,0,0-.22.11q-7.87,7.49-17.1,7.49Zm38.21-1A4.82,4.82,0,0,1,497.39,95,4.91,4.91,0,0,1,496.2,91l5.41-41.14a6.46,6.46,0,0,1,2.26-4,6.32,6.32,0,0,1,4.28-1.72h1.32a4.64,4.64,0,0,1,3.82,1.72,5,5,0,0,1,1.29,4l-.09.71c0,.07,0,.1.09.1a.31.31,0,0,0,.21-.1q7.89-7.5,17.1-7.5t12.69,5.27q3.57,5.17,2,17.33L543.21,91a6.91,6.91,0,0,1-6.53,5.78H535A4.87,4.87,0,0,1,531.13,95,5.14,5.14,0,0,1,530,91l3.2-24.32q1-7.59-.66-10.33c-1-1.89-3.24-2.84-6.62-2.84q-4.15,0-8.17,3.55t-4.55,7.6L509.77,91A6.4,6.4,0,0,1,507.52,95a6.32,6.32,0,0,1-4.28,1.72Zm51.11,0A4.84,4.84,0,0,1,548.49,95,5,5,0,0,1,547.3,91l5.42-41.14a6.4,6.4,0,0,1,2.25-4,6.32,6.32,0,0,1,4.28-1.72h2.64a4.82,4.82,0,0,1,3.82,1.72,4.9,4.9,0,0,1,1.19,4L561.49,91A6.46,6.46,0,0,1,559.23,95,6.32,6.32,0,0,1,555,96.75Z" style="fill:#dfdfdf"/><path id="B-2" data-name="B" d="M604.64,57.13q-2.39-4.26-8.36-4.26a11.91,11.91,0,0,0-9.58,4.26Q583.22,61.29,582,70.4t1.18,13.38q2.49,4.16,8.47,4.16a11.72,11.72,0,0,0,9.47-4.16q3.6-4.26,4.8-13.38T604.64,57.13Zm5.51,33.54q-7.62,7.1-19.78,7.09t-18-7.09q-5.73-7.2-4-20.27t9.34-20.16q7.74-7.2,19.89-7.2t17.9,7.2q5.87,7.09,4.14,20.16T610.15,90.67Z" style="fill:#dfdfdf"/><path d="M552.71,19.94l7.71,17.33,12.29-17.33Z" style="fill:#2dcaff"/></g><g id="icon"><path id="path92" d="M159,7.69l-44.36,20,17,28.23L159,8.6Z" style="fill:#dfdfdf"/><path id="path72" d="M43.14,32.87,46.12,0H1.35Z" style="fill:#dfdfdf"/><path id="path76" d="M44.08,72.71l26.12,3L49.62,52.55Z" style="fill:#2dcaff"/><path id="path80" d="M41.59,44.29,0,11.57C5,20.13,17.17,41.3,34.28,70.94Z" style="fill:#2dcaff"/><path id="path84" d="M52.85,35.7,101.71,22,97,0H56.09Z" style="fill:#2dcaff"/><path id="path88" d="M99.58,32.9,56.23,45.06,83.86,76.13Z" style="fill:#2dcaff"/><path id="path96" d="M111.1,18.46,151.94,0H107.13Z" style="fill:#2dcaff"/><path id="path100" d="M95,74.6l29.32-5.82,1.73-3L108.66,37Z" style="fill:#2dcaff"/><path id="path104" d="M77.31,86.52,40.85,82.33c16.44,28.46,30,51.9,33.3,57.67Z" style="fill:#dfdfdf"/><path id="path108" d="M87.08,89.56,84.2,138.22l18.42-31.9Z" style="fill:#2dcaff"/><path id="path112" d="M96,84.53l11.86,12.79,9.88-17.11Z" style="fill:#2dcaff"/></g></svg>