<svg xmlns="http://www.w3.org/2000/svg" viewBox="0 0 620 140"><path d="M186.67 53.18q-11.14 0-13.28 16.21-1.11 8.42 1.28 12.57a8.33 8.33 0 0 0 7.67 4.15 12.13 12.13 0 0 0 8.23-3.24 11.92 11.92 0 0 0 4.34-7.6l1.44-11a9.43 9.43 0 0 0-2.3-7.9 9.32 9.32 0 0 0-7.38-3.24zm-9.92 43.06q-8.92 0-13.66-7.09-4.74-7.09-3.09-19.76 1.67-12.57 7.94-19.45a20.65 20.65 0 0 1 15.8-6.9 18 18 0 0 1 8.18 1.73 18.83 18.83 0 0 1 6.44 5.77.24.24 0 0 0 .19.1.1.1 0 0 0 .11-.1l.1-.71a6.6 6.6 0 0 1 2.35-4 6.44 6.44 0 0 1 4.38-1.72h1.12a4.52 4.52 0 0 1 3.72 1.72 4.9 4.9 0 0 1 1.19 4l-5.63 42.87q-3.6 27.36-31 27.36a66.68 66.68 0 0 1-10.13-.81 5.39 5.39 0 0 1-3.73-2.43 6.34 6.34 0 0 1-.94-4.46 4.53 4.53 0 0 1 2.05-3.25 4.86 4.86 0 0 1 3.83-.6 39.76 39.76 0 0 0 10 1.21q7.5 0 11.47-4 3.97-4 5.13-12.72l.42-3.14c0-.07 0-.1-.09-.1a.33.33 0 0 0-.22.1 22.78 22.78 0 0 1-15.94 6.38zm38.61.51a4.83 4.83 0 0 1-3.82-1.75 4.91 4.91 0 0 1-1.19-4l5.42-41.14a6.4 6.4 0 0 1 2.25-4 6.32 6.32 0 0 1 4.28-1.72h2a4.82 4.82 0 0 1 3.82 1.72 4.9 4.9 0 0 1 1.19 4l-.56 4.26c0 .07 0 .1.09.1s.21 0 .22-.1a26.86 26.86 0 0 1 8.57-6.59 30.43 30.43 0 0 1 10.86-3.24 3.72 3.72 0 0 1 3.51 1.39 4.42 4.42 0 0 1 1 3.65 5.75 5.75 0 0 1-2 3.67 6.7 6.7 0 0 1-3.87 1.73Q229 56.11 226.81 72.94l-2.38 18a6.4 6.4 0 0 1-2.25 4.06 6.32 6.32 0 0 1-4.28 1.72zm69.49-39.62q-2.39-4.26-8.36-4.26a11.92 11.92 0 0 0-9.58 4.26q-3.48 4.15-4.68 13.27-1.2 9.12 1.18 13.38 2.49 4.16 8.47 4.16a11.7 11.7 0 0 0 9.46-4.16q3.6-4.26 4.8-13.38 1.2-9.12-1.29-13.27zm5.52 33.54q-7.64 7.1-19.79 7.09-12.15-.01-18-7.09-5.74-7.2-4-20.27 1.74-13.07 9.34-20.16 7.74-7.2 19.9-7.2 12.16 0 17.9 7.2 5.85 7.09 4.13 20.16-1.72 13.07-9.48 20.27zm14.76 6.08a4.82 4.82 0 0 1-3.82-1.75 5.1 5.1 0 0 1-1.09-4l5.42-41.14a6.59 6.59 0 0 1 2.15-4 6.32 6.32 0 0 1 4.28-1.72h1.42a4.72 4.72 0 0 1 3.74 1.62 4.92 4.92 0 0 1 1.3 4l-.09.71c0 .07 0 .1.09.1s.2 0 .21-.1q6.94-7.29 14.44-7.3a12.37 12.37 0 0 1 7.07 1.73q2.61 1.71 4.16 6.08c0 .06.06.1.19.1a.39.39 0 0 0 .22-.1Q352.23 43 360.24 43q8.4 0 11.45 4.56 3.05 4.56 1.68 15.71L369.73 91a6.4 6.4 0 0 1-2.25 4 6 6 0 0 1-4.18 1.72h-1.73a4.83 4.83 0 0 1-3.82-1.72 4.91 4.91 0 0 1-1.19-4l3.37-25.63c.65-4.93.61-8.18-.13-9.73s-2.47-2.33-5.17-2.33a9 9 0 0 0-5.63 2.4q-3 2.43-3.27 4.86l-4 30.4a6.4 6.4 0 0 1-2.22 4.03 6.32 6.32 0 0 1-4.28 1.72h-1.73a4.83 4.83 0 0 1-3.82-1.72 5.14 5.14 0 0 1-1.09-4L332 65.34q1-7.31-.26-9.63-1.26-2.32-5.15-2.43a9 9 0 0 0-5.59 2.43q-3 2.43-3.27 4.86l-4 30.4a6.4 6.4 0 0 1-2.29 4.03 6.32 6.32 0 0 1-4.28 1.72zm73.51 0a4.82 4.82 0 0 1-3.82-1.75 5.1 5.1 0 0 1-1.09-4l5.41-41.14a6.65 6.65 0 0 1 2.16-4 6.32 6.32 0 0 1 4.28-1.72H387a4.72 4.72 0 0 1 3.74 1.62 4.92 4.92 0 0 1 1.3 4l-.09.71c0 .07 0 .1.08.1s.21 0 .22-.1q6.94-7.29 14.44-7.3a12.39 12.39 0 0 1 7.07 1.73q2.61 1.71 4.16 6.08c0 .06.06.1.19.1a.39.39 0 0 0 .22-.1Q425.74 43 433.74 43q8.42 0 11.46 4.56 3.04 4.56 1.68 15.71L443.24 91a6.4 6.4 0 0 1-2.24 4 6 6 0 0 1-4.18 1.72h-1.73a4.82 4.82 0 0 1-3.83-1.72 4.91 4.91 0 0 1-1.19-4l3.37-25.63c.65-4.93.61-8.18-.14-9.73s-2.46-2.33-5.16-2.33a9 9 0 0 0-5.59 2.43q-3 2.43-3.27 4.86l-4 30.4a6.4 6.4 0 0 1-2.28 4 6.32 6.32 0 0 1-4.28 1.72H407a4.82 4.82 0 0 1-3.81-1.72 5.14 5.14 0 0 1-1.09-4l3.38-25.63q1-7.31-.26-9.63-1.26-2.32-5.15-2.43a9 9 0 0 0-5.59 2.43q-3 2.43-3.27 4.86l-4 30.4a6.4 6.4 0 0 1-2.21 4 6.32 6.32 0 0 1-4.28 1.72zM463 97.76q-8.91 0-12.33-4.86-3.42-4.86-1.85-16.72l3.47-26.35a6.42 6.42 0 0 1 2.26-4 6.31 6.31 0 0 1 4.28-1.72h1.62a4.82 4.82 0 0 1 3.82 1.72 4.9 4.9 0 0 1 1.19 4l-3.28 24.93q-.93 7.09.63 9.83c1.05 1.82 3.09 2.74 6.13 2.74 2.77 0 5.49-1.19 8.17-3.55s4.29-4.9 4.64-7.6l3.47-26.35a6.46 6.46 0 0 1 2.26-4 6.32 6.32 0 0 1 4.28-1.72h2a4.54 4.54 0 0 1 3.72 1.72 4.94 4.94 0 0 1 1.19 4L493.28 91a6.4 6.4 0 0 1-2.28 4 6 6 0 0 1-4.18 1.72h-1.32a5.14 5.14 0 0 1-3.94-1.62 5.58 5.58 0 0 1-1.15-4.1v-.7c0-.07 0-.11-.09-.11a.35.35 0 0 0-.22.11q-7.87 7.49-17.1 7.49zm38.21-1a4.82 4.82 0 0 1-3.82-1.76 4.91 4.91 0 0 1-1.19-4l5.41-41.14a6.46 6.46 0 0 1 2.26-4 6.32 6.32 0 0 1 4.28-1.72h1.32a4.64 4.64 0 0 1 3.82 1.72 5 5 0 0 1 1.29 4l-.09.71c0 .07 0 .1.09.1a.31.31 0 0 0 .21-.1q7.89-7.5 17.1-7.5 9.21 0 12.69 5.27 3.57 5.17 2 17.33L543.21 91a6.91 6.91 0 0 1-6.53 5.78H535a4.87 4.87 0 0 1-3.87-1.78 5.14 5.14 0 0 1-1.13-4l3.2-24.32q1-7.59-.66-10.33c-1-1.89-3.24-2.84-6.62-2.84q-4.15 0-8.17 3.55-4.02 3.55-4.55 7.6L509.77 91a6.4 6.4 0 0 1-2.25 4 6.32 6.32 0 0 1-4.28 1.72zm51.11 0a4.84 4.84 0 0 1-3.83-1.76 5 5 0 0 1-1.19-4l5.42-41.14a6.4 6.4 0 0 1 2.25-4 6.32 6.32 0 0 1 4.28-1.72h2.64a4.82 4.82 0 0 1 3.82 1.72 4.9 4.9 0 0 1 1.19 4L561.49 91a6.46 6.46 0 0 1-2.26 4 6.32 6.32 0 0 1-4.23 1.75zm52.32-39.63q-2.39-4.26-8.36-4.26a11.91 11.91 0 0 0-9.58 4.26q-3.48 4.16-4.7 13.27-1.22 9.11 1.18 13.38 2.49 4.16 8.47 4.16a11.72 11.72 0 0 0 9.47-4.16q3.6-4.26 4.8-13.38 1.2-9.12-1.28-13.27zm5.51 33.54q-7.62 7.1-19.78 7.09-12.16-.01-18-7.09-5.73-7.2-4-20.27 1.73-13.07 9.34-20.16 7.74-7.2 19.89-7.2 12.15 0 17.9 7.2 5.87 7.09 4.14 20.16-1.73 13.07-9.49 20.27z" fill="#dfdfdf"/><path d="M552.71,19.94l7.71,17.33,12.29-17.33Z" fill="#2dcaff"/><path d="M159 7.69l-44.36 20 17 28.23L159 8.6zM43.14 32.87L46.12 0H1.35z" fill="#dfdfdf"/><path d="M44.08 72.71l26.12 3-20.58-23.16zm-2.49-28.42L0 11.57l34.28 59.37zm11.26-8.59L101.71 22 97 0H56.09zm46.73-2.8L56.23 45.06l27.63 31.07zm11.52-14.44L151.94 0h-44.81zM95 74.6l29.32-5.82 1.73-3L108.66 37z" fill="#2dcaff"/><path d="M77.31 86.52l-36.46-4.19L74.15 140z" fill="#dfdfdf"/><path d="M87.08 89.56l-2.88 48.66 18.42-31.9zM96 84.53l11.86 12.79 9.88-17.11z" fill="#2dcaff"/></svg>