<svg height="16" viewBox="0 0 16 16" width="16" xmlns="http://www.w3.org/2000/svg"><path d="m3.6796875 1c-.3770603 0-.6796875.3026272-.6796875.6796875v.3203125h-1c-.554 0-1 .446-1 1v11c0 .554.446 1 1 1h12c.554 0 1-.446 1-1v-11c0-.554-.446-1-1-1h-1v-.3203125c0-.3770603-.302627-.6796875-.679688-.6796875h-1.640624c-.377061 0-.679688.3026272-.679688.6796875v.3203125h-4v-.3203125c0-.3770603-.3026272-.6796875-.6796875-.6796875zm-.6796875 4h10v8h-10zm2 1c-.554 0-1 .446-1 1s.446 1 1 1 1-.446 1-1-.446-1-1-1zm3 0c-.554 0-1 .446-1 1s.446 1 1 1 1-.446 1-1-.446-1-1-1zm3 0c-.554 0-1 .446-1 1s.446 1 1 1 1-.446 1-1-.446-1-1-1zm-6 3c-.554 0-1 .446-1 1s.446 1 1 1 1-.446 1-1-.446-1-1-1zm3 0c-.554 0-1 .446-1 1s.446 1 1 1 1-.446 1-1-.446-1-1-1zm3 0c-.554 0-1 .446-1 1s.446 1 1 1 1-.446 1-1-.446-1-1-1z" fill="#6d6e71"/></svg>