<svg height="16" viewBox="0 0 16 16" width="16" xmlns="http://www.w3.org/2000/svg"><path d="m8 .003906c-1.1046 0-2 .89543-2 2h-3c-1 0-1 1-1 1v11c0 1 1 1 1 1h10s1 0 1-1v-11c0-1.0000001-1-1.0000001-1-1.0000001h-3c0-.1380698-.00505-.2760499-.03125-.4062499-.18649-.91137-1.00215-1.59375-1.96875-1.59375zm0 1c.41421 0 .75444.26608.90625.625.0506.1196399.09375.2369301.09375.3749999 0 .5522801-.44771 1.0000001-1 1.0000001s-1-.44772-1-1.0000001c0-.55228.44771-.9999999 1-.9999999zm-4 3h1v1h6v-1h1v9h-8z" fill="#6d6e71"/><path d="m13 3.166016-6.025391 6.896484-2.248047-2.25c-.376078-.3764-1.059369-.3763-1.435546 0-.188089.1882-.283204.45345-.283204.71875 0 .2654.09511.53055.283204.71875l2.998046 3 .779297.75.6875-.8125 7.244141-8.668718-1.294624-1.116694z" fill="#19b5f1"/></svg>