<svg height="16" viewBox="0 0 16 16" width="16" xmlns="http://www.w3.org/2000/svg"><g fill="#19b5f1"><path d="m7.5859375 1-.2929687.2929688-6 6-.2929688.2929687v.828125l1 1 .7070312-.7070313 6-6 .7070313-.7070312-1-1zm5.7070315.2929688-12.0000002 12.0000002 1.4140624 1.414062 11.9999998-11.9999998zm.707031 5.2929687-.707031.7070313-6.0000002 6.0000002-.7070313.707031 1 1h.828125l.2929687-.292969 5.9999998-5.9999998.292969-.2929687v-.828125z"/><path d="m2 1c-.554 0-1 .446-1 1v12c0 .554.446 1 1 1h12c.554 0 1-.446 1-1v-12c0-.554-.446-1-1-1zm0 1h12v12h-12z"/></g></svg>