<svg height="16" viewBox="0 0 16 16" width="16" xmlns="http://www.w3.org/2000/svg"><path d="m12 0v2h-1.966797c-.01878 0-.033203.446-.033203 1s.01442 1 .0332 1h1.9668v2h2v-2h1.966797c.01878 0 .033203-.446.033203-1s-.014423-1-.033203-1h-1.966797v-2zm-5 .00390625c-1.1046 0-2 .8954302-2 1.99999995h-3c-1 0-1 1-1 1v10.9999998c0 1 1 1 1 1h11s1.141344-.01004 1-1v-7.003906h-2v6.003906h-9v-8.9999998h1v1h5v-.0039062-.578125-2.4179688-.0039062c-.0000971-.1367475-.0053004-.2733881-.03125-.4023438-.18649-.91136975-1.00215-1.59374995-1.96875-1.59374995zm0 .99999995c.41421 0 .75444.26608.90625.625.0506.11964.09375.2369302.09375.375 0 .5522801-.44771 1.0000001-1 1-.55229 0-1-.4477199-1-1 0-.5522796.44771-.9999996 1-1z" fill="#6d6e71"/></svg>