<svg xmlns="http://www.w3.org/2000/svg" width='16' height='16' viewBox="0 0 119.93 122.88" fill-rule="evenodd"><path d="M0 122.88c1.44-18.54-2.21-17.79 13.32-23.6a120.09 120.09 0 0 0 21.82-11l13.27 34.63zm41.22-50.13a47.21 47.21 0 0 1-3.9-7.75c-8.39-4.72-9.73-25.71-4.56-24.12 0-.79-.14-3-.14-4.52 0-34.07 54.74-34.09 54.74 0 0 1.56-.16 3.73-.14 4.52C92.39 39.26 91 60.25 82.66 65c-2.13 5.9-5.93 9.86-5.62 12.45C77 86.31 67.27 89.53 60 89.61c-.66 0-1.33 0-2-.1a17.8 17.8 0 0 0 4.52-1.9h0c3.11-1.9 5.21-4.71 5.21-8.08s-2.09-6.2-5.2-8.09h0a18.68 18.68 0 0 0-9.4-2.57 19.54 19.54 0 0 0-7.51 1.35 12.78 12.78 0 0 0-4 2.58h-.37zm44.22 13.92a88.34 88.34 0 0 0 20.11 10c14.5 4.82 14.5 5.5 14.36 26.17H71.69l13.75-36.17zm-21.81 17.77h1.86a3 3 0 0 0 3-3v-5a3 3 0 0 0-3-3h-11a3.05 3.05 0 0 0-3 3v5a3.06 3.06 0 0 0 3 3h1.89l-3.68 18.44h14.41l-3.48-18.44z" fill="#6d6d70"/><path d="M99.47 31.61h-.37C95.67 17.08 86.85 7 76.34 2.83A44.05 44.05 0 0 0 57 .15a46.75 46.75 0 0 0-18.44 5.4 34.24 34.24 0 0 0-17.37 26.06h-.69c-3.3 0-6.64 2.71-6.64 6v21.67c0 3.3 3.34 6 6.64 6h1.95C24.58 73.93 33.21 81.85 42 81.85h1.73c1.51 2.22 4.44 3.79 9.32 3.79s10.08-2.75 10.08-6.13-5.13-6.12-10.04-6.12-8 1.63-9.41 3.93H42c-7.54 0-15-8-15.53-15.22V32a29.07 29.07 0 0 1 14.7-21.8 41.46 41.46 0 0 1 16.27-4.73 38.8 38.8 0 0 1 16.93 2.32c8.71 3.44 16.07 12 19.23 23.82h-.13v33.67h6c3.31 0 6.64-2.7 6.64-6V37.62c0-3.31-3.34-6-6.64-6z" fill="#2b78c2"/></svg>
