<svg xmlns="http://www.w3.org/2000/svg" width="382" height="512" viewBox="0 0 55.48 74.18" shape-rendering="geometricPrecision" image-rendering="optimizeQuality" fill-rule="evenodd"><path d="M9.65 0h24.82l21.01 21.92v42.61a9.65 9.65 0 0 1-9.65 9.65H9.65A9.65 9.65 0 0 1 0 64.53V9.65A9.65 9.65 0 0 1 9.65 0z" fill="#f60"/><g fill="#fff"><path d="M34.44 0v21.74h21.04z" fill-opacity=".302"/><path d="M17.64 55.35h3.75c.1 0 .19-.07.21-.16l1.1-3.95h4.25l1.18 3.95c.03.09.12.16.22.16h3.89c.13 0 .23-.1.23-.22 0-.04-.01-.07-.02-.1l-4.96-15.98c-.03-.09-.11-.15-.21-.15h-4.75c-.1 0-.19.06-.21.15l-4.9 16.01c-.02.07 0 .14.04.2.04.05.11.09.18.09zM35.9 42.31c1.26 0 2.17-.85 2.17-2.03-.03-1.21-.91-2.05-2.15-2.05-.63 0-1.19.22-1.58.61-.36.37-.55.89-.54 1.44-.01.54.18 1.04.55 1.41.38.4.93.62 1.55.62zm-1.78.98c-.13 0-.23.1-.23.22v11.62c0 .12.1.22.23.22h3.61c.12 0 .22-.1.22-.22V43.51c0-.12-.1-.22-.22-.22h-3.61zm-7.83 4.8h-2.94l.87-3.12.45-1.86.1-.44.61 2.31.91 3.11z" fill-rule="nonzero"/></g></svg>