<svg xmlns="http://www.w3.org/2000/svg" width="382" height="512" fill-rule="evenodd" image-rendering="optimizeQuality" shape-rendering="geometricPrecision" viewBox="0 0 17.69 23.65"><path fill="#0ac963" d="M3.08 0h7.91l6.7 6.99v13.58a3.08 3.08 0 0 1-3.08 3.08H3.08A3.08 3.08 0 0 1 0 20.57V3.08A3.08 3.08 0 0 1 3.08 0z"/><g fill="#fff"><path fill-opacity=".302" d="M10.98 0v6.93h6.71z"/><path fill-rule="nonzero" d="M5.95 13.19c-.29 0-.52.23-.52.51v2.39c0 .28.23.51.52.51a.51.51 0 0 0 .51-.51V13.7a.51.51 0 0 0-.51-.51zm4.13-2.02.42-.42c.07-.06.07-.17 0-.24-.06-.07-.17-.07-.24 0l-.49.49c-.59-.26-1.26-.26-1.86 0l-.48-.49c-.07-.06-.18-.06-.24.01a.17.17 0 0 0 0 .23l.41.42c-.5.33-.81.9-.8 1.51 0 .09.07.17.17.17h3.75c.09 0 .17-.08.17-.17a1.79 1.79 0 0 0-.81-1.51zm-1.93.67c.04.04.06.1.06.16s-.02.11-.06.15-.1.06-.16.06-.11-.02-.15-.06-.07-.09-.07-.15.03-.12.07-.16.09-.06.15-.06.12.02.16.06zm1.7 0c.04.04.07.1.07.16s-.03.11-.07.15-.09.06-.15.06-.12-.02-.16-.06-.06-.09-.06-.15.02-.12.06-.16.1-.06.16-.06.11.02.15.06zm.87 1.35H6.97c-.1 0-.17.08-.17.17v2.73c0 .4.28.75.68.83v1.21c0 .29.23.52.51.52s.51-.23.51-.52v-1.19h.68v1.19a.514.514 0 1 0 1.03 0v-1.21c.39-.08.68-.43.68-.83v-2.73c0-.09-.08-.17-.17-.17zm1.02 0a.51.51 0 0 0-.51.51v2.39a.51.51 0 1 0 1.02 0V13.7a.51.51 0 0 0-.51-.51z"/></g></svg>