<svg xmlns="http://www.w3.org/2000/svg" width="382" height="512" fill-rule="evenodd" image-rendering="optimizeQuality" shape-rendering="geometricPrecision" viewBox="0 0 55.48 74.18"><path fill="#fa0000" d="M9.65 0h24.82l21.01 21.92v42.61a9.65 9.65 0 0 1-9.65 9.65H9.65A9.65 9.65 0 0 1 0 64.53V9.65A9.65 9.65 0 0 1 9.65 0z"/><g fill="#fff"><path fill-opacity=".302" d="M34.44 0v21.74h21.04z"/><path fill-rule="nonzero" d="M35.04 46.02c0-.45-.34-.8-.8-.8a.79.79 0 0 0-.81.8c0 3.15-2.55 5.7-5.69 5.7s-5.69-2.55-5.69-5.7a.79.79 0 0 0-.81-.8.79.79 0 0 0-.8.8c0 3.74 2.79 6.88 6.5 7.28v2.15h-2.93a.79.79 0 0 0-.81.8c0 .46.35.81.81.81h7.46c.46 0 .81-.35.81-.81a.79.79 0 0 0-.81-.8h-2.92V53.3c3.7-.4 6.49-3.54 6.49-7.28zm-7.3-11.78c-2.47 0-4.48 2.01-4.48 4.48V46c0 2.49 2.01 4.48 4.48 4.51 2.47 0 4.49-2.02 4.49-4.49v-7.3c0-2.47-2.02-4.48-4.49-4.48z"/></g></svg>