<svg xmlns="http://www.w3.org/2000/svg" width="382" height="512" fill-rule="evenodd" image-rendering="optimizeQuality" shape-rendering="geometricPrecision" viewBox="0 0 17.69 23.65"><path fill="#60a313" d="M3.08 0h7.91l6.7 6.99v13.58a3.08 3.08 0 0 1-3.08 3.08H3.08A3.08 3.08 0 0 1 0 20.57V3.08A3.08 3.08 0 0 1 3.08 0"/><g fill="#fff"><path fill-opacity=".302" d="M10.98 0v6.93h6.71z"/><path fill-rule="nonzero" d="M6 17.87c-.14 0-.26-.02-.37-.07a.8.8 0 0 1-.31-.2.95.95 0 0 1-.21-.31c-.04-.11-.06-.23-.06-.37v-1.29c0-.14-.04-.24-.11-.31a.56.56 0 0 0-.35-.1h-.07v-1h.07c.16 0 .27-.03.35-.1.07-.07.11-.17.11-.31v-1.29c0-.13.02-.26.06-.37.05-.11.12-.22.21-.31a.8.8 0 0 1 .31-.2c.11-.05.23-.07.37-.07h.51v.97h-.17c-.09 0-.15.02-.19.06-.04.05-.06.12-.06.22v1.21a1.2 1.2 0 0 1-.04.28.7.7 0 0 1-.12.21 1.4 1.4 0 0 1-.18.15l-.1.05.1.05a1.4 1.4 0 0 1 .18.15c.11.11.16.28.16.49v1.22c0 .09.02.17.06.21s.1.07.19.07h.17v.96zm5.69 0h-.51v-.96h.17c.08 0 .15-.03.19-.07s.06-.12.06-.21v-1.22c0-.1.01-.2.04-.28a.5.5 0 0 1 .11-.21 1 1 0 0 1 .19-.15l.09-.05-.09-.05a1.4 1.4 0 0 1-.18-.15.45.45 0 0 1-.12-.21.8.8 0 0 1-.04-.28v-1.21c0-.1-.02-.17-.06-.22-.04-.04-.11-.06-.19-.06h-.17v-.97h.51c.13 0 .26.02.37.07a.8.8 0 0 1 .31.2.8.8 0 0 1 .2.31c.05.11.07.24.07.37v1.29c0 .14.04.24.11.31s.19.1.35.1h.07v1h-.07c-.16 0-.28.04-.35.1-.07.07-.11.17-.11.31v1.29c0 .27-.09.5-.27.68a.8.8 0 0 1-.31.2c-.11.05-.24.07-.37.07m-3.1-4.37h1.09v1.12H8.52V13.5zm-.6 4.15.46-1.9h1.3l-1 1.99h-.78z"/></g></svg>