<svg xmlns="http://www.w3.org/2000/svg" width="382" height="512" fill-rule="evenodd" image-rendering="optimizeQuality" shape-rendering="geometricPrecision" viewBox="0 0 20.49 27.4"><path fill="#00a1e0" d="M3.56 0h9.17l7.76 8.1v15.73c0 1.97-1.59 3.57-3.56 3.57H3.56A3.57 3.57 0 0 1 0 23.83V3.56A3.57 3.57 0 0 1 3.56 0"/><g fill="#fff"><path fill-opacity=".302" d="M12.72 0v8.03h7.77z"/><path fill-rule="nonzero" d="M12.07 20.44h-.52v-.99h.11q.39 0 .39-.42v-1.45c0-.23.06-.41.16-.53q.165-.165.48-.3a1.3 1.3 0 0 1-.47-.3c-.11-.12-.17-.29-.17-.52v-1.45q0-.42-.39-.42h-.11v-.99h.52c.31 0 .56.1.76.3s.3.45.3.75v1.55q0 .57.63.57v1.03c-.42 0-.63.19-.63.58v1.54a1.025 1.025 0 0 1-1.06 1.05m-3.65 0a1.04 1.04 0 0 1-.76-.3q-.3-.3-.3-.75v-1.54c0-.39-.21-.58-.63-.58v-1.03q.63 0 .63-.57v-1.55q0-.45.3-.75a1.04 1.04 0 0 1 .76-.3h.53v.99h-.12q-.39 0-.39.42v1.45c0 .23-.05.4-.16.52s-.27.22-.48.3q.315.135.48.3c.11.12.16.3.16.53v1.45q0 .42.39.42h.12v.99z"/></g></svg>