<svg xmlns="http://www.w3.org/2000/svg" width="382" height="512" fill-rule="evenodd" image-rendering="optimizeQuality" shape-rendering="geometricPrecision" viewBox="0 0 20.49 27.4"><path fill="#008bf5" d="M3.56 0h9.17l7.76 8.1v15.73c0 1.97-1.59 3.57-3.56 3.57H3.56A3.57 3.57 0 0 1 0 23.83V3.56A3.57 3.57 0 0 1 3.56 0"/><g fill="#000"><path fill-opacity=".302" d="M12.72 0v8.03h7.77z"/><path fill-rule="nonzero" d="M13.38 13.94c-1.73-1.73-4.53-1.73-6.26 0s-1.73 4.53 0 6.26 4.53 1.73 6.26 0a4.44 4.44 0 0 0 0-6.26m-5.54 6.22c-.26-.19-.49-.42-.68-.68l1.75-1.31a.9.9 0 0 0 .24.24zm3.31-2.19c-.5.5-1.31.5-1.8 0-.5-.5-.5-1.3 0-1.8.49-.49 1.3-.49 1.8 0 .49.5.49 1.3 0 1.8m.43-2c-.08-.11-.13-.15-.23-.23l1.3-1.76a3.5 3.5 0 0 1 .69.69z"/></g></svg>