<svg xmlns="http://www.w3.org/2000/svg" width="382" height="512" fill-rule="evenodd" image-rendering="optimizeQuality" shape-rendering="geometricPrecision" viewBox="0 0 38.89 51.99"><path fill="#0263d1" fill-rule="nonzero" d="M6.76 0h17.4l14.73 15.36v29.87a6.77 6.77 0 0 1-6.77 6.76H6.76C3.03 51.99 0 48.96 0 45.23V6.76C0 3.03 3.03 0 6.76 0"/><g fill="#fff"><path fill-opacity=".302" d="M24.14 0v15.24h14.75z"/><path fill-rule="nonzero" d="M26.3 27.05H12.59a1.15 1.15 0 0 1-1.15-1.14 1.15 1.15 0 0 1 1.15-1.14H26.3a1.14 1.14 0 1 1 0 2.28m-4.57 13.71h-9.14a1.15 1.15 0 0 1-1.15-1.14 1.15 1.15 0 0 1 1.15-1.14h9.14a1.14 1.14 0 1 1 0 2.28m4.57-4.57H12.59a1.15 1.15 0 0 1-1.15-1.14 1.15 1.15 0 0 1 1.15-1.14H26.3a1.14 1.14 0 1 1 0 2.28m0-4.57H12.59a1.15 1.15 0 0 1-1.15-1.14 1.15 1.15 0 0 1 1.15-1.14H26.3a1.14 1.14 0 1 1 0 2.28"/></g></svg>