<svg xmlns="http://www.w3.org/2000/svg" width="382" height="512" fill-rule="evenodd" image-rendering="optimizeQuality" shape-rendering="geometricPrecision" viewBox="0 0 24.33 32.53"><path fill="#a02c89" d="M4.23 0h10.88l9.22 9.61V28.3a4.24 4.24 0 0 1-4.23 4.23H4.23C1.89 32.53 0 30.63 0 28.3V4.23C0 1.89 1.89 0 4.23 0"/><g fill="#fff"><path fill-opacity=".302" d="M15.1 0v9.53h9.23z"/><path d="m17.101 26.665-3.655-2.296-1.323 4.064-1.326-4.08-3.653 2.254 1.623-3.954-4.274-.611 3.813-1.978-2.895-3.19 4.219.923-.161-4.276 2.65 3.392 2.648-3.362-.158 4.275 4.218-.874-2.893 3.157 3.814 2.023-4.273.562z"/></g></svg>