<svg xmlns="http://www.w3.org/2000/svg" viewBox="0 0 367.6 367.6"><path fill="#ffa400" d="M347.928 72.904h-164.61l-1.476-9.574c-1.647-10.693-11.849-19.442-22.669-19.442h-79.18c-10.82 0-21.022 8.749-22.668 19.442l-1.476 9.574h-5.611c-10.819 0-19.672 8.853-19.672 19.672V304.04c0 10.82 8.853 19.672 19.672 19.672h297.689c10.819 0 19.673-8.852 19.673-19.672V92.577c.002-10.82-8.853-19.673-19.672-19.673"/><path d="M48.797 94.106h295.084v200.013H48.797z"/><path fill="#f6c65b" d="M337.281 135.114c-1.718-10.683-11.976-19.423-22.795-19.423H16.796c-10.82 0-18.268 8.74-16.55 19.423L27.444 304.29c1.718 10.683 11.976 19.423 22.795 19.423h297.689c10.819 0 18.267-8.74 16.55-19.423z"/></svg>