<svg xmlns="http://www.w3.org/2000/svg" width="382" height="512" fill-rule="evenodd" image-rendering="optimizeQuality" shape-rendering="geometricPrecision" viewBox="0 0 24.33 32.53"><path fill="#0e1e31" d="M4.23 0h10.88l9.22 9.61V28.3a4.24 4.24 0 0 1-4.23 4.23H4.23C1.89 32.53 0 30.63 0 28.3V4.23C0 1.89 1.89 0 4.23 0z"/><g fill="#fff"><path fill-opacity=".302" d="M15.1 0v9.53h9.23z"/><path fill-rule="nonzero" d="m16.12 22.83-3.68-8.19h-.56l-3.52 8.19H7.31v.56h3.03v-.56H8.98l.9-2.11h3.35l.94 2.11h-.94v.56h3.79v-.56h-.9zm-5.99-2.68 1.39-3.23 1.45 3.23h-2.84z"/></g></svg>