<svg xmlns="http://www.w3.org/2000/svg" width="382" height="512" viewBox="0 0 17.69 23.65" shape-rendering="geometricPrecision" image-rendering="optimizeQuality" fill-rule="evenodd"><path d="M3.08 0h7.91l6.7 6.99v13.58a3.08 3.08 0 0 1-3.08 3.08H3.08A3.08 3.08 0 0 1 0 20.57V3.08A3.08 3.08 0 0 1 3.08 0z" fill="#0ac963"/><g fill="#fff"><path d="M10.98 0v6.93h6.71z" fill-opacity=".302"/><path d="M11.85 11.82H5.84c-.45 0-.82.37-.82.82v3.82c0 .45.37.82.82.82h6.01c.45 0 .81-.37.81-.82v-3.82c0-.45-.36-.82-.81-.82zm-4.37 1.03a.88.88 0 0 1 .88.88c0 .49-.39.89-.88.89a.89.89 0 0 1-.89-.89.89.89 0 0 1 .89-.88zm4.64 3.61c0 .15-.12.28-.27.28H5.84c-.15 0-.27-.13-.27-.28v-.16l1.09-1.09.9.9c.11.11.28.11.39 0l2.26-2.26 1.91 1.91v.7h0z"/></g></svg>