<svg xmlns="http://www.w3.org/2000/svg" width="382" height="512" fill-rule="evenodd" image-rendering="optimizeQuality" shape-rendering="geometricPrecision" viewBox="0 0 38.89 51.99"><path fill="#0067bd" d="M6.76 0h17.4l14.73 15.36v29.87a6.77 6.77 0 0 1-6.77 6.76H6.76C3.03 51.99 0 48.96 0 45.23V6.76C0 3.03 3.03 0 6.76 0z"/><g fill="#fff"><path fill-opacity=".302" d="M24.14 0v15.24h14.75z"/><path fill-rule="nonzero" d="m22.28 32.48 5.89 3.72v-7.59l-5.89 3.87zm-.99.66-1.55 1.02a.53.53 0 0 1-.3.09c-.1 0-.21-.03-.3-.09l-1.54-1.02-6.85 4.33c.09.52.52.92 1.06.92h15.27c.54 0 .97-.4 1.05-.92l-6.84-4.33zm5.79-6.75H11.81c-.55 0-.98.41-1.06.93l8.69 5.73 8.69-5.73c-.08-.52-.51-.93-1.05-.93zm-16.36 2.22v7.59l5.88-3.72-5.88-3.87z"/></g></svg>