<svg xmlns="http://www.w3.org/2000/svg" width="382" height="512" viewBox="0 0 20.49 27.4" shape-rendering="geometricPrecision" image-rendering="optimizeQuality" fill-rule="evenodd"><path d="M3.56 0h9.17l7.76 8.1v15.73c0 1.97-1.59 3.57-3.56 3.57H3.56A3.57 3.57 0 0 1 0 23.83V3.56A3.57 3.57 0 0 1 3.56 0z" fill="#008bf5"/><g fill="#fff"><path d="M12.72 0v8.03h7.77z" fill-opacity=".302"/><path d="M6.88 14.04a4.78 4.78 0 0 1 3.37-1.39 4.74 4.74 0 0 1 3.36 1.39 4.7 4.7 0 0 1 1.4 3.35v2.13c0 .28-.11.54-.3.72-.18.19-.44.3-.72.3h-.49v-3.11h.53v-.04a3.75 3.75 0 0 0-1.11-2.65c-.69-.69-1.63-1.11-2.67-1.11a3.78 3.78 0 0 0-2.68 1.11c-.68.68-1.1 1.62-1.1 2.65v.04H7v3.11h-.49a1.01 1.01 0 0 1-.73-.3 1.03 1.03 0 0 1-.3-.72v-2.13c0-1.3.54-2.49 1.4-3.35zm5.06 2.86h.27c.21 0 .4.09.53.22.14.14.22.33.22.54v2.66c0 .21-.08.4-.22.53-.13.14-.32.23-.53.23h-.27a.49.49 0 0 1-.35-.15c-.09-.09-.14-.21-.14-.35v-3.19a.46.46 0 0 1 .14-.34.49.49 0 0 1 .35-.15zm-3.65 0h.26a.49.49 0 0 1 .35.15.46.46 0 0 1 .14.34v3.19c0 .14-.05.26-.14.35a.49.49 0 0 1-.35.15h-.26c-.21 0-.4-.09-.54-.23-.14-.13-.22-.32-.22-.53v-2.66c0-.21.08-.4.22-.54a.8.8 0 0 1 .54-.22z" fill-rule="nonzero"/></g></svg>