<svg xmlns="http://www.w3.org/2000/svg" width="382" height="512" fill-rule="evenodd" image-rendering="optimizeQuality" shape-rendering="geometricPrecision" viewBox="0 0 29.93 40.02"><path fill="#e5252a" d="M5.21 0h13.38l11.34 11.82v22.99c0 2.88-2.33 5.21-5.2 5.21H5.21A5.21 5.21 0 0 1 0 34.81V5.21A5.21 5.21 0 0 1 5.21 0"/><path fill-opacity=".302" d="M18.58 0v11.73h11.35z"/><path fill-rule="nonzero" d="M5.79 29.86v-7.31H8.9c.77 0 1.38.21 1.84.64.46.42.69.99.69 1.7s-.23 1.28-.69 1.7c-.46.43-1.07.64-1.84.64H7.66v2.63zm1.87-4.22h1.03c.28 0 .5-.06.65-.2.15-.13.23-.31.23-.55s-.08-.42-.23-.55c-.15-.14-.37-.2-.65-.2H7.66zm4.54 4.22v-7.31h2.59c.51 0 .99.07 1.44.22a3.9 3.9 0 0 1 1.22.65c.36.28.65.66.86 1.14.2.48.31 1.03.31 1.65 0 .61-.11 1.16-.31 1.64-.21.48-.5.86-.86 1.14a3.9 3.9 0 0 1-1.22.65c-.45.15-.93.22-1.44.22zm1.83-1.59h.54c.29 0 .56-.03.81-.1q.36-.105.69-.33c.21-.15.38-.36.5-.64a2.5 2.5 0 0 0 .18-.99c0-.39-.06-.72-.18-1s-.29-.49-.5-.64q-.33-.225-.69-.33c-.25-.07-.52-.1-.81-.1h-.54zm5.53 1.59v-7.31h5.2v1.59h-3.33v1.17h2.66v1.58h-2.66v2.97z"/></svg>