<svg xmlns="http://www.w3.org/2000/svg" width="382" height="512" fill-rule="evenodd" image-rendering="optimizeQuality" shape-rendering="geometricPrecision" viewBox="0 0 38.89 51.99"><path fill="#fa0000" d="M6.76 0h17.4l14.73 15.36v29.87a6.77 6.77 0 0 1-6.77 6.76H6.76C3.03 51.99 0 48.96 0 45.23V6.76C0 3.03 3.03 0 6.76 0z"/><g fill="#fff"><path fill-opacity=".302" d="M24.14 0v15.24h14.75z"/><path fill-rule="nonzero" d="m25.73 31.47-9.59-5.4a.61.61 0 0 0-.6.01c-.18.1-.3.3-.3.51v10.8c0 .21.12.41.3.52a.64.64 0 0 0 .3.08c.1 0 .21-.02.3-.08l9.59-5.39c.19-.11.31-.31.31-.53a.61.61 0 0 0-.31-.52z"/></g></svg>