<svg xmlns="http://www.w3.org/2000/svg" width="382" height="512" fill-rule="evenodd" image-rendering="optimizeQuality" shape-rendering="geometricPrecision" viewBox="0 0 24.33 32.53"><path fill="#e03303" d="M4.23 0h10.88l9.22 9.61V28.3a4.24 4.24 0 0 1-4.23 4.23H4.23C1.89 32.53 0 30.63 0 28.3V4.23C0 1.89 1.89 0 4.23 0z"/><g fill="#fff"><path fill-opacity=".302" d="M15.1 0v9.53h9.23z"/><path fill-rule="nonzero" d="M11.76 16.13a4.576 4.576 0 0 0-4.35 4.62c.04 2.46 2.04 4.47 4.5 4.5a4.55 4.55 0 0 0 4.62-4.34.207.207 0 0 0-.21-.22h-4.13c-.12 0-.22-.1-.22-.21v-4.14c0-.12-.09-.21-.21-.21zm1.1-.67v4.13c0 .12.09.21.21.21h4.14c.12 0 .21-.1.21-.22a4.556 4.556 0 0 0-4.34-4.33.207.207 0 0 0-.22.21z"/></g></svg>