<svg xmlns="http://www.w3.org/2000/svg" width="382" height="512" fill-rule="evenodd" image-rendering="optimizeQuality" shape-rendering="geometricPrecision" viewBox="0 0 38.89 51.99"><path fill="#0505dd" d="M6.76 0h17.4l14.73 15.36v29.87a6.77 6.77 0 0 1-6.77 6.76H6.76C3.03 51.99 0 48.96 0 45.23V6.76C0 3.03 3.03 0 6.76 0"/><g fill="#000"><path d="M14.56 38.46v-3.9q.315.03.72.03c1.64 0 2.96-.43 3.82-1.25.71-.67 1.1-1.68 1.1-2.83 0-1.11-.46-2.12-1.28-2.77-.8-.64-1.97-.95-3.59-.95-1.4 0-2.58.08-3.52.24-.07.02-.13.08-.13.16v11.27c0 .09.07.16.16.16h2.56c.09 0 .16-.07.16-.16m10.28-5.22c-1.05-.37-1.23-.54-1.23-.8 0-.45.52-.51.82-.51.66 0 1.34.24 1.72.45.05.02.1.03.14.01.05-.02.08-.06.09-.11l.46-1.78c.02-.07-.01-.15-.08-.18-.48-.24-1.36-.49-2.41-.49-2.08 0-3.53 1.18-3.53 2.87-.02.82.4 1.95 2.46 2.64 1 .34 1.11.51 1.11.8 0 .13 0 .54-.94.54-.71 0-1.66-.32-2.14-.61-.04-.02-.09-.03-.14-.01s-.08.06-.09.11l-.46 1.85c-.02.07.01.14.08.18.7.37 1.7.59 2.75.59 2.31 0 3.75-1.09 3.75-2.84-.02-1.32-.74-2.15-2.36-2.71m-10.28-.99v-3.12c.16-.03.45-.07.91-.07 1.18 0 1.86.56 1.86 1.52 0 1.07-.77 1.71-2.07 1.71a6 6 0 0 1-.7-.04"/><path fill-opacity=".302" d="M24.14 0v15.24h14.75z"/></g></svg>