<svg xmlns="http://www.w3.org/2000/svg" width="382" height="512" fill-rule="evenodd" image-rendering="optimizeQuality" shape-rendering="geometricPrecision" viewBox="0 0 17.69 23.65"><path fill="#00733b" d="M3.08 0h7.91l6.7 6.99v13.58a3.08 3.08 0 0 1-3.08 3.08H3.08A3.08 3.08 0 0 1 0 20.57V3.08A3.08 3.08 0 0 1 3.08 0"/><path fill-opacity=".302" d="M10.98 0v6.93h6.71z"/><path d="M5.21 17.35h3.14v1.19H5.21zm4.12-6.08h3.15v1.18H9.33zm-4.12 0h3.14v1.18H5.21zm4.12 2h3.15v1.19H9.33zm-4.12 0h3.14v1.19H5.21zm4.12 2.08h3.15v1.19H9.33zm-4.12 0h3.14v1.19H5.21zm4.12 2h3.15v1.19H9.33z"/></svg>