<svg xmlns="http://www.w3.org/2000/svg" width="382" height="512" fill-rule="evenodd" image-rendering="optimizeQuality" shape-rendering="geometricPrecision" viewBox="0 0 29.93 40.02"><path fill="#ff9100" d="M5.21 0h13.38l11.34 11.82v22.99c0 2.88-2.33 5.21-5.2 5.21H5.21A5.21 5.21 0 0 1 0 34.81V5.21A5.21 5.21 0 0 1 5.21 0"/><g fill="#fff"><path fill-opacity=".302" d="M18.58 0v11.73h11.35z"/><path fill-rule="nonzero" d="M7.91 29.15c-.74 0-1.38-.22-1.93-.67s-.85-1.01-.9-1.66l1.6-.47c.04.36.18.66.44.89.25.24.55.35.87.35.27 0 .49-.05.65-.17a.55.55 0 0 0 .25-.47c0-.16-.06-.29-.19-.4-.14-.11-.31-.2-.52-.27l-.7-.21q-.39-.105-.78-.27c-.25-.11-.49-.24-.7-.4q-.315-.225-.51-.63c-.13-.28-.2-.6-.2-.96 0-.6.26-1.1.76-1.49.51-.4 1.13-.6 1.85-.6.71 0 1.33.17 1.86.52s.86.8.99 1.36l-1.66.69c-.08-.31-.22-.55-.42-.74-.21-.18-.47-.27-.77-.27-.24 0-.42.04-.56.14-.13.09-.2.22-.2.38 0 .15.09.27.27.37s.4.17.67.21a6 6 0 0 1 .87.23 4.5 4.5 0 0 1 .86.38c.27.15.49.39.67.72s.27.73.27 1.19a1.99 1.99 0 0 1-.78 1.63c-.52.41-1.21.62-2.06.62m10.99-.32-1.14 1.03-.98-1.05c-.52.23-1.07.34-1.66.34-1.09 0-2-.35-2.71-1.06-.72-.7-1.08-1.59-1.08-2.65 0-1.07.36-1.96 1.08-2.66.71-.71 1.62-1.06 2.71-1.06 1.08 0 1.98.35 2.69 1.06.71.7 1.07 1.59 1.07 2.66 0 .94-.29 1.75-.86 2.43zm-3.79-1.26a2 2 0 0 0 .47-.05l-1.06-1.14 1.16-1.04 1.1 1.2a2.5 2.5 0 0 0 .25-1.1c0-.62-.18-1.13-.54-1.54q-.54-.6-1.38-.6c-.84 0-1.02.2-1.39.6-.36.41-.54.92-.54 1.54q0 .915.54 1.53c.37.4.83.6 1.39.6m4.72 1.5V21.8h1.86v5.69h3.16v1.58z"/></g></svg>