<svg xmlns="http://www.w3.org/2000/svg" width="382" height="512" viewBox="0 0 24.33 32.53" shape-rendering="geometricPrecision" image-rendering="optimizeQuality" fill-rule="evenodd"><path d="M4.23 0h10.88l9.22 9.61V28.3a4.24 4.24 0 0 1-4.23 4.23H4.23C1.89 32.53 0 30.63 0 28.3V4.23C0 1.89 1.89 0 4.23 0z" fill="#251d36"/><g fill="#fff"><path d="M15.1 0v9.53h9.23z" fill-opacity=".302"/><path d="M16.45 21.21H7.88c-.4 0-.72.32-.72.72 0 .39.32.71.72.71h8.57c.4 0 .72-.32.72-.71 0-.4-.32-.72-.72-.72h0zm0 2.86H7.88c-.4 0-.72.32-.72.72 0 .39.32.71.72.71h8.57c.4 0 .72-.32.72-.71 0-.4-.32-.72-.72-.72h0zm-4.36-8.57H7.88c-.4 0-.72.31-.72.71s.32.71.72.71h4.21c.4 0 .72-.31.72-.71s-.32-.71-.72-.71h0zm4.36 2.85H7.88c-.4 0-.72.32-.72.72 0 .39.32.71.72.71h8.57c.4 0 .72-.32.72-.71 0-.4-.32-.72-.72-.72h0z" fill-rule="nonzero"/></g></svg>