<svg xmlns="http://www.w3.org/2000/svg" width="382" height="512" fill-rule="evenodd" image-rendering="optimizeQuality" shape-rendering="geometricPrecision" viewBox="0 0 55.48 74.18"><path fill="#eb3023" d="M9.65 0h24.82l21.01 21.92v42.61a9.65 9.65 0 0 1-9.65 9.65H9.65A9.65 9.65 0 0 1 0 64.53V9.65A9.65 9.65 0 0 1 9.65 0"/><g fill="#000"><path fill-opacity=".302" d="M34.44 0v21.74h21.04z"/><path fill-rule="nonzero" d="M29.49 41.24h3.18v5.94c0 .66.33 1 1 1 .48 0 .87-.3 1.17-.89.31-.59.47-1.39.47-2.42 0-1.98-.66-3.52-1.96-4.62q-1.965-1.65-5.13-1.65c-2.39 0-4.33.69-5.82 2.08q-2.22 2.07-2.22 5.4c0 2.3.73 4.17 2.2 5.6 1.47 1.44 3.38 2.15 5.73 2.15 2.14 0 4.28-.58 6.43-1.76l1.1 3.3c-2.7 1.13-5.29 1.69-7.78 1.69-3.16 0-5.79-1.04-7.88-3.12-2.09-2.09-3.13-4.71-3.13-7.86 0-3.07 1.08-5.63 3.24-7.66s4.86-3.04 8.13-3.04q4.47 0 7.44 2.7c2.97 2.7 2.97 4.06 2.97 6.79q0 3-1.44 4.71c-.97 1.15-2.23 1.72-3.78 1.72q-2.385 0-3.27-1.59c-.6.91-1.59 1.36-2.97 1.36-1.4 0-2.53-.45-3.37-1.35-.85-.89-1.27-2.11-1.27-3.64 0-1.54.41-2.75 1.22-3.65s1.9-1.34 3.26-1.34c1.08 0 1.9.3 2.48.92zm-3.3 6.5c.38.43.86.64 1.46.64s1.08-.21 1.45-.63c.36-.41.55-.97.55-1.67s-.19-1.26-.55-1.68c-.37-.42-.85-.63-1.45-.63s-1.08.22-1.46.64c-.37.43-.56.99-.56 1.67s.19 1.24.56 1.66"/></g></svg>