<svg xmlns="http://www.w3.org/2000/svg" width="382" height="512" fill-rule="evenodd" image-rendering="optimizeQuality" shape-rendering="geometricPrecision" viewBox="0 0 38.89 51.99"><path fill="#f60" d="M6.76 0h17.4l14.73 15.36v29.87a6.77 6.77 0 0 1-6.77 6.76H6.76C3.03 51.99 0 48.96 0 45.23V6.76C0 3.03 3.03 0 6.76 0z"/><g fill="#fff"><path fill-opacity=".302" d="M24.14 0v15.24h14.75z"/><path fill-rule="nonzero" d="M28.17 34.32h-.57c-.19-2.76-1.78-5.2-4.09-6.54h2.03c.23.63.83 1.09 1.54 1.09a1.64 1.64 0 1 0 0-3.28c-.71 0-1.31.46-1.54 1.09h-4.46v-.54c0-.3-.25-.55-.55-.55h-2.18c-.3 0-.54.25-.54.55v.54h-4.47c-.22-.63-.82-1.09-1.53-1.09a1.65 1.65 0 0 0-1.64 1.64 1.65 1.65 0 0 0 1.64 1.64c.71 0 1.31-.46 1.53-1.09h2.04c-2.32 1.34-3.91 3.78-4.09 6.54h-.57c-.3 0-.55.24-.55.54v2.19c0 .3.25.54.55.54h2.18a.54.54 0 0 0 .54-.54v-2.19a.54.54 0 0 0-.54-.54h-.5A7.08 7.08 0 0 1 17.81 28v.32c0 .3.24.55.54.55h2.18c.3 0 .55-.25.55-.55V28c2.96.7 5.16 3.27 5.4 6.32h-.49a.54.54 0 0 0-.55.54v2.19a.54.54 0 0 0 .55.54h2.18a.54.54 0 0 0 .54-.54v-2.19a.54.54 0 0 0-.54-.54z"/></g></svg>