<svg xmlns="http://www.w3.org/2000/svg" width="382" height="512" fill-rule="evenodd" image-rendering="optimizeQuality" shape-rendering="geometricPrecision" viewBox="0 0 29.93 40.02"><path fill="#fa0000" d="M5.21 0h13.38l11.34 11.82v22.99c0 2.88-2.33 5.21-5.2 5.21H5.21A5.21 5.21 0 0 1 0 34.81V5.21A5.21 5.21 0 0 1 5.21 0z"/><g fill="#fff"><path fill-opacity=".302" d="M18.58 0v11.73h11.35z"/><path fill-rule="nonzero" d="M14.97 18.16c-3.57 0-6.47 2.9-6.47 6.47s2.9 6.46 6.47 6.46a6.46 6.46 0 0 0 6.46-6.46 6.48 6.48 0 0 0-6.46-6.47zm2.72 6.67a.53.53 0 0 1-.21.21l-3.69 1.85c-.23.11-.51.02-.62-.21a.364.364 0 0 1-.05-.21v-3.69a.46.46 0 0 1 .46-.46c.07 0 .14.01.21.05l3.69 1.84c.23.12.32.39.21.62z"/></g></svg>