<svg xmlns="http://www.w3.org/2000/svg" width="382" height="512" fill-rule="evenodd" image-rendering="optimizeQuality" shape-rendering="geometricPrecision" viewBox="0 0 24.33 32.53"><path fill="#ffb11f" d="M4.23 0h10.88l9.22 9.61V28.3a4.24 4.24 0 0 1-4.23 4.23H4.23C1.89 32.53 0 30.63 0 28.3V4.23C0 1.89 1.89 0 4.23 0"/><g fill="#fff"><path fill-opacity=".302" d="M15.1 0v9.53h9.23z"/><path fill-rule="nonzero" d="M8.96 16.9v-2.22c0-.24-.19-.43-.43-.43h-1.2c-.24 0-.43.19-.43.43v2.22l-.67 1.96a1.79 1.79 0 0 0 .24 1.63c.33.47.88.75 1.46.75a1.8 1.8 0 0 0 1.46-.75 1.79 1.79 0 0 0 .24-1.63zm-.28 3.08c-.34.49-1.16.49-1.51 0a.93.93 0 0 1-.12-.84l.22-.66h1.31l.23.66c.09.28.05.6-.13.84M5.27 2.33v1.22c0 .24.19.43.43.43h1.63V5.8H5.7c-.24 0-.43.19-.43.43v.94c0 .24.19.44.43.44h1.63v1.81H5.7c-.24 0-.43.19-.43.43v.95c0 .24.19.43.43.43h1.63v1.38c0 .24.2.43.44.43h2.39c.23 0 .43-.19.43-.43v-.95a.44.44 0 0 0-.43-.43H8.52V9.42h1.64c.23 0 .43-.19.43-.43v-.95c0-.24-.2-.43-.43-.43H8.52V5.8h1.64c.23 0 .43-.2.43-.44v-.94c0-.24-.2-.44-.43-.44H8.52V2.32z"/></g></svg>