<svg xmlns="http://www.w3.org/2000/svg" xmlns:xlink="http://www.w3.org/1999/xlink" viewBox="0 0 1600 1200"><use xlink:href="#B" x="320.4" fill="#33c6f5"/><use xlink:href="#A" x="320.4" y="-92.5" fill="#35c7f5"/><use xlink:href="#D" x="320.4" fill="#27c3f5"/><use xlink:href="#E" x="320.4" fill="#0dbff5"/><use xlink:href="#E" x="320.4" y="-92.5" fill="#2bc4f4"/><use xlink:href="#D" x="320.4" y="-185" fill="#22c0f4"/><use xlink:href="#E" x="320.4" y="-185" fill="#1cbdf5"/><use xlink:href="#D" x="320.4" y="-277.5" fill="#23c0f4"/><use xlink:href="#E" x="320.4" y="-277.5" fill="#20bcf4"/><use xlink:href="#D" x="320.4" y="-370" fill="#0eb9f5"/><use xlink:href="#E" x="320.4" y="-370" fill="#1ebdf4"/><use xlink:href="#D" x="320.4" y="-462.5" fill="#0ab2ea"/><use xlink:href="#E" x="320.4" y="-462.5" fill="#22c0f4"/><use xlink:href="#D" x="320.4" y="-554.9" fill="#32c6f5"/><use xlink:href="#E" x="320.4" y="-554.9" fill="#30c4f5"/><use xlink:href="#D" x="320.4" y="-647.4" fill="#28c2f5"/><use xlink:href="#E" x="320.4" y="-647.4" fill="#10bbf4"/><use xlink:href="#D" x="320.4" y="-739.9" fill="#33c4f6"/><use xlink:href="#E" x="320.4" y="-739.9" fill="#17bef5"/><use xlink:href="#D" x="320.4" y="-832.4" fill="#24c0f5"/><use xlink:href="#E" x="320.4" y="-832.4" fill="#27c1f5"/><use xlink:href="#D" x="320.4" y="-924.9" fill="#2ec4f5"/><use xlink:href="#E" x="320.4" y="-924.9" fill="#2ac2f5"/><use xlink:href="#D" x="320.4" y="-1017.4" fill="#2ec3f5"/><use xlink:href="#C" x="240.3" y="46.2" fill="#35bfef"/><use xlink:href="#E" x="240.3" y="-46.2" fill="#3cc1ee"/><use xlink:href="#E" x="240.3" y="-138.7" fill="#14b2e6"/><use xlink:href="#D" x="240.3" y="-231.2" fill="#1fb7ec"/><use xlink:href="#E" x="240.3" y="-231.2" fill="#2ebded"/><use xlink:href="#E" x="240.3" y="-323.7" fill="#15aee2"/><use xlink:href="#D" x="240.3" y="-416.2" fill="#2ab9ed"/><use xlink:href="#E" x="240.3" y="-416.2" fill="#1db8ed"/><use xlink:href="#D" x="240.3" y="-508.7" fill="#3fc2ee"/><use xlink:href="#E" x="240.3" y="-508.7" fill="#19b6eb"/><use xlink:href="#E" x="240.3" y="-601.2" fill="#24baec"/><use xlink:href="#D" x="240.3" y="-693.7" fill="#2cbdee"/><use xlink:href="#E" x="240.3" y="-693.7" fill="#39c0ef"/><use xlink:href="#D" x="240.3" y="-786.2" fill="#30beee"/><use xlink:href="#E" x="240.3" y="-786.2" fill="#17b6ec"/><use xlink:href="#D" x="240.3" y="-878.7" fill="#1eb8eb"/><use xlink:href="#E" x="240.3" y="-878.7" fill="#23baec"/><use xlink:href="#D" x="240.3" y="-971.2" fill="#2abced"/><use xlink:href="#E" x="240.3" y="-971.2" fill="#2ebded"/><use xlink:href="#D" x="160.2" fill="#2ab4e2"/><use xlink:href="#D" x="160.2" y="-185" fill="#2bb3e2"/><use xlink:href="#E" x="160.2" y="-185" fill="#2cb2e0"/><use xlink:href="#D" x="160.2" y="-277.5" fill="#32b5e3"/><use xlink:href="#E" x="160.2" y="-277.5" fill="#2ab4e2"/><use xlink:href="#D" x="160.2" y="-370" fill="#28b0e1"/><use xlink:href="#D" x="160.2" y="-462.5" fill="#39b7e4"/><use xlink:href="#E" x="160.2" y="-462.5" fill="#29b3e2"/><use xlink:href="#D" x="160.2" y="-554.9" fill="#43bce4"/><use xlink:href="#E" x="160.2" y="-554.9" fill="#31b7e2"/><use xlink:href="#D" x="160.2" y="-647.4" fill="#2ab1e1"/><use xlink:href="#E" x="160.2" y="-647.4" fill="#24afe0"/><use xlink:href="#D" x="160.2" y="-739.9" fill="#25b0df"/><use xlink:href="#E" x="160.2" y="-739.9" fill="#2eb5e4"/><use xlink:href="#D" x="160.2" y="-832.4" fill="#20aedc"/><use xlink:href="#D" x="160.2" y="-924.9" fill="#24b1e0"/><use xlink:href="#E" x="160.2" y="-924.9" fill="#36b7e3"/><use xlink:href="#D" x="160.2" y="-1017.4" fill="#31b5e2"/><use xlink:href="#D" x="80.1" y="-138.7" fill="#29a1c9"/><use xlink:href="#D" x="80.1" y="-231.2" fill="#2eabd4"/><use xlink:href="#D" x="80.1" y="-323.7" fill="#2daad4"/><use xlink:href="#E" x="80.1" y="-323.7" fill="#2eacd5"/><use xlink:href="#D" x="80.1" y="-416.2" fill="#2daad3"/><use xlink:href="#E" x="80.1" y="-416.2" fill="#2eabd5"/><use xlink:href="#E" x="80.1" y="-508.7" fill="#30acd5"/><use xlink:href="#D" x="80.1" y="-601.2" fill="#2798bd"/><use xlink:href="#E" x="80.1" y="-601.2" fill="#3bb1d7"/><use xlink:href="#E" x="80.1" y="-693.7" fill="#32add6"/><use xlink:href="#D" x="80.1" y="-786.2" fill="#33add7"/><use xlink:href="#E" x="80.1" y="-786.2" fill="#45b4d9"/><use xlink:href="#D" x="80.1" y="-878.7" fill="#3cb1d7"/><use xlink:href="#E" x="80.1" y="-878.7" fill="#2baad3"/><use xlink:href="#D" x="80.1" y="-971.2" fill="#29a4ce"/><use xlink:href="#E" x="80.1" y="-971.2" fill="#32add5"/><use xlink:href="#E" y="-185" fill="#2e99bc"/><use xlink:href="#E" y="-277.5" fill="#319dc2"/><use xlink:href="#D" y="-370" fill="#31a0c4"/><use xlink:href="#E" y="-370" fill="#38a9ce"/><use xlink:href="#D" y="-462.5" fill="#2e94b5"/><use xlink:href="#D" y="-554.9" fill="#309fc5"/><use xlink:href="#E" y="-554.9" fill="#36a5cd"/><use xlink:href="#D" y="-647.4" fill="#40abcf"/><use xlink:href="#E" y="-647.4" fill="#35a7ce"/><use xlink:href="#D" y="-739.9" fill="#39aace"/><use xlink:href="#E" y="-739.9" fill="#2e95ba"/><use xlink:href="#D" y="-832.4" fill="#2f9bbe"/><use xlink:href="#E" y="-832.4" fill="#309fc6"/><use xlink:href="#D" y="-924.9" fill="#43aed1"/><use xlink:href="#E" y="-924.9" fill="#32a2c6"/><use xlink:href="#D" y="-1017.4" fill="#32a5cb"/><use xlink:href="#D" x="-80.1" y="-231.2" fill="#3ba7cb"/><use xlink:href="#D" x="-80.1" y="-416.2" fill="#3096b7"/><use xlink:href="#E" x="-80.1" y="-508.7" fill="#339cbf"/><use xlink:href="#D" x="-80.1" y="-601.2" fill="#339abc"/><use xlink:href="#D" x="-80.1" y="-693.7" fill="#3fa9cc"/><use xlink:href="#E" x="-80.1" y="-693.7" fill="#2d8eaf"/><use xlink:href="#D" x="-80.1" y="-786.2" fill="#35a1c3"/><use xlink:href="#E" x="-80.1" y="-786.2" fill="#35a4c7"/><use xlink:href="#D" x="-80.1" y="-878.7" fill="#34a0c4"/><use xlink:href="#D" x="-80.1" y="-971.2" fill="#3199bd"/><use xlink:href="#E" x="-80.1" y="-971.2" fill="#3197ba"/><use xlink:href="#E" x="-160.2" y="-462.5" fill="#3598ba"/><use xlink:href="#E" x="-160.2" y="-554.9" fill="#328bac"/><use xlink:href="#D" x="-160.2" y="-647.4" fill="#3494b5"/><use xlink:href="#E" x="-160.2" y="-647.4" fill="#359abd"/><use xlink:href="#D" x="-160.2" y="-739.9" fill="#369bba"/><use xlink:href="#E" x="-160.2" y="-739.9" fill="#3289a8"/><use xlink:href="#D" x="-160.2" y="-832.4" fill="#3fa4c7"/><use xlink:href="#E" x="-160.2" y="-832.4" fill="#328fac"/><use xlink:href="#D" x="-160.2" y="-924.9" fill="#3191b2"/><use xlink:href="#E" x="-160.2" y="-924.9" fill="#328fad"/><use xlink:href="#D" x="-160.2" y="-1017.4" fill="#3497b7"/><use xlink:href="#E" x="-240.3" y="-416.2" fill="#3893b1"/><use xlink:href="#D" x="-240.3" y="-601.2" fill="#3c9cbc"/><use xlink:href="#D" x="-240.3" y="-693.7" fill="#3994b1"/><use xlink:href="#E" x="-240.3" y="-693.7" fill="#358daa"/><use xlink:href="#E" x="-240.3" y="-786.2" fill="#378dab"/><use xlink:href="#D" x="-240.3" y="-878.7" fill="#3a95b8"/><use xlink:href="#E" x="-240.3" y="-878.7" fill="#378fac"/><use xlink:href="#E" x="-240.3" y="-971.2" fill="#3386a4"/><use xlink:href="#E" x="-320.4" y="-554.9" fill="#3e91af"/><use xlink:href="#E" x="-320.4" y="-739.9" fill="#347a93"/><use xlink:href="#D" x="-320.4" y="-832.4" fill="#3a8ca7"/><use xlink:href="#E" x="-320.4" y="-832.4" fill="#36819c"/><use xlink:href="#D" x="-320.4" y="-924.9" fill="#3989a5"/><use xlink:href="#G" fill="#3b8daa"/><use xlink:href="#D" x="-320.4" y="-1017.4" fill="#37859f"/><use xlink:href="#D" x="-400.5" y="-508.7" fill="#3b849a"/><use xlink:href="#D" x="-400.5" y="-601.2" fill="#3a839c"/><use xlink:href="#D" x="-400.5" y="-693.7" fill="#4fa3bd"/><use xlink:href="#H" fill="#3e8ba7"/><use xlink:href="#D" x="-400.5" y="-878.7" fill="#3e88a0"/><use xlink:href="#D" x="-400.5" y="-971.2" fill="#3f8fa9"/><use xlink:href="#I" fill="#3e8ca6"/><use xlink:href="#E" x="-480.6" y="-739.9" fill="#3c8295"/><use xlink:href="#E" x="-480.6" y="-832.4" fill="#3d839d"/><use xlink:href="#F" x="-160.2" fill="#357285"/><use xlink:href="#I" x="-160.2" fill="#3a788d"/><use xlink:href="#D" x="-560.7" y="-971.2" fill="#336e82"/><use xlink:href="#D" x="-640.8" y="-832.4" fill="#3e8094"/><use xlink:href="#E" x="-640.8" y="-832.4" fill="#377286"/><use xlink:href="#D" x="-640.8" y="-1017.4" fill="#2e6575"/><use xlink:href="#D" x="-720.9" y="-786.2" fill="#3d8097"/><use xlink:href="#E" x="-961.2" y="-739.9" fill="#448298"/><use xlink:href="#D" x="-160.2" y="-277.5" fill="#3493b6"/><use xlink:href="#E" x="-160.2" y="-370" fill="#3aa2c8"/><use xlink:href="#E" x="-320.4" y="-277.5" fill="#35819b"/><use xlink:href="#J" fill="#3d88a1"/><use xlink:href="#E" x="-560.7" y="-601.2" fill="#3c7f97"/><use xlink:href="#E" x="-720.9" y="-601.2" fill="#35758b"/><use xlink:href="#D" x="-720.9" y="-971.2" fill="#36758d"/><use xlink:href="#D" x="-801" y="-924.9" fill="#2b6477"/><use xlink:href="#K" fill="#20434f"/><use xlink:href="#E" x="-881.1" y="-508.7" fill="#275761"/><use xlink:href="#D" x="-1041.3" y="-971.2" fill="#335866"/><use xlink:href="#D" x="-1121.4" y="-1017.4" fill="#2a5262"/><defs><path id="A" d="m1199.5 1200 80.1-46.2v92.4z"/><path id="B" d="m1279.6 1153.8-80.1-46.3v92.5z"/><path id="C" d="m1279.6 1061.3-80.1-46.3v92.5z"/><path id="D" d="m1199.5 1015 80.1-46.2v92.5z"/><path id="E" d="m1279.6 968.8-80.1-46.3v92.5z"/><path id="F" d="M879.1 90.1 799 44v92.5z"/><path id="G" d="M959.2 43.9 879.1-2.4v92.5z"/><path id="H" d="M879.1 275 799 228.9v92.5z"/><path id="I" d="M879.1-2.4 799-48.6v92.5z"/><path id="J" d="M879.1 645 799 598.9v92.5z"/><path id="K" d="M478.6 43.9 398.5-2.4v92.5z"/></defs></svg>