<?xml version="1.0" encoding="utf-8"?>
<!-- Generator: Adobe Illustrator 24.2.1, SVG Export Plug-In . SVG Version: 6.00 Build 0)  -->
<svg version="1.1"
	 id="svg2" inkscape:export-xdpi="179.57756" inkscape:export-ydpi="179.57756" inkscape:version="0.92.3 (2405546, 2018-03-11)" sodipodi:docname="grammm_logo_letters.svg" xmlns:cc="http://creativecommons.org/ns#" xmlns:dc="http://purl.org/dc/elements/1.1/" xmlns:inkscape="http://www.inkscape.org/namespaces/inkscape" xmlns:rdf="http://www.w3.org/1999/02/22-rdf-syntax-ns#" xmlns:sodipodi="http://sodipodi.sourceforge.net/DTD/sodipodi-0.dtd" xmlns:svg="http://www.w3.org/2000/svg"
	 xmlns="http://www.w3.org/2000/svg" xmlns:xlink="http://www.w3.org/1999/xlink" x="0px" y="0px" viewBox="0 0 560 140"
	 style="enable-background:new 0 0 560 140;" xml:space="preserve">
<style type="text/css">
	.st0{fill:#3F3F3F;}
	.st1{fill:#2DCAFF;}
</style>
<sodipodi:namedview  bordercolor="#666666" borderopacity="1" gridtolerance="10" guidetolerance="10" id="namedview4" inkscape:current-layer="g10" inkscape:cx="276.72494" inkscape:cy="11.269518" inkscape:pageopacity="0" inkscape:pageshadow="2" inkscape:snap-bbox="true" inkscape:window-height="1387" inkscape:window-maximized="1" inkscape:window-width="2560" inkscape:window-x="-8" inkscape:window-y="-8" inkscape:zoom="1.8947268" objecttolerance="10" pagecolor="#ffffff" showgrid="false" showguides="false">
	<inkscape:grid  id="grid996" type="xygrid"></inkscape:grid>
</sodipodi:namedview>
<g id="g10" transform="matrix(1.3333333,0,0,-1.3333333,0,139.99998)" inkscape:groupmode="layer" inkscape:label="grammm_type">
	<path id="path44" inkscape:connector-curvature="0" class="st0" d="M227.6,64.5c-6.6,0-12-5.4-12-12s5.4-12,12-12
		c6.6,0,12,5.4,12,12S234.2,64.5,227.6,64.5 M227.6,31.3c-11.7,0-21.2,9.5-21.2,21.2c0,11.7,9.5,21.2,21.2,21.2
		c11.7,0,21.2-9.5,21.2-21.2C248.8,40.8,239.3,31.3,227.6,31.3"/>
	<path id="path48" inkscape:connector-curvature="0" class="st0" d="M184.5,31.3c-2.5,0-4.6,2.1-4.6,4.6v16.6
		c0,11.7,9.5,21.2,21.2,21.2c2.5,0,4.6-2.1,4.6-4.6s-2.1-4.6-4.6-4.6c-6.6,0-12-5.4-12-12V35.9C189.1,33.3,187,31.3,184.5,31.3"/>
	<g id="g4575" transform="translate(0,-5.401583)">
		<path id="path40" inkscape:connector-curvature="0" class="st0" d="M153,69.9c-6.6,0-12-5.4-12-12s5.4-12,12-12s12,5.4,12,12
			C165,64.5,159.7,69.9,153,69.9 M153,36.7c-11.7,0-21.2,9.5-21.2,21.2c0,11.7,9.5,21.2,21.2,21.2c11.7,0,21.2-9.5,21.2-21.2
			C174.2,46.2,164.7,36.7,153,36.7"/>
		<path id="path52" inkscape:connector-curvature="0" sodipodi:nodetypes="csssssssssc" class="st0" d="M153,16.8l-8.4-0.1
			c-2.5,0-4.6,2.1-4.6,4.6s2.1,4.6,4.6,4.6L153,26c6.6,0,12,5.4,12,12L165,74.5c0,2.5,2.1,4.6,4.6,4.6c2.5,0,4.6-2.1,4.6-4.6
			l0.1-36.5C174.3,26.4,164.7,16.8,153,16.8"/>
	</g>
	<path id="path56" inkscape:connector-curvature="0" class="st0" d="M244.7,31.3c-2.5,0-4.6,2.1-4.6,4.6v33.2c0,2.5,2.1,4.6,4.6,4.6
		c2.5,0,4.6-2.1,4.6-4.6V35.9C249.3,33.3,247.2,31.3,244.7,31.3"/>
	<path id="path60" inkscape:connector-curvature="0" class="st0" d="M291.2,73.6L291.2,73.6c-4.1,0-7.9-1.7-10.6-4.4
		c-2.7,2.7-6.5,4.4-10.6,4.4l0,0c-8.3,0-15.1-6.7-15.1-15.1V35.9c0-2.5,2-4.5,4.5-4.5c2.5,0,4.5,2,4.5,4.5v22.5c0,3.2,2.4,6,5.6,6.2
		c3.5,0.2,6.4-2.5,6.4-6V35.9c0-2.5,2-4.5,4.5-4.5h0.2c2.5,0,4.5,2,4.5,4.5v22.7c0,3.3,2.7,6,6,6l0,0c3.3,0,6-2.7,6-6V35.9
		c0-2.5,2-4.5,4.5-4.5c2.5,0,4.5,2,4.5,4.5v22.6C306.3,66.9,299.5,73.6,291.2,73.6"/>
	<path id="path64" inkscape:connector-curvature="0" class="st0" d="M348.1,73.6L348.1,73.6c-4.1,0-7.9-1.7-10.6-4.4
		c-2.7,2.7-6.5,4.4-10.6,4.4l0,0c-8.3,0-15.1-6.7-15.1-15.1V35.9c0-2.5,2-4.5,4.5-4.5c2.5,0,4.5,2,4.5,4.5v22.5c0,3.2,2.4,6,5.6,6.2
		c3.5,0.2,6.4-2.5,6.4-6V35.9c0-2.5,2-4.5,4.5-4.5h0.2c2.5,0,4.5,2,4.5,4.5v22.7c0,3.3,2.7,6,6,6l0,0c3.3,0,6-2.7,6-6V35.9
		c0-2.5,2-4.5,4.5-4.5s4.5,2,4.5,4.5v22.6C363.1,66.9,356.4,73.6,348.1,73.6"/>
	<path id="path68" inkscape:connector-curvature="0" class="st0" d="M404.9,73.6L404.9,73.6c-4.1,0-7.9-1.7-10.6-4.4
		c-2.7,2.7-6.5,4.4-10.6,4.4l0,0c-8.3,0-15.1-6.7-15.1-15.1V35.9c0-2.5,2-4.5,4.5-4.5c2.5,0,4.5,2,4.5,4.5v22.5c0,3.2,2.4,6,5.6,6.2
		c3.5,0.2,6.4-2.5,6.4-6V35.9c0-2.5,2-4.5,4.5-4.5h0.2c2.5,0,4.5,2,4.5,4.5v22.7c0,3.3,2.7,6,6,6l0,0c3.3,0,6-2.7,6-6V35.9
		c0-2.5,2-4.5,4.5-4.5l0,0c2.5,0,4.5,2,4.5,4.5v22.6C420,66.9,413.3,73.6,404.9,73.6"/>
</g>
<g id="g10_1_" transform="matrix(1.3333333,0,0,-1.3333333,0,139.99998)" inkscape:groupmode="layer" inkscape:label="grammm_type">
	<g id="g850" transform="translate(-5.3127487,-0.18844369)">
		<path id="path92" inkscape:connector-curvature="0" class="st0" d="M124.6,99.4l-33.3-15l12.8-21.1l20.6,35.6L124.6,99.4z"/>
		<path id="path72" inkscape:connector-curvature="0" class="st0" d="M37.7,80.5l2.3,24.7H6.3L37.7,80.5z"/>
		<path id="path76" inkscape:connector-curvature="0" class="st1" d="M38.4,50.6l19.5-2.3L42.6,65.8L38.4,50.6z"/>
		<path id="path80" inkscape:connector-curvature="0" class="st1" d="M36.6,72L5.3,96.6C9.1,90.1,18.2,74.3,31,52L36.6,72z"/>
		<path id="path84" inkscape:connector-curvature="0" class="st1" d="M45,78.4l36.7,10.2l-3.5,16.5H47.5L45,78.4z"/>
		<path id="path88" inkscape:connector-curvature="0" class="st1" d="M80.1,80.5l-32.5-9.1l20.7-23.3L80.1,80.5z"/>
		<path id="path96" inkscape:connector-curvature="0" class="st1" d="M88.7,91.3l30.7,13.9H85.7L88.7,91.3z"/>
		<path id="path100" inkscape:connector-curvature="0" class="st1" d="M76.6,49.3l22,4.3l1.2,2.3L86.8,77.5L76.6,49.3z"/>
		<path id="path104" inkscape:connector-curvature="0" class="st0" d="M63.4,40.3L36,43.5c12.3-21.4,22.5-39,25-43.3L63.4,40.3z"/>
		<path id="path108" inkscape:connector-curvature="0" class="st1" d="M70.7,38L68.5,1.4l13.9,24L70.7,38z"/>
		<path id="path112" inkscape:connector-curvature="0" class="st1" d="M77.4,41.8l8.9-9.5L93.6,45L77.4,41.8z"/>
	</g>
</g>
</svg>
