<svg xmlns="http://www.w3.org/2000/svg" viewBox="0 0 620 140"><g id="grommunio"><path d="M186.67,52.77q-11.14,0-13.28,16.22-1.11,8.4,1.28,12.56a8.34,8.34,0,0,0,7.67,4.16,12.14,12.14,0,0,0,8.23-3.25,11.9,11.9,0,0,0,4.34-7.6l1.44-10.94a9.42,9.42,0,0,0-2.3-7.9,9.29,9.29,0,0,0-7.38-3.25Zm-9.92,43.07q-8.92,0-13.66-7.09T160,69q1.67-12.57,7.94-19.46a20.67,20.67,0,0,1,15.8-6.89,18,18,0,0,1,8.18,1.72,18.87,18.87,0,0,1,6.44,5.78.24.24,0,0,0,.19.1.1.1,0,0,0,.11-.1l.1-.71a6.6,6.6,0,0,1,2.35-4,6.45,6.45,0,0,1,4.38-1.73h1.12a4.53,4.53,0,0,1,3.72,1.73,4.9,4.9,0,0,1,1.19,4l-5.64,42.86q-3.6,27.36-31,27.36a66.68,66.68,0,0,1-10.13-.81,5.39,5.39,0,0,1-3.73-2.43,6.33,6.33,0,0,1-.94-4.46,4.53,4.53,0,0,1,2.05-3.24,4.87,4.87,0,0,1,3.83-.61,39.76,39.76,0,0,0,10,1.22q7.5,0,11.47-4t5.12-12.76l.42-3.14c0-.07,0-.1-.09-.1a.33.33,0,0,0-.22.1,22.82,22.82,0,0,1-15.94,6.38Zm38.61.51a4.84,4.84,0,0,1-3.82-1.73,4.9,4.9,0,0,1-1.19-4.05l5.42-41.14a6.94,6.94,0,0,1,6.53-5.78h2a4.82,4.82,0,0,1,3.82,1.73,4.89,4.89,0,0,1,1.19,4l-.56,4.26c0,.06,0,.1.09.1s.21,0,.22-.1a26.72,26.72,0,0,1,8.57-6.59,30.44,30.44,0,0,1,10.86-3.25A3.74,3.74,0,0,1,252,45.27a4.43,4.43,0,0,1,1,3.65,5.75,5.75,0,0,1-2,3.65,6.68,6.68,0,0,1-3.87,1.72Q229,55.72,226.81,72.53l-2.38,18a6.4,6.4,0,0,1-2.25,4.05,6.34,6.34,0,0,1-4.28,1.73Z" style="fill:#3f3f3f"/><path id="B" d="M284.85,56.73q-2.39-4.26-8.36-4.26a11.92,11.92,0,0,0-9.58,4.26q-3.48,4.14-4.68,13.27t1.18,13.38q2.49,4.16,8.47,4.15a11.7,11.7,0,0,0,9.46-4.15q3.6-4.26,4.8-13.38T284.85,56.73Zm5.52,33.54q-7.64,7.08-19.79,7.09t-18-7.09q-5.74-7.2-4-20.27t9.34-20.17q7.74-7.19,19.9-7.19t17.9,7.19q5.85,7.1,4.13,20.17T290.37,90.27Z" style="fill:#3f3f3f"/><path id="C" d="M305.13,96.35a4.82,4.82,0,0,1-3.82-1.73,5.09,5.09,0,0,1-1.09-4.05l5.42-41.14a6.54,6.54,0,0,1,2.15-4,6.34,6.34,0,0,1,4.28-1.73h1.42a4.72,4.72,0,0,1,3.74,1.62,4.93,4.93,0,0,1,1.3,4l-.09.7c0,.07,0,.11.09.11s.2,0,.21-.11q6.94-7.29,14.44-7.29a12.38,12.38,0,0,1,7.07,1.72q2.61,1.72,4.16,6.08c0,.07.06.1.19.1a.33.33,0,0,0,.22-.1q7.41-7.8,15.42-7.8,8.4,0,11.45,4.56t1.68,15.71l-3.64,27.66a6.4,6.4,0,0,1-2.25,4.05,6,6,0,0,1-4.18,1.73h-1.73a4.84,4.84,0,0,1-3.82-1.73,4.9,4.9,0,0,1-1.19-4.05l3.37-25.64q1-7.4-.13-9.72t-5.17-2.34A9,9,0,0,0,349,55.31q-3,2.43-3.27,4.86l-4,30.4a6.4,6.4,0,0,1-2.25,4.05,6.34,6.34,0,0,1-4.28,1.73H333.5a4.84,4.84,0,0,1-3.82-1.73,5.13,5.13,0,0,1-1.09-4.05L332,64.93q1-7.29-.26-9.62t-5.15-2.44A9,9,0,0,0,321,55.31q-3,2.43-3.27,4.86l-4,30.4a6.4,6.4,0,0,1-2.25,4.05,6.34,6.34,0,0,1-4.28,1.73Z" style="fill:#3f3f3f"/><path id="C-2" data-name="C" d="M378.64,96.35a4.82,4.82,0,0,1-3.82-1.73,5.09,5.09,0,0,1-1.09-4.05l5.41-41.14a6.6,6.6,0,0,1,2.16-4,6.34,6.34,0,0,1,4.28-1.73H387a4.72,4.72,0,0,1,3.74,1.62,4.93,4.93,0,0,1,1.3,4l-.09.7c0,.07,0,.11.08.11s.21,0,.22-.11q6.94-7.29,14.44-7.29a12.4,12.4,0,0,1,7.07,1.72q2.61,1.72,4.16,6.08c0,.07.06.1.19.1a.33.33,0,0,0,.22-.1q7.41-7.8,15.41-7.8,8.42,0,11.46,4.56t1.68,15.71l-3.64,27.66A6.4,6.4,0,0,1,441,94.62a6,6,0,0,1-4.18,1.73h-1.73a4.82,4.82,0,0,1-3.82-1.73,4.9,4.9,0,0,1-1.19-4.05l3.37-25.64c.65-4.93.61-8.17-.14-9.72s-2.46-2.34-5.16-2.34a9,9,0,0,0-5.59,2.44q-3,2.43-3.27,4.86l-4,30.4A6.4,6.4,0,0,1,413,94.62a6.34,6.34,0,0,1-4.28,1.73H407a4.82,4.82,0,0,1-3.82-1.73,5.13,5.13,0,0,1-1.09-4.05l3.38-25.64q1-7.29-.26-9.62t-5.15-2.44a9,9,0,0,0-5.59,2.44q-3,2.43-3.27,4.86l-4,30.4A6.4,6.4,0,0,1,385,94.62a6.34,6.34,0,0,1-4.28,1.73Z" style="fill:#3f3f3f"/><path d="M463,97.36q-8.91,0-12.33-4.86t-1.85-16.72l3.47-26.35a7,7,0,0,1,6.54-5.78h1.62a4.82,4.82,0,0,1,3.82,1.73,4.89,4.89,0,0,1,1.19,4l-3.28,24.93q-.93,7.1.63,9.83t6.13,2.73q4.15,0,8.17-3.54t4.64-7.6l3.47-26.35a6.41,6.41,0,0,1,2.26-4,6.34,6.34,0,0,1,4.28-1.73h2a4.55,4.55,0,0,1,3.72,1.73,4.93,4.93,0,0,1,1.19,4l-5.42,41.14A6.4,6.4,0,0,1,491,94.62a6,6,0,0,1-4.18,1.73h-1.32a5.12,5.12,0,0,1-3.94-1.63,5.56,5.56,0,0,1-1.18-4.15v-.71c0-.07,0-.1-.09-.1a.33.33,0,0,0-.22.1q-7.87,7.5-17.1,7.5Zm38.21-1a4.82,4.82,0,0,1-3.82-1.73,4.9,4.9,0,0,1-1.19-4.05l5.41-41.14a6.41,6.41,0,0,1,2.26-4,6.34,6.34,0,0,1,4.28-1.73h1.32a4.65,4.65,0,0,1,3.82,1.73,5,5,0,0,1,1.29,4l-.09.71c0,.07,0,.1.09.1a.31.31,0,0,0,.21-.1q7.89-7.5,17.1-7.5t12.69,5.27q3.57,5.16,2,17.33l-3.34,25.33A6.4,6.4,0,0,1,541,94.62a6.34,6.34,0,0,1-4.28,1.73H535a4.84,4.84,0,0,1-3.83-1.73A5.13,5.13,0,0,1,530,90.57l3.2-24.32q1-7.61-.66-10.34c-1-1.89-3.24-2.83-6.62-2.83q-4.15,0-8.17,3.54t-4.55,7.6l-3.47,26.35a6.94,6.94,0,0,1-6.53,5.78Zm51.11,0a4.84,4.84,0,0,1-3.83-1.73,4.94,4.94,0,0,1-1.19-4.05l5.42-41.14a6.94,6.94,0,0,1,6.53-5.78h2.64a4.82,4.82,0,0,1,3.82,1.73,4.89,4.89,0,0,1,1.19,4l-5.41,41.14a6.46,6.46,0,0,1-2.26,4.05A6.34,6.34,0,0,1,555,96.35Z" style="fill:#3f3f3f"/><path id="B-2" data-name="B" d="M604.64,56.73q-2.39-4.26-8.36-4.26a11.91,11.91,0,0,0-9.58,4.26Q583.22,60.87,582,70t1.18,13.38q2.49,4.16,8.47,4.15a11.72,11.72,0,0,0,9.47-4.15q3.6-4.26,4.8-13.38T604.64,56.73Zm5.51,33.54q-7.62,7.08-19.78,7.09t-18-7.09q-5.73-7.2-4-20.27t9.34-20.17q7.74-7.19,19.89-7.19t17.9,7.19q5.87,7.1,4.14,20.17T610.15,90.27Z" style="fill:#3f3f3f"/><path d="M552.71,19.54l7.71,17.32,12.29-17.32Z" style="fill:#2dcaff"/></g><g id="icon"><path id="path92" d="M159,7.69l-44.36,20,17,28.23L159,8.6Z" style="fill:#3f3f3f"/><path id="path72" d="M43.14,32.87,46.12,0H1.35Z" style="fill:#3f3f3f"/><path id="path76" d="M44.08,72.71l26.12,3L49.62,52.55Z" style="fill:#2dcaff"/><path id="path80" d="M41.59,44.29,0,11.57C5,20.13,17.17,41.3,34.28,70.94Z" style="fill:#2dcaff"/><path id="path84" d="M52.85,35.7,101.71,22,97,0H56.09Z" style="fill:#2dcaff"/><path id="path88" d="M99.58,32.9,56.23,45.06,83.86,76.13Z" style="fill:#2dcaff"/><path id="path96" d="M111.1,18.46,151.94,0H107.13Z" style="fill:#2dcaff"/><path id="path100" d="M95,74.6l29.32-5.82,1.73-3L108.66,37Z" style="fill:#2dcaff"/><path id="path104" d="M77.31,86.52,40.85,82.33c16.44,28.46,30,51.9,33.3,57.67Z" style="fill:#3f3f3f"/><path id="path108" d="M87.08,89.56,84.2,138.22l18.42-31.9Z" style="fill:#2dcaff"/><path id="path112" d="M96,84.53l11.86,12.79,9.88-17.11Z" style="fill:#2dcaff"/></g></svg>