<svg id="icon" xmlns="http://www.w3.org/2000/svg" viewBox="0 0 114.17 100.5"><path id="path92" d="M127.08,25.27,95.24,39.66l12.21,20.26,19.63-34Z" transform="translate(-12.92 -19.75)" style="fill:#3f3f3f"/><path id="path72" d="M43.88,43.35,46,19.75H13.89Z" transform="translate(-12.92 -19.75)" style="fill:#3f3f3f"/><path id="path76" d="M44.56,72,63.31,74.1,48.54,57.48Z" transform="translate(-12.92 -19.75)" style="fill:#2dcaff"/><path id="path80" d="M42.78,51.54,12.92,28.05l24.6,42.62Z" transform="translate(-12.92 -19.75)" style="fill:#2dcaff"/><path id="path84" d="M50.85,45.38l35.08-9.84-3.4-15.79H53.18Z" transform="translate(-12.92 -19.75)" style="fill:#2dcaff"/><path id="path88" d="M84.4,43.37,53.29,52.09,73.11,74.4Z" transform="translate(-12.92 -19.75)" style="fill:#2dcaff"/><path id="path96" d="M92.67,33,122,19.75H89.82Z" transform="translate(-12.92 -19.75)" style="fill:#2dcaff"/><path id="path100" d="M81.1,73.3l21-4.18L103.38,67,90.92,46.29Z" transform="translate(-12.92 -19.75)" style="fill:#2dcaff"/><path id="path104" d="M68.42,81.86l-26.18-3c11.8,20.43,21.51,37.26,23.91,41.4Z" transform="translate(-12.92 -19.75)" style="fill:#3f3f3f"/><path id="path108" d="M75.43,84,73.36,119l13.22-22.9Z" transform="translate(-12.92 -19.75)" style="fill:#2dcaff"/><path id="path112" d="M81.8,80.43l8.51,9.18L97.4,77.33Z" transform="translate(-12.92 -19.75)" style="fill:#2dcaff"/></svg>