<svg xmlns="http://www.w3.org/2000/svg" viewBox="0 0 620 140"><path d="M186.67 52.77q-11.14 0-13.28 16.22-1.11 8.4 1.28 12.56a8.34 8.34 0 0 0 7.67 4.16 12.14 12.14 0 0 0 8.23-3.25 11.9 11.9 0 0 0 4.34-7.6l1.44-10.94a9.42 9.42 0 0 0-2.3-7.9 9.29 9.29 0 0 0-7.38-3.25zm-9.92 43.07q-8.92 0-13.66-7.09Q158.35 81.66 160 69q1.67-12.57 7.94-19.46a20.67 20.67 0 0 1 15.8-6.89 18 18 0 0 1 8.18 1.72 18.87 18.87 0 0 1 6.44 5.78.24.24 0 0 0 .19.1.1.1 0 0 0 .11-.1l.1-.71a6.6 6.6 0 0 1 2.35-4 6.45 6.45 0 0 1 4.38-1.73h1.12a4.53 4.53 0 0 1 3.72 1.73 4.9 4.9 0 0 1 1.19 4l-5.64 42.86q-3.6 27.36-31 27.36a66.68 66.68 0 0 1-10.13-.81 5.39 5.39 0 0 1-3.73-2.43 6.33 6.33 0 0 1-.94-4.46 4.53 4.53 0 0 1 2.05-3.24 4.87 4.87 0 0 1 3.83-.61 39.76 39.76 0 0 0 10 1.22q7.5 0 11.47-4 3.97-4 5.12-12.76l.42-3.14c0-.07 0-.1-.09-.1a.33.33 0 0 0-.22.1 22.82 22.82 0 0 1-15.94 6.38zm38.61.51a4.84 4.84 0 0 1-3.82-1.73 4.9 4.9 0 0 1-1.19-4.05l5.42-41.14a6.94 6.94 0 0 1 6.53-5.78h2a4.82 4.82 0 0 1 3.82 1.73 4.89 4.89 0 0 1 1.19 4l-.56 4.26c0 .06 0 .1.09.1s.21 0 .22-.1a26.72 26.72 0 0 1 8.57-6.59 30.44 30.44 0 0 1 10.86-3.25 3.74 3.74 0 0 1 3.51 1.47 4.43 4.43 0 0 1 1 3.65 5.75 5.75 0 0 1-2 3.65 6.68 6.68 0 0 1-3.87 1.72Q229 55.72 226.81 72.53l-2.38 18a6.4 6.4 0 0 1-2.25 4.05 6.34 6.34 0 0 1-4.28 1.73zm69.49-39.62q-2.39-4.26-8.36-4.26a11.92 11.92 0 0 0-9.58 4.26q-3.48 4.14-4.68 13.27-1.2 9.13 1.18 13.38 2.49 4.16 8.47 4.15a11.7 11.7 0 0 0 9.46-4.15q3.6-4.26 4.8-13.38 1.2-9.12-1.29-13.27zm5.52 33.54q-7.64 7.08-19.79 7.09-12.15.01-18-7.09-5.74-7.2-4-20.27 1.74-13.07 9.34-20.17 7.74-7.19 19.9-7.19 12.16 0 17.9 7.19 5.85 7.1 4.13 20.17-1.72 13.07-9.48 20.27zm14.76 6.08a4.82 4.82 0 0 1-3.82-1.73 5.09 5.09 0 0 1-1.09-4.05l5.42-41.14a6.54 6.54 0 0 1 2.15-4 6.34 6.34 0 0 1 4.28-1.73h1.42a4.72 4.72 0 0 1 3.74 1.62 4.93 4.93 0 0 1 1.3 4l-.09.7c0 .07 0 .11.09.11s.2 0 .21-.11q6.94-7.29 14.44-7.29a12.38 12.38 0 0 1 7.07 1.72q2.61 1.72 4.16 6.08c0 .07.06.1.19.1a.33.33 0 0 0 .22-.1q7.41-7.8 15.42-7.8 8.4 0 11.45 4.56 3.05 4.56 1.68 15.71l-3.64 27.66a6.4 6.4 0 0 1-2.25 4.05 6 6 0 0 1-4.18 1.73h-1.73a4.84 4.84 0 0 1-3.82-1.73 4.9 4.9 0 0 1-1.19-4.05l3.37-25.64q1-7.4-.13-9.72-1.13-2.32-5.17-2.34a9 9 0 0 0-5.63 2.35q-3 2.43-3.27 4.86l-4 30.4a6.4 6.4 0 0 1-2.25 4.05 6.34 6.34 0 0 1-4.28 1.73h-1.7a4.84 4.84 0 0 1-3.82-1.73 5.13 5.13 0 0 1-1.09-4.05L332 64.93q1-7.29-.26-9.62-1.26-2.33-5.15-2.44a9 9 0 0 0-5.59 2.44q-3 2.43-3.27 4.86l-4 30.4a6.4 6.4 0 0 1-2.25 4.05 6.34 6.34 0 0 1-4.28 1.73zm73.51 0a4.82 4.82 0 0 1-3.82-1.73 5.09 5.09 0 0 1-1.09-4.05l5.41-41.14a6.6 6.6 0 0 1 2.16-4 6.34 6.34 0 0 1 4.28-1.73H387a4.72 4.72 0 0 1 3.74 1.62 4.93 4.93 0 0 1 1.3 4l-.09.7c0 .07 0 .11.08.11s.21 0 .22-.11q6.94-7.29 14.44-7.29a12.4 12.4 0 0 1 7.07 1.72q2.61 1.72 4.16 6.08c0 .07.06.1.19.1a.33.33 0 0 0 .22-.1q7.41-7.8 15.41-7.8 8.42 0 11.46 4.56 3.04 4.56 1.68 15.71l-3.64 27.66a6.4 6.4 0 0 1-2.24 3.96 6 6 0 0 1-4.18 1.73h-1.73a4.82 4.82 0 0 1-3.82-1.73 4.9 4.9 0 0 1-1.19-4.05l3.37-25.64c.65-4.93.61-8.17-.14-9.72s-2.46-2.34-5.16-2.34a9 9 0 0 0-5.59 2.44q-3 2.43-3.27 4.86l-4 30.4a6.4 6.4 0 0 1-2.29 4.05 6.34 6.34 0 0 1-4.28 1.73H407a4.82 4.82 0 0 1-3.82-1.73 5.13 5.13 0 0 1-1.09-4.05l3.38-25.64q1-7.29-.26-9.62-1.26-2.33-5.15-2.44a9 9 0 0 0-5.59 2.44q-3 2.43-3.27 4.86l-4 30.4a6.4 6.4 0 0 1-2.2 4.05 6.34 6.34 0 0 1-4.28 1.73zM463 97.36q-8.91 0-12.33-4.86-3.42-4.86-1.85-16.72l3.47-26.35a7 7 0 0 1 6.54-5.78h1.62a4.82 4.82 0 0 1 3.82 1.73 4.89 4.89 0 0 1 1.19 4l-3.28 24.93q-.93 7.1.63 9.83 1.56 2.73 6.13 2.73 4.15 0 8.17-3.54 4.02-3.54 4.64-7.6l3.47-26.35a6.41 6.41 0 0 1 2.26-4 6.34 6.34 0 0 1 4.28-1.73h2a4.55 4.55 0 0 1 3.72 1.73 4.93 4.93 0 0 1 1.19 4l-5.42 41.14a6.4 6.4 0 0 1-2.25 4.1 6 6 0 0 1-4.18 1.73h-1.32a5.12 5.12 0 0 1-3.94-1.63 5.56 5.56 0 0 1-1.18-4.15v-.71c0-.07 0-.1-.09-.1a.33.33 0 0 0-.22.1q-7.87 7.5-17.1 7.5zm38.21-1a4.82 4.82 0 0 1-3.82-1.73 4.9 4.9 0 0 1-1.19-4.05l5.41-41.14a6.41 6.41 0 0 1 2.26-4 6.34 6.34 0 0 1 4.28-1.73h1.32a4.65 4.65 0 0 1 3.82 1.73 5 5 0 0 1 1.29 4l-.09.71c0 .07 0 .1.09.1a.31.31 0 0 0 .21-.1q7.89-7.5 17.1-7.5 9.21 0 12.69 5.27 3.57 5.16 2 17.33l-3.34 25.33a6.4 6.4 0 0 1-2.24 4.04 6.34 6.34 0 0 1-4.28 1.73H535a4.84 4.84 0 0 1-3.83-1.73 5.13 5.13 0 0 1-1.17-4.05l3.2-24.32q1-7.61-.66-10.34c-1-1.89-3.24-2.83-6.62-2.83q-4.15 0-8.17 3.54-4.02 3.54-4.55 7.6l-3.47 26.35a6.94 6.94 0 0 1-6.53 5.78zm51.11 0a4.84 4.84 0 0 1-3.83-1.73 4.94 4.94 0 0 1-1.19-4.05l5.42-41.14a6.94 6.94 0 0 1 6.53-5.78h2.64a4.82 4.82 0 0 1 3.82 1.73 4.89 4.89 0 0 1 1.19 4l-5.41 41.14a6.46 6.46 0 0 1-2.26 4.05 6.34 6.34 0 0 1-4.23 1.77zm52.32-39.63q-2.39-4.26-8.36-4.26a11.91 11.91 0 0 0-9.58 4.26Q583.22 60.87 582 70q-1.22 9.13 1.18 13.38 2.49 4.16 8.47 4.15a11.72 11.72 0 0 0 9.47-4.15q3.6-4.26 4.8-13.38 1.2-9.12-1.28-13.27zm5.51 33.54q-7.62 7.08-19.78 7.09-12.16.01-18-7.09-5.73-7.2-4-20.27 1.73-13.07 9.34-20.17 7.74-7.19 19.89-7.19 12.15 0 17.9 7.19 5.87 7.1 4.14 20.17-1.73 13.07-9.49 20.27z" fill="#3f3f3f"/><path d="M552.71,19.54l7.71,17.32,12.29-17.32Z" fill="#2dcaff"/><path d="M159 7.69l-44.36 20 17 28.23L159 8.6zM43.14 32.87L46.12 0H1.35z" fill="#3f3f3f"/><path d="M44.08 72.71l26.12 3-20.58-23.16zm-2.49-28.42L0 11.57l34.28 59.37zm11.26-8.59L101.71 22 97 0H56.09zm46.73-2.8L56.23 45.06l27.63 31.07zm11.52-14.44L151.94 0h-44.81zM95 74.6l29.32-5.82 1.73-3L108.66 37z" fill="#2dcaff"/><path d="M77.31 86.52l-36.46-4.19L74.15 140z" fill="#3f3f3f"/><path d="M87.08 89.56l-2.88 48.66 18.42-31.9zM96 84.53l11.86 12.79 9.88-17.11z" fill="#2dcaff"/></svg>