<svg id="图层_1" data-name="图层 1" xmlns="http://www.w3.org/2000/svg" viewBox="0 0 456.75 107.83"><defs><style>.cls-1{fill:#29abe2;}.cls-2{fill:#4d4d4d;}</style></defs><title>grid</title><path class="cls-1" d="M42,46.4H59.79V87.24c0,7.92-7.93,14.31-17.75,14.31H24.11c-9.82,0-17.75-6.39-17.75-14.31V19.86c0-7.92,7.93-14.31,17.75-14.31H59V19.86H27.56c-1.89,0-3.45,1.25-3.45,2.78V84.47c0,1.52,1.56,2.77,3.45,2.77h11c1.9,0,3.45-1.25,3.45-2.77Z"/><path class="cls-2" d="M88.57,18.51H73.21V6.14H88.57Zm0,83H73.21V30.89H88.57Z"/><path class="cls-2" d="M134.79,43.27H122.26a2.75,2.75,0,0,0-3,2.4v55.88H103.92V43.27c0-6.85,6.86-12.38,15.36-12.38h15.51Z"/><path class="cls-2" d="M177.58,6.14h15.35v95.41H162.07c-8.5,0-15.36-5.65-15.36-12.37V43.27c0-6.85,6.86-12.38,15.36-12.38h15.51Zm0,83V43.27H165.05c-1.64,0-3,1-3,2.4v41.1a2.75,2.75,0,0,0,3,2.41Z"/><path class="cls-2" d="M294.47,30.89l-10.29,70.66H257.94l-8.5-42.42-8.35,42.42H214.85L204.56,30.89h15.51l9.39,59,12.23-59h15.65l12.23,59,9.39-59Z"/><path class="cls-2" d="M349.63,43.27v58.28H318.77c-8.5,0-15.36-5.65-15.36-12.37V68c0-6.85,6.86-12.37,15.36-12.37h15.51v-10c0-1.44-1.34-2.4-3-2.4H310.12V30.89h24.16C342.78,30.89,349.63,36.42,349.63,43.27ZM334.28,68H321.75c-1.64,0-3,1-3,2.41V86.77a2.75,2.75,0,0,0,3,2.41h12.53Z"/><path class="cls-2" d="M395.85,43.27H383.33a2.75,2.75,0,0,0-3,2.4v55.88H365V43.27c0-6.85,6.86-12.38,15.36-12.38h15.5Z"/><path class="cls-2" d="M454,43.27V72.35H423.14V86.89a2.55,2.55,0,0,0,2.68,2.29h24.3v12.37h-27c-8.5,0-15.36-5.65-15.36-12.37V43.27c0-6.85,6.86-12.38,15.36-12.38h15.5C447.14,30.89,454,36.42,454,43.27Zm-15.36,2.16A2.45,2.45,0,0,0,436,43.27H425.82a2.45,2.45,0,0,0-2.68,2.16V60h15.5Z"/></svg>