<svg xmlns="http://www.w3.org/2000/svg" width="122.879" height="79.699"><path fill="#6d6d70" d="M.955 37.326a95 95 0 0 1 9.151-9.625C24.441 14.654 41.462 7.684 59.01 7.334c6.561-.131 13.185.665 19.757 2.416l-5.904 5.904a63.4 63.4 0 0 0-13.714-1.233c-15.811.316-31.215 6.657-44.262 18.533a87 87 0 0 0-6.702 6.82 74.5 74.5 0 0 0 13.452 12.227 73 73 0 0 0 9.296 5.586l-5.262 5.262a80 80 0 0 1-8.12-5.039A82 82 0 0 1 .771 41.96a3.554 3.554 0 0 1 .184-4.634M96.03 0l5.893 5.893-73.804 73.806-5.894-5.895zm1.69 17.609c4.423 2.527 8.767 5.528 12.994 9.014a109 109 0 0 1 11.24 10.735 3.55 3.55 0 0 1 .226 4.507c-4.131 5.834-8.876 10.816-14.069 14.963-12.992 10.371-28.773 15.477-44.759 15.549-6.114.027-9.798-3.141-15.825-4.576l3.545-3.543a70 70 0 0 0 12.252 1.031c14.421-.064 28.653-4.668 40.366-14.02a65.4 65.4 0 0 0 11.028-11.254 100 100 0 0 0-8.508-7.918c-4.455-3.673-9.042-6.759-13.707-9.273zm-36.28.534a21.7 21.7 0 0 1 7.576 1.359l-5.689 5.689a15 15 0 0 0-1.886-.119A14.73 14.73 0 0 0 50.992 29.4a14.73 14.73 0 0 0-4.328 10.45q0 .959.119 1.885l-5.689 5.691a21.7 21.7 0 0 1-1.359-7.576 21.64 21.64 0 0 1 6.358-15.349 21.63 21.63 0 0 1 15.347-6.358m20.673 15.073a21.7 21.7 0 0 1 1.032 6.634A21.64 21.64 0 0 1 61.44 61.555c-2.313 0-4.542-.361-6.633-1.033l5.914-5.914A14.73 14.73 0 0 0 71.889 50.3a14.73 14.73 0 0 0 4.328-10.449q0-.36-.018-.72z"/></svg>