<svg xmlns="http://www.w3.org/2000/svg" width="122.879" height="79.699"><path d="M.955 37.326a94.6 94.6 0 0 1 9.151-9.625C24.441 14.654 41.462 7.684 59.01 7.334c6.561-.131 13.185.665 19.757 2.416l-5.904 5.904c-4.581-.916-9.168-1.324-13.714-1.233-15.811.316-31.215 6.657-44.262 18.533h0c-2.324 2.115-4.562 4.39-6.702 6.82 4.071 4.721 8.6 8.801 13.452 12.227 2.988 2.111 6.097 3.973 9.296 5.586l-5.262 5.262c-2.782-1.504-5.494-3.184-8.12-5.039-6.143-4.338-11.813-9.629-16.78-15.85-1.109-1.397-.999-3.37.184-4.634h0 0zM96.03 0l5.893 5.893-73.804 73.806-5.894-5.895L96.03 0h0zm1.69 17.609c4.423 2.527 8.767 5.528 12.994 9.014 3.877 3.196 7.635 6.773 11.24 10.735a3.55 3.55 0 0 1 .226 4.507c-4.131 5.834-8.876 10.816-14.069 14.963-12.992 10.371-28.773 15.477-44.759 15.549-6.114.027-9.798-3.141-15.825-4.576l3.545-3.543c4.065.705 8.167 1.049 12.252 1.031 14.421-.064 28.653-4.668 40.366-14.02 3.998-3.191 7.706-6.939 11.028-11.254-2.787-2.905-5.627-5.543-8.508-7.918-4.455-3.673-9.042-6.759-13.707-9.273l5.217-5.215h0zm-36.28.534a21.68 21.68 0 0 1 7.576 1.359l-5.689 5.689c-.619-.079-1.248-.119-1.886-.119A14.73 14.73 0 0 0 50.992 29.4c-2.674 2.674-4.328 6.369-4.328 10.45 0 .639.04 1.268.119 1.885l-5.689 5.691c-.879-2.359-1.359-4.912-1.359-7.576a21.64 21.64 0 0 1 6.358-15.349c3.927-3.929 9.353-6.358 15.347-6.358h0zm20.673 15.073a21.7 21.7 0 0 1 1.032 6.634A21.64 21.64 0 0 1 61.44 61.555c-2.313 0-4.542-.361-6.633-1.033l5.914-5.914c.238.012.478.018.719.018 4.081 0 7.775-1.652 10.449-4.326a14.73 14.73 0 0 0 4.328-10.449c0-.241-.006-.48-.018-.72l5.914-5.915h0z"/></svg>