<svg xmlns="http://www.w3.org/2000/svg" viewBox="0 0 122.88 95.21"><path d="M2.48 20.74h4.5v-9.86A2.48 2.48 0 0 1 9.46 8.4h4.41V2.48A2.48 2.48 0 0 1 16.35 0h40.26a2.48 2.48 0 0 1 2.48 2.48V8.4h54.3a2.48 2.48 0 0 1 2.48 2.48v9.86h4.53a2.48 2.48 0 0 1 2.48 2.48c0 .18-.02.36-.05.52l-8.68 63.81c-.28 2.08-1.19 4.01-2.59 5.4-1.38 1.38-3.21 2.24-5.36 2.24H14.7a7.57 7.57 0 0 1-5.42-2.26c-1.41-1.4-2.32-3.35-2.54-5.46l-6.72-64c-.14-1.36.85-2.58 2.21-2.71l.25-.02h0 0 0zM61.44 32c7.44 0 14.18 3.02 19.06 7.89 4.88 4.88 7.89 11.61 7.89 19.05S85.37 73.12 80.5 78c-4.88 4.88-11.61 7.89-19.06 7.89C54 85.9 47.26 82.88 42.39 78c-4.88-4.88-7.89-11.61-7.89-19.06 0-7.44 3.02-14.18 7.89-19.05S54 32 61.44 32h0zm15.72 11.23c-4.02-4.02-9.58-6.51-15.72-6.51s-11.69 2.49-15.71 6.51a22.16 22.16 0 0 0-6.51 15.71c0 6.14 2.49 11.69 6.51 15.72a22.16 22.16 0 0 0 15.71 6.51c6.14 0 11.69-2.49 15.72-6.51 4.02-4.02 6.51-9.58 6.51-15.72a22.2 22.2 0 0 0-6.51-15.71h0zM48.63 56.75h8.12v12.8h9.15v-12.8h8.35l-12.8-12.46-12.82 12.46h0zM9.45 25.71H5.23l6.44 61.27c.1.98.49 1.85 1.1 2.46.5.5 1.16.81 1.93.81h91.5a2.57 2.57 0 0 0 1.87-.79c.62-.62 1.03-1.53 1.17-2.55l8.32-61.2H9.45h0 0zm2.49-12.34v7.36l98.97-1.05v-6.31h-54.3a2.48 2.48 0 0 1-2.48-2.48V4.97h-35.3v5.92a2.48 2.48 0 0 1-2.48 2.48h-4.41 0 0z" fill="#fff"/></svg>
