<svg xmlns="http://www.w3.org/2000/svg"><path d="M2.483 20.74h4.5v-9.86a2.48 2.48 0 0 1 2.48-2.48h4.41V2.48A2.48 2.48 0 0 1 16.353 0h40.26a2.48 2.48 0 0 1 2.48 2.48V8.4h54.3a2.48 2.48 0 0 1 2.48 2.48v9.86h4.53a2.48 2.48 0 0 1 2.48 2.48 2.18 2.18 0 0 1-.06.52l-8.68 63.81c-.28 2.08-1.19 4.01-2.59 5.41-1.38 1.38-3.21 2.24-5.36 2.24h-91.49c-2.16 0-4.03-.87-5.43-2.26-1.41-1.41-2.31-3.35-2.54-5.46l-6.72-64a2.48 2.48 0 0 1 2.21-2.72zm6.98 4.97h-4.23l6.43 61.27c.1.98.5 1.85 1.1 2.46.5.5 1.17.81 1.93.81h91.5c.75 0 1.38-.3 1.87-.79.62-.62 1.03-1.53 1.17-2.55l8.32-61.19H9.463zm2.48-12.34v7.36l98.97-1.05v-6.31h-54.3a2.48 2.48 0 0 1-2.48-2.48V4.97h-35.3v5.92a2.48 2.48 0 0 1-2.48 2.48z" fill="#6d6d70"/><g fill="#fff"><path d="M13.641 89.931c-.698-.317-1.301-1.021-1.621-1.894-.205-.559-.928-7.086-3.476-31.397L5.39 25.886c.035-.035 25.265-.049 56.067-.031l56.003.033-4.145 30.523-4.336 31.201c-.275.974-.944 1.897-1.638 2.26l-.584.305-46.293-.003-46.824-.244zm-1.654-72.907V13.39l2.692-.041 2.692-.041.5-.382c.923-.705.995-1.042.998-4.683l.003-3.211h17.612 17.612v3.25c0 3.665.056 3.924 1.015 4.655l.487.372 27.653.034 27.653.034v3.096 3.096l-4.403.085-93.952 1.007-.563-.002z"/><path d="M25.551 100.301c-.698-.317-1.301-1.021-1.621-1.894-.205-.559-.928-7.086-3.476-31.397L17.3 36.256c.035-.035 25.265-.049 56.067-.031l56.003.033-4.145 30.523-4.336 31.201c-.275.974-.944 1.897-1.638 2.26l-.584.305-46.293-.003-46.824-.244zm-1.654-72.907V23.76l2.692-.041 2.692-.041.5-.382c.923-.705.995-1.042.998-4.683l.003-3.211h17.612 17.612v3.25c0 3.665.056 3.924 1.015 4.655l.487.372 27.653.034 27.653.034v3.096 3.096l-4.403.085-93.952 1.007-.563-.002z"/></g><path d="M14.393 31.11h117.166v8.387H14.393zm2.75 4.97h114.416v3.417H17.143zm4.147 55.394h100.578v11.306H21.29zm4.258-52.418h18.06v7.488h-18.06zm.002 46.252h98.667V100.3H25.55zm-5.434 0h104.102v12.48H20.116zm.146-20.997h105.276v23.933H20.262zm-2.055-3.964h108.947v15.858H18.207zm-1.064-5.286h111.626v10.131H17.143zm0-18.981h112.654v18.981H17.143zm13.544 4.298h3.524v1.615h-3.524zM14.393 31.11h4.5v-9.86a2.48 2.48 0 0 1 2.48-2.48h4.41v-5.92a2.48 2.48 0 0 1 2.48-2.48h40.26a2.48 2.48 0 0 1 2.48 2.48v5.92h54.3a2.48 2.48 0 0 1 2.48 2.48v9.86h4.53a2.48 2.48 0 0 1 2.48 2.48 2.18 2.18 0 0 1-.06.52l-8.68 63.81c-.28 2.08-1.19 4.01-2.59 5.41-1.38 1.38-3.21 2.24-5.36 2.24h-91.49c-2.16 0-4.03-.87-5.43-2.26-1.41-1.41-2.31-3.35-2.54-5.46l-6.72-64a2.48 2.48 0 0 1 2.21-2.72zm6.98 4.97h-4.23l6.43 61.27c.1.98.5 1.85 1.1 2.46.5.5 1.17.81 1.93.81h91.5c.75 0 1.38-.3 1.87-.79.62-.62 1.03-1.53 1.17-2.55l8.32-61.19H21.373zm2.48-12.34v7.36l98.97-1.05v-6.31h-54.3a2.48 2.48 0 0 1-2.48-2.48v-5.92h-35.3v5.92a2.48 2.48 0 0 1-2.48 2.48z" fill="#6d6d70"/></svg>
