<svg xmlns="http://www.w3.org/2000/svg" width="15" height="15" viewBox="0 0 100.32 122.88"><path fill="#6d6d70" d="M76.43 113.78a2.89 2.89 0 1 1 5.78 0v3.76a5.32 5.32 0 0 1-1.56 3.76 5.27 5.27 0 0 1-3.76 1.57H5.34a5.3 5.3 0 0 1-3.76-1.57A5.3 5.3 0 0 1 0 117.54V23.06a5.3 5.3 0 0 1 1.57-3.77l.23-.21a5.3 5.3 0 0 1 3.54-1.35H9a2.89 2.89 0 1 1 0 5.77H5.78v93.6h70.65zM37 85.54a2.65 2.65 0 1 1 0-5.29h25.67a2.65 2.65 0 1 1 0 5.29Zm0-16.21A2.65 2.65 0 0 1 37 64h34.92a2.65 2.65 0 0 1 0 5.3Zm0-16.22a2.65 2.65 0 1 1 0-5.3h45.17a2.65 2.65 0 0 1 0 5.3ZM71 1.05l27.17 28.62a2.9 2.9 0 0 1 2.15 2.8v67.35a5.33 5.33 0 0 1-5.32 5.33H23.45a5.28 5.28 0 0 1-3.76-1.56 5.3 5.3 0 0 1-1.57-3.77V5.34a5.3 5.3 0 0 1 1.57-3.77l.23-.21A5.25 5.25 0 0 1 23.45 0h45.28A2.89 2.89 0 0 1 71 1.05M94.54 36H68.73a2.89 2.89 0 0 1-2.89-2.89V5.78H23.89v93.6h70.65zm-3.83-5.78L71.62 10.11v20.08Z"/></svg>