<svg xmlns="http://www.w3.org/2000/svg" viewBox="0 0 122.88 122.88"><path d="M61.44 9.23l-5.35.25-5.17.77c-1.72.34-3.39.77-5 1.26-1.59.49-3.16 1.07-4.7 1.72l-.1.05h0l-4.67 2.25-4.31 2.6-3.99 2.97-3.68 3.35-.04.04-3.33 3.66-2.97 3.99c-.92 1.36-1.78 2.8-2.59 4.3l-2.26 4.67-.05.11h0l-.07.14c-.63 1.5-1.19 3.04-1.67 4.61-.49 1.59-.9 3.23-1.24 4.93-.35 1.73-.6 3.45-.77 5.17a54.38 54.38 0 0 0-.25 5.35l.25 5.35.77 5.17 1.27 5 1.7 4.66c.04.07.07.14.1.21l2.23 4.6 2.59 4.3 2.98 4 3.26 3.59c.07.06.13.12.19.19l3.59 3.26 3.99 2.97c1.36.92 2.8 1.78 4.3 2.59l4.67 2.26.21.1a48.89 48.89 0 0 0 4.67 1.69c1.58.49 3.23.9 4.92 1.24 1.73.35 3.45.6 5.17.77a54.38 54.38 0 0 0 5.35.25l5.35-.25 5.17-.77 5-1.27a48.44 48.44 0 0 0 4.71-1.73l.09-.04v-.01l4.67-2.25 4.31-2.6 3.99-2.97 3.62-3.29.18-.18 3.25-3.58 2.98-4c.92-1.36 1.78-2.8 2.59-4.3l2.26-4.67.1-.22a48.51 48.51 0 0 0 1.69-4.65c.49-1.59.9-3.23 1.24-4.93.35-1.73.6-3.45.77-5.17a54.38 54.38 0 0 0 .25-5.35l-.25-5.35-.77-5.17-1.27-5a48.44 48.44 0 0 0-1.73-4.71l-.04-.09h0l-2.25-4.67-2.59-4.3-2.97-3.99-3.28-3.61c-.07-.06-.13-.12-.18-.18l-3.59-3.26-3.99-2.97-4.3-2.59-4.67-2.25-.19-.09c-1.52-.64-3.08-1.21-4.68-1.7-1.58-.49-3.23-.9-4.93-1.24-1.73-.35-3.45-.6-5.17-.77l-5.37-.22h0zm1.9 21.94c2.19 0 3.91.63 5.16 1.88 1.24 1.25 1.87 2.96 1.87 5.17 0 2.24-1.07 4.22-3.21 5.97-2.16 1.74-4.66 2.62-7.52 2.62-2.14 0-3.85-.6-5.16-1.8-1.31-1.22-1.96-2.79-1.96-4.75 0-2.47 1.07-4.59 3.19-6.4 2.11-1.8 4.66-2.69 7.63-2.69h0 0zm12.21 60.54H47.33v-4.75h5.3V57.95h-5.3v-3.78h13.19c3.33 0 6.61-.4 9.85-1.22v34.01h5.18v4.75h0 0zM49.12 1.2C51.08.81 53.11.51 55.2.31a62.37 62.37 0 0 1 12.48 0l6.08.89a59.1 59.1 0 0 1 5.82 1.48c1.88.58 3.74 1.26 5.58 2.04l.19.07h0l.06.02 5.38 2.61 5.07 3.07 4.73 3.52a56.17 56.17 0 0 1 4.34 3.95l3.95 4.34 3.52 4.73 3.06 5.06h0 .01l2.61 5.39.06.15a58.58 58.58 0 0 1 2.05 5.6c.61 1.96 1.11 3.92 1.5 5.89.39 1.96.69 3.99.89 6.08l.3 6.24-.31 6.24c-.2 2.09-.5 4.12-.89 6.08a59.1 59.1 0 0 1-1.48 5.82 60.23 60.23 0 0 1-2.05 5.62l-.04.09h0l-.05.11-2.61 5.38-3.07 5.07-3.52 4.73a58.08 58.08 0 0 1-3.95 4.34l-4.35 3.95-4.72 3.51-5.06 3.06-5.39 2.62-.16.06a58.58 58.58 0 0 1-5.6 2.05 57.62 57.62 0 0 1-5.88 1.5c-1.96.39-3.99.69-6.08.89l-6.24.3a65.47 65.47 0 0 1-6.24-.3l-6.08-.89a59.1 59.1 0 0 1-5.82-1.48c-1.89-.58-3.76-1.27-5.61-2.05l-.2-.08h0l-5.38-2.61-5.07-3.07a60.11 60.11 0 0 1-4.72-3.51l-4.35-3.95-3.95-4.34-3.52-4.73-3.06-5.06-2.62-5.4-.06-.15a58.58 58.58 0 0 1-2.05-5.6c-.61-1.96-1.11-3.93-1.5-5.89s-.69-3.99-.89-6.08C.1 65.59 0 63.51 0 61.44a62.37 62.37 0 0 1 .31-6.24c.2-2.09.5-4.12.89-6.08a59.1 59.1 0 0 1 1.48-5.82 59.6 59.6 0 0 1 2.04-5.59l.09-.23h0l2.61-5.38 3.07-5.07 3.52-4.73a58.08 58.08 0 0 1 3.95-4.34l4.34-3.95 4.73-3.52 5.07-3.07.13-.06 5.26-2.55.15-.06a58.58 58.58 0 0 1 5.6-2.05c1.95-.61 3.91-1.11 5.88-1.5h0z" fill="#6d6d70"/></svg>
