<svg xmlns="http://www.w3.org/2000/svg" width="122.879" height="103.609"><path fill-rule="evenodd" d="M10.368 0h102.144a10.4 10.4 0 0 1 10.367 10.367h0c0 5.702-4.664 10.368-10.367 10.368H10.368C4.666 20.735 0 16.07 0 10.368h0C0 4.665 4.666 0 10.368 0h0zm0 82.875h102.144a10.4 10.4 0 0 1 10.367 10.367h0a10.4 10.4 0 0 1-10.367 10.367H10.368C4.666 103.609 0 98.944 0 93.242h0c0-5.702 4.666-10.367 10.368-10.367h0zm0-41.437h102.144a10.4 10.4 0 0 1 10.367 10.367h0c0 5.702-4.664 10.368-10.367 10.368H10.368C4.666 62.173 0 57.507 0 51.805h0c0-5.702 4.666-10.367 10.368-10.367h0z" fill="#6d6d70"/></svg>
