<svg xmlns="http://www.w3.org/2000/svg" width="32" height="32"><path fill="#6d6d70" fill-rule="evenodd" d="M3.919 4.006h24.262a2.47 2.47 0 0 1 2.462 2.462 2.47 2.47 0 0 1-2.462 2.463H3.919a2.47 2.47 0 0 1-2.463-2.462 2.47 2.47 0 0 1 2.463-2.463m0 19.685h24.262a2.47 2.47 0 0 1 2.462 2.462 2.47 2.47 0 0 1-2.462 2.462H3.919a2.47 2.47 0 0 1-2.463-2.462 2.47 2.47 0 0 1 2.463-2.462m0-9.843h24.262a2.47 2.47 0 0 1 2.462 2.462 2.47 2.47 0 0 1-2.462 2.463H3.919a2.47 2.47 0 0 1-2.463-2.463 2.47 2.47 0 0 1 2.463-2.462"/></svg>