<svg xmlns="http://www.w3.org/2000/svg" width="16" height="16" viewBox="0 0 122.88 80.45"><path fill="#6d6d70" d="M61.38 52a18 18 0 0 1-3.12-.26 12.4 12.4 0 0 1-4.44-2.29 13 13 0 0 1-.86-.77 11.9 11.9 0 0 1-3.5-8.5 12.12 12.12 0 0 1 3.5-8.5 11.9 11.9 0 0 1 8.5-3.5 12.12 12.12 0 0 1 8.5 3.5 12.05 12.05 0 0 1 2.35 13.63A11.37 11.37 0 0 1 61.38 52M23.67 72.41a4.86 4.86 0 0 1 1.16 3.43 4.94 4.94 0 0 1-1.56 3.31l-.15.13a4.82 4.82 0 0 1-3.44 1.16 4.9 4.9 0 0 1-3.29-1.55l-.16-.2A69.9 69.9 0 0 1 4 59.74 48.3 48.3 0 0 1 0 40a48.75 48.75 0 0 1 4.64-19.71A70 70 0 0 1 17.58 1.62l.13-.13A5 5 0 0 1 21 .09a4.8 4.8 0 0 1 3.48 1.33l.11.12A4.93 4.93 0 0 1 26 4.82a4.78 4.78 0 0 1-1.33 3.47l-.07.08a61.6 61.6 0 0 0-11 15.78 38.9 38.9 0 0 0-3.85 16A39.5 39.5 0 0 0 13 56.25 60.4 60.4 0 0 0 23.25 72a1.5 1.5 0 0 1 .29.23l.13.14zm18.26-14.65a4.87 4.87 0 0 1 .93 3.39 4.75 4.75 0 0 1-1.75 3.24l-.19.15a4.9 4.9 0 0 1-3.39.93 4.75 4.75 0 0 1-3.25-1.75l-.09-.11a42.8 42.8 0 0 1-6.71-11.35 33.7 33.7 0 0 1-2.35-12.13 32.6 32.6 0 0 1 2.25-12 42.1 42.1 0 0 1 6.74-11.36 4.85 4.85 0 0 1 7.56 6.08v.05a32.2 32.2 0 0 0-5.1 8.51 22.77 22.77 0 0 0 0 17.41 33.8 33.8 0 0 0 5.2 8.72l.17.25zm64.59 21.1a4.93 4.93 0 0 1-3.3 1.53 4.7 4.7 0 0 1-3.5-1.23 4.85 4.85 0 0 1-1.62-3.35 4.77 4.77 0 0 1 1.23-3.47l.06-.07a60 60 0 0 0 10.46-16A39.5 39.5 0 0 0 113.18 40a38.9 38.9 0 0 0-3.86-16A60.9 60.9 0 0 0 98.25 8.24l-.12-.13a4.8 4.8 0 0 1-1.24-3.38 5 5 0 0 1 1.49-3.37l.13-.12A4.8 4.8 0 0 1 101.89 0a5 5 0 0 1 3.37 1.49l.12.12a70.6 70.6 0 0 1 12.87 18.59 48.8 48.8 0 0 1 4.62 19.68 48.7 48.7 0 0 1-4 19.81 69.4 69.4 0 0 1-12 18.68 2 2 0 0 1-.34.47zM88.35 64.05a4.85 4.85 0 0 1-8.28-2.89 4.84 4.84 0 0 1 1.05-3.56v-.05a33 33 0 0 0 5.17-8.63 23.13 23.13 0 0 0 0-17.48v-.08a31.9 31.9 0 0 0-5.1-8.44l-.15-.18a4.9 4.9 0 0 1-.92-3.38 4.7 4.7 0 0 1 1.75-3.24L82 16a4.9 4.9 0 0 1 3.48-1 4.8 4.8 0 0 1 3.25 1.76l.07.09a41.6 41.6 0 0 1 6.69 11.3 32.5 32.5 0 0 1 2.26 12 33.6 33.6 0 0 1-2.35 12.1 43.4 43.4 0 0 1-6.77 11.45 2.5 2.5 0 0 1-.28.28z"/></svg>