<svg xmlns="http://www.w3.org/2000/svg" width="16" height="16" viewBox="0 0 16 16">
 <path style="fill:#6d6d70"
       d="M 6,1 A 2.5,2.5 0 0 0 3.5,3.5 2.5,2.5 0 0 0 6,6 2.5,2.5 0 0 0 6.5449219,5.9375 C 6.5251155,5.7929386 6.5,5.6501903 6.5,5.5 6.5,4.206819 7.2237278,3.082407 8.2773438,2.4765625 A 2.5,2.5 0 0 0 6,1 Z m 0,5 a 4,4 0 0 0 -4,4 4,2 0 0 0 3.0039062,1.935547 C 5.0281511,10.174896 6.0215078,8.6933243 7.4277344,7.8203125 6.9833995,7.3280687 6.6696134,6.7187289 6.5546875,6.0429688 A 4,4 0 0 0 6,6 Z M 9.8710938,9.013672 C 8.2873309,9.080835 7.0405657,10.340985 7.0058594,11.933594 A 4,2 0 0 0 10,10 4,4 0 0 0 9.8710938,9.013672 Z"
       />
 <path style="fill:#6d6d70"
       d="M 10,3 A 2.5,2.5 0 0 0 7.5,5.5 2.5,2.5 0 0 0 10,8 2.5,2.5 0 0 0 12.5,5.5 2.5,2.5 0 0 0 10,3 Z m 0,5 a 4,4 0 0 0 -4,4 4,2 0 0 0 4,2 4,2 0 0 0 4,-2 4,4 0 0 0 -4,-4 z"
       />
</svg>
