<svg xmlns="http://www.w3.org/2000/svg" width="16" height="16" viewBox="0 0 16 16">
  <path
     style="fill:#6d6d70"
     d="M 12.5 1 A 2.5 2.5 0 0 0 10 3.5 A 2.5 2.5 0 0 0 12.5 6 A 2.5 2.5 0 0 0 15 3.5 A 2.5 2.5 0 0 0 12.5 1 z M 3.5 5.5 A 2.5 2.5 0 0 0 1 8 A 2.5 2.5 0 0 0 3.5 10.5 A 2.5 2.5 0 0 0 6 8 A 2.5 2.5 0 0 0 3.5 5.5 z M 12.5 10 A 2.5 2.5 0 0 0 10 12.5 A 2.5 2.5 0 0 0 12.5 15 A 2.5 2.5 0 0 0 15 12.5 A 2.5 2.5 0 0 0 12.5 10 z "
     />
  <path
     style="fill:#19b5f1"
     d="M 10.003906,3.6289062 5.1015625,6.0800781 c -0.00434,-0.00362 -0.00931,-0.00618 -0.013672,-0.00977 C 5.6650278,6.5449111 5.9996198,7.2527845 6,8 5.9998066,7.9570048 5.9985041,7.9140217 5.9960938,7.8710938 L 10.898438,5.4199219 c -0.004,-0.00329 -0.0066,-0.00774 -0.0098,-0.011719 l -0.0059,-0.00586 c -0.518245,-0.4411602 -0.83423,-1.0745402 -0.875,-1.7539063 -1.22e-4,-0.00206 -0.0015,-0.00387 -0.002,-0.00586 -0.0011,-0.00447 -0.0017,-0.00903 -0.002,-0.013672 z m -4.0078122,4.5 C 5.9604073,8.82445 5.6361964,9.4735797 5.1015625,9.9199219 l 4.9023435,2.4511721 c 0.03569,-0.695544 0.359898,-1.344674 0.894532,-1.791016 z"
     />
</svg>
