<svg xmlns="http://www.w3.org/2000/svg" width="16" height="16" viewBox="0 0 16 16">
 <path style="fill:#6d6d70"
       d="M 12 0 L 12 2 L 10 2 L 10 4 L 12 4 L 12 6 L 14 6 L 14 4 L 16 4 L 16 2 L 14 2 L 14 0 L 12 0 z M 1 2 C 0.446 2 0 2.446 0 3 L 0 13 C 0 13.554 0.446 14 1 14 L 15 14 C 15.554 14 16 13.554 16 13 L 16 7 L 14 7 L 14 12 L 2 12 L 2 5.1523438 L 7.4003906 9.3007812 C 7.755798 9.5670244 8.244202 9.5670242 8.5996094 9.3007812 L 11.644531 7 L 11 7 L 11 5 L 8 7.25 L 3.6679688 4 L 9 4 L 9 2 L 1 2 z "
       />
</svg>
