<svg xmlns="http://www.w3.org/2000/svg" width="16" height="16"><path d="M3.5 2a2.5 2.5 0 1 0 0 5c.541 0 1.068-.178 1.5-.5v.004a.5.5 0 1 0 1 0V2.5a.5.5 0 1 0-1 0h0c-.432-.323-.959-.5-1.5-.5zm0 1a1.5 1.5 0 1 1 0 3 1.5 1.5 0 1 1 0-3z" fill="#19b5f1"/><path d="M5.5 8.994A.5.5 0 0 0 5.426 9H1.5a.5.5 0 1 0 0 1h2.961l-3.346 4.184A.5.5 0 0 0 1.6 15h3.9a.5.5 0 1 0 0-1H2.541l3.35-4.187A.5.5 0 0 0 5.5 9zM11.504 2a.5.5 0 0 0-.5.5v10.795L8.857 11.15a.5.5 0 1 0-.707.707l3 2.996a.5.5 0 0 0 .34.146h.01a.5.5 0 0 0 .357-.146l3-2.996a.5.5 0 0 0-.707-.707l-2.146 2.145V2.5a.5.5 0 0 0-.5-.5z" fill="#6d6d70"/></svg>