<svg xmlns="http://www.w3.org/2000/svg" width="16" height="16"><path fill="#6d6d70" d="M3.68 1a.68.68 0 0 0-.68.68V2H2a1 1 0 0 0-1 1v11a1 1 0 0 0 1 1h4v-2H3V5h10v1h2V3a1 1 0 0 0-1-1h-1v-.32a.68.68 0 0 0-.68-.68h-1.64a.68.68 0 0 0-.68.68V2H6v-.32A.68.68 0 0 0 5.32 1zM5 6a1 1 0 1 0 0 2 1 1 0 1 0 0-2zm0 3a1 1 0 1 0 0 2 1 1 0 1 0 0-2z"/><path fill="#19b5f1" d="M10.41 6.839V8.46c-.558.044-2.313-.115-2.834.143-.489.292-.628.914-.559 1.444l.027 5.043c.116.592.748 1.005 1.337.892l6.691-.013c.662-.106 1.019-.853.91-1.471-.028-.598.096-2.109-.116-2.684-.238-.493-.824-.718-1.346-.637h-.777v1.681h.559V14.3H8.699v-4.159h1.711v1.62L13.152 9.3z"/></svg>