<svg xmlns="http://www.w3.org/2000/svg" width="16" height="16" viewBox="0 0 16 16">
 <path style="fill:#6d6d70"
       d="M 4 1 L 4 3 L 12 3 L 12 1 L 4 1 z M 2 4 C 1.5 4 1 4.5 1 5 L 1 10 C 1 10.5 1.5 11 2 11 L 3 11 L 3 9 L 13 9 L 13 11 L 14 11 C 14.5 11 15 10.5 15 10 L 15 5 C 15 4.5 14.5 4 14 4 L 2 4 z M 11.5 5 L 12.5 5 C 12.777 5 13 5.223 13 5.5 C 13 5.777 12.777 6 12.5 6 L 11.5 6 C 11.223 6 11 5.777 11 5.5 C 11 5.223 11.223 5 11.5 5 z M 4 10 L 4 15 L 12 15 L 12 10 L 4 10 z M 5 11 L 11 11 L 11 14 L 5 14 L 5 11 z "
       />
</svg>
