<svg xmlns="http://www.w3.org/2000/svg" width="16" height="16" viewBox="0 0 16 16">
 <path style="fill:#19b5f1"
       d="M 1 5 L 1 7.5859375 L 1 8.4140625 L 1 11 L 2 11 L 2 9.4140625 L 2.7070312 8.7070312 L 6.4140625 5 L 3.5859375 5 L 2 6.5859375 L 2 5 L 1 5 z M 9.5859375 5 L 3.5859375 11 L 6.4140625 11 L 12.414062 5 L 9.5859375 5 z M 14 5 L 14 6.5859375 L 13.292969 7.2929688 L 9.5859375 11 L 12.414062 11 L 14 9.4140625 L 14 11 L 15 11 L 15 8.4140625 L 15 7.5859375 L 15 5 L 14 5 z "
       />
 <path style="fill:#9c1662"
       d="m 1,10 0,4 c 0,0.554 0.446,1 1,1 l 12,0 c 0.554,0 1,-0.446 1,-1 l 0,-4 z"
       />
 <path style="fill:#6d6d70"
       d="M 2 1 C 1.446 1 1 1.446 1 2 L 1 5 L 1 6 L 2 6 L 14 6 L 15 6 L 15 5 L 15 2 C 15 1.446 14.554 1 14 1 L 2 1 z M 2 2 L 14 2 L 14 5 L 2 5 L 2 2 z "
       />
</svg>

