<svg xmlns="http://www.w3.org/2000/svg" width="16" height="16"><path fill="#6d6d70" d="M8 .004a2 2 0 0 0-2 2H2c-1 0-1 1-1 1v11c0 1 1 1 1 1h12s1 0 1-1v-11c0-1-1-1-1-1h-4c0-.138-.005-.276-.031-.406A2.01 2.01 0 0 0 8 .004zm0 1c.414 0 .754.266.906.625A.94.94 0 0 1 9 2.004a1 1 0 1 1-2 0 1 1 0 0 1 1-1zm-5 3h2v1h6v-1h2v9H3v-9z"/><path fill="#19b5f1" d="M4.572 6.023c-.317 0-.572.223-.572.5v5c0 .277.256.5.572.5h6.855c.317 0 .572-.223.572-.5v-5c0-.277-.256-.5-.572-.5H4.572zm.965 1.008L8 8.648l2.465-1.617.709.785-2.832 1.857a.636.636 0 0 1-.684 0l-2.68-1.758-.152-.1.711-.785z"/></svg>