<svg xmlns="http://www.w3.org/2000/svg" width="16" height="16" viewBox="0 0 16 16">
 <path style="fill:#6d6d70"
       d="M 1,3 C 0.446,3 0,3.446 0,4 l 0,10 c 0,0.554 0.446,1 1,1 l 12,0 c 0.554,0 1,-0.446 1,-1 l 0,-1 -2,0 0,0 -10,0 0,-6 4.4003906,3.300781 c 0.3554074,0.266243 0.8438114,0.266243 1.1992188,0 L 8,10 8,7.5 7,8.25 2.6679688,5 8,5 8,3 Z"
       />
 <path style="fill:#6d6d70"
       d="M 13.5,0 C 12.119294,0 11.000008,1.1192857 11,2.5 l 0,6.035156 0.002,0 C 11.021037,9.349063 11.685869,9.999164 12.5,10 13.328427,10 14,9.328427 14,8.5 L 14,3 13,3 13,8.5 C 13,8.776142 12.776142,9 12.5,9 12.223858,9 12,8.776142 12,8.5 l 0,-6 C 12,1.6715729 12.671573,1 13.5,1 14.328427,1 15,1.6715729 15,2.5 l 0,6 C 15,9.880712 13.880712,11 12.5,11 11.119288,11 10,9.880712 10,8.5 L 10,2 9,2 9,8.5 c 0,1.933 1.567,3.500008 3.5,3.5 1.933,8e-6 3.500008,-1.567 3.5,-3.5 l 0,-6.0351562 -0.002,0 C 15.978872,1.0986385 14.866332,9.322e-4 13.5,0 Z"
       />
</svg>
