<svg xmlns="http://www.w3.org/2000/svg" width="16" height="16" viewBox="0 0 16 16">
 <path style="fill:#6d6d70"
       d="M 1 2 C 0.446 2 0 2.446 0 3 L 0 13 C 0 13.554 0.446 14 1 14 L 3 14 L 3 13 L 4 13 L 4 12 L 2 12 L 2 5.1523438 L 5 7.4570312 L 5 7 L 6 7 L 6 6 L 5 6 L 5 5 L 3.6679688 4 L 7 4 L 7 3 L 8 3 L 8 2 L 1 2 z M 8 3 L 8 4 L 9 4 L 9 3 L 8 3 z M 9 3 L 10 3 L 10 2 L 9 2 L 9 3 z M 10 3 L 10 4 L 11 4 L 11 3 L 10 3 z M 11 3 L 12 3 L 12 2 L 11 2 L 11 3 z M 12 3 L 12 4 L 12.332031 4 L 13 4 L 13 3 L 12 3 z M 13 3 L 14 3 L 14 2 L 13 2 L 13 3 z M 13 4 L 13 5 L 14 5 L 14 4 L 13 4 z M 13 5 L 12 5 L 12 6 L 12.96875 6 L 13 5.9765625 L 13 5 z M 12 6 L 11 6 L 11 7 L 11.644531 7 L 12 6.7324219 L 12 6 z M 11 7 L 10 7 L 10 8 L 10.320312 8 L 11 7.4863281 L 11 7 z M 10 8 L 9 8 L 9 8.9980469 L 10 8.2421875 L 10 8 z M 9 8 L 9 7 L 8.3339844 7 L 8 7.25 L 8 8 L 9 8 z M 8 8 L 7 8 L 7 8.9921875 L 7.0097656 9 L 8 9 L 8 8 z M 8 9 L 8 9.5 C 8.2109528 9.5 8.4219057 9.4339028 8.5996094 9.3007812 L 8.9980469 9 L 8 9 z M 7 8 L 7 7 L 6 7 L 6 8 L 7 8 z M 6 8 L 5.7070312 8 L 6 8.2246094 L 6 8 z M 7 7 L 7.6660156 7 L 7 6.5 L 7 7 z M 9 7 L 10 7 L 10 6 L 9.6660156 6 L 9 6.5 L 9 7 z M 10 6 L 11 6 L 11 5 L 10 5.75 L 10 6 z M 11 5 L 12 5 L 12 4.25 L 11 5 z M 6 6 L 6.3339844 6 L 6 5.75 L 6 6 z M 4 13 L 4 14 L 5 14 L 5 13 L 4 13 z M 5 13 L 6 13 L 6 12 L 5 12 L 5 13 z M 6 13 L 6 14 L 7 14 L 7 13 L 6 13 z M 7 13 L 8 13 L 8 12 L 7 12 L 7 13 z M 8 13 L 8 14 L 9 14 L 9 13 L 8 13 z M 9 13 L 10 13 L 10 12 L 9 12 L 9 13 z M 10 13 L 10 14 L 11 14 L 11 13 L 10 13 z "
       />
 <path style="fill:#fcc907"
       d="m 12,7 0,6 2,0 0,-6 z m 1,7 c -0.5523,0 -1,0.448 -1,1 0,0.552 0.4477,1 1,1 0.5523,0 1,-0.448 1,-1 0,-0.552 -0.4477,-1 -1,-1 z"
       />
</svg>

