<svg xmlns="http://www.w3.org/2000/svg" width="16" height="16" viewBox="0 0 16 16">
  <path
     style="fill:#6d6d70"
     d="M 12.5 0 A 3.5 3.5 0 0 0 9 3.5 A 3.5 3.5 0 0 0 12.5 7 A 3.5 3.5 0 0 0 16 3.5 A 3.5 3.5 0 0 0 12.5 0 z M 12.5 1 A 2.5 2.5 0 0 1 15 3.5 A 2.5 2.5 0 0 1 12.5 6 A 2.5 2.5 0 0 1 10 3.5 A 2.5 2.5 0 0 1 12.5 1 z M 4 2 L 4 4 L 1.9316406 4 C 0.86184065 4 -8.108886e-06 4.9391186 0 6.1054688 L 0 12.894531 C 8.1085372e-06 14.060831 0.86189064 15 1.9316406 15 L 14.068359 15 C 15.138159 15 16 14.060881 16 12.894531 L 16 10.105469 C 16 8.9391682 15.136437 8.0597899 14.068359 8 L 12 8 L 12 10 L 13.998047 10 C 13.996047 10.009 14 10.0263 14 10.105469 L 14 12.894531 C 14 12.973631 13.996047 12.991131 13.998047 13 L 2.0039062 13 C 2.0049063 12.991 2 12.9737 2 12.894531 L 2 6.1054688 C 1.9999994 6.0262688 2.0049062 6.0088698 2.0039062 6 L 4 6 L 4 8 L 8 5 L 4 2 z M 12 2 L 12 4 L 13 4 L 14 4 L 14 3 L 13 3 L 13 2 L 12 2 z "
     />
</svg>
