<svg xmlns="http://www.w3.org/2000/svg" width="16" height="16" viewBox="0 0 16 16">
 <path style="fill:#6d6d70" d="m3.6797 1c-.3771 0-.6797.3026-.6797.6797v.3203h-1c-.5540 0-1 .4460-1 1v11c0 .554.446 1 1 1h4v-2h-3v-8h10v1h2v-3c0-.554-.446-1-1-1h-1v-.3203c0-.3771-.303-.6797-.680-.6797h-1.64c-.377 0-.680.3026-.680.6797v.3203h-4v-.3203c0-.3771-.3026-.6797-.6797-.6797zm1.3203 5c-.554 0-1 .446-1 1s.446 1 1 1 1-.446 1-1-.446-1-1-1zm0 3c-.554 0-1 .446-1 1s.446 1 1 1 1-.446 1-1-.446-1-1-1z"/>
 <path style="fill:#19b5f1" d="m10.41 6.839v1.6211c-.5578.0439-2.3128-.1146-2.8344.1428-0.489.29168-.62787.91419-.55913 1.4438.01262 1.2287-.03351 3.816.02655 5.0429.11582.59185.74767 1.0051 1.3368.89154 2.2302-.0076 4.4605.01764 6.6906-.01316.66183-.10588 1.0194-.85312.91010-1.4707-.0278-.59850.09577-2.1094-.11576-2.6835-.23781-.4929-.82420-.71804-1.3458-.63712h-.77742v1.6813h.55945c.0018.56050.0019.88136 0 1.4419h-5.6018c-.0037-1.3078-.0037-2.8507 0-4.1586l1.7108.0002v1.6205l2.742-2.461z"/>
</svg>
