<svg xmlns="http://www.w3.org/2000/svg" width="16" height="16"><path fill="#6d6d70" d="M2 1a1 1 0 0 0-1 1 1 1 0 0 0 1 1h1a1 1 0 0 0 1-1 1 1 0 0 0-1-1H2zm5 0a1 1 0 0 0-1 1 1 1 0 0 0 1 1h1a1 1 0 0 0 1-1 1 1 0 0 0-1-1H7zm5 0a1 1 0 0 0-1 1 1 1 0 0 0 1 1h1a1 1 0 0 0 1-1 1 1 0 0 0-1-1h-1zM2 5a1 1 0 1 0 0 2h1a1 1 0 1 0 0-2H2zm5 0a1 1 0 1 0 0 2h1a1 1 0 1 0 0-2H7zm5 0a1 1 0 1 0 0 2h1a1 1 0 1 0 0-2h-1zM2 9a1 1 0 1 0 0 2h1a1 1 0 1 0 0-2H2zm5 0a1 1 0 1 0 0 2h1a1 1 0 1 0 0-2H7zm5 0a1 1 0 1 0 0 2h1a1 1 0 1 0 0-2h-1zM2 13a1 1 0 1 0 0 2h1a1 1 0 1 0 0-2H2zm5 0a1 1 0 1 0 0 2h1a1 1 0 1 0 0-2H7zm5 0a1 1 0 1 0 0 2h1a1 1 0 1 0 0-2h-1z"/></svg>