<svg xmlns="http://www.w3.org/2000/svg" width="16" height="16"><path fill="#6d6d70" d="M9.5 2a.5.5 0 0 0-.5.223L1 14.217c-.37.613.55 1.168.92.555L9.916 2.777a.5.5 0 0 0-.426-.783zM5.689 5.951a4.82 4.82 0 0 0-.803.092c-1.029.21-1.805.721-2.318 1.398s-.771 1.499-.879 2.344c-.109.854-.07 1.741.039 2.568l.92-1.379c.725-2.692.899-2.732 2.176-3.264L5.99 5.963l-.301-.012zm2.453.387L6.615 8.631c.19.185.308.367.326.566.025.278-.078.641-.324 1.053-.493.824-1.525 1.77-2.568 2.51-.443.315-.137 1.01.395.896 3.903-.844 5.475-1.017 6.104-.984 1.235.174 2.295.719 3.535 2.604.273.415.919.222.918-.275v-4.449a.5.5 0 0 0-.182-.387s-2.023-.556-3.98-1.679c-.992-.569-1.564-1.789-2.696-2.147zM3.3 13.602l-.834 1.25c.273.11.633-.02.688-.381l.146-.869z"/></svg>