<svg xmlns="http://www.w3.org/2000/svg" width="16" height="16" viewBox="0 0 16 16">
 <path style="fill:#6d6d70"
       d="M 5.21875 1 L 4.90625 1.28125 L 1.28125 4.90625 L 1 5.21875 L 1 10.78125 L 1.28125 11.09375 L 4.90625 14.71875 L 5.21875 15 L 10.78125 15 L 11.09375 14.71875 L 14.71875 11.09375 L 15 10.78125 L 15 5.21875 L 14.71875 4.90625 L 11.09375 1.28125 L 10.78125 1 L 5.21875 1 z M 7 4 L 9 4 L 9 7 L 8.75 9 L 7.28125 9 L 7 7 L 7 4 z M 8 9.75 C 8.69036 9.75 9.25 10.30964 9.25 11 C 9.25 11.69036 8.69036 12.25 8 12.25 C 7.30964 12.25 6.75 11.69036 6.75 11 C 6.75 10.30964 7.30964 9.75 8 9.75 z "
       />
</svg>
