<svg xmlns="http://www.w3.org/2000/svg" width="16" height="16" viewBox="0 0 16 16">
 <path style="fill:#19b5f1" 
       d="M 7.5859375 1 L 7.2929688 1.2929688 L 1.2929688 7.2929688 L 1 7.5859375 L 1 8.4140625 L 2 9.4140625 L 2.7070312 8.7070312 L 8.7070312 2.7070312 L 9.4140625 2 L 8.4140625 1 L 7.5859375 1 z M 13.292969 1.2929688 L 1.2929688 13.292969 L 2.7070312 14.707031 L 14.707031 2.7070312 L 13.292969 1.2929688 z M 14 6.5859375 L 13.292969 7.2929688 L 7.2929688 13.292969 L 6.5859375 14 L 7.5859375 15 L 8.4140625 15 L 8.7070312 14.707031 L 14.707031 8.7070312 L 15 8.4140625 L 15 7.5859375 L 14 6.5859375 z "
       />
 <path style="fill:#19b5f1" 
       d="M 2 1 C 1.446 1 1 1.446 1 2 L 1 14 C 1 14.554 1.446 15 2 15 L 14 15 C 14.554 15 15 14.554 15 14 L 15 2 C 15 1.446 14.554 1 14 1 L 2 1 z M 2 2 L 14 2 L 14 14 L 2 14 L 2 2 z "
       />
</svg>
 
