<svg xmlns="http://www.w3.org/2000/svg" width="16" height="16" viewBox="0 0 16 16">
 <path style="fill:#6d6d70"
       d="M 2 1 C 1.446 1 1 1.446 1 2 L 1 14 C 1 14.554 1.446 15 2 15 L 14 15 C 14.554 15 15 14.554 15 14 L 15 2 C 15 1.446 14.554 1 14 1 L 2 1 z M 2 2 L 14 2 L 14 14 L 2 14 L 2 2 z "
       />
 <path style="fill:#6d6d70"
       d="M 11.712891,4.287109 6.4082031,9.5917965 4.2871094,7.4687496 3.2265625,8.5312496 5.3476562,10.652344 6.4082031,11.712891 12.773438,5.3476558 11.712891,4.287109 Z"
       />
</svg>
