<svg xmlns="http://www.w3.org/2000/svg" width="16" height="16" viewBox="0 0 16 16">
 <path style="fill:#6d6d70"
       d="m 7.9740598,1 c -0.116469,0.00647 -0.2270126,0.053448 -0.3125,0.1328125 l -6.5,6 C 0.82738604,7.4418298 1.0462511,8.0003133 1.5014036,8 l 1.5,0 0,1 L 3,14 c -1.555e-4,0.554 0.446,1 1,1 l 1,0 6,0 0.337891,0 L 12,15 c 0.554,0 0.999845,-0.446 1,-1 l 0.0014,-5 0,-1 1.5,0 c 0.455153,3.135e-4 0.674018,-0.5581701 0.339844,-0.8671875 l -6.5000006,-6 C 8.2419083,1.0406094 8.1093968,0.9926797 7.9740598,1 Z M 6.0014036,10 10.001404,10 10,14 6,14 Z"
       />
</svg>
