<svg xmlns="http://www.w3.org/2000/svg" width="16" height="16"><path fill="#6d6d70" d="M1 2a1 1 0 0 0-1 1v10a1 1 0 0 0 1 1h6.051a1.41 1.41 0 0 1 .012-.762c.065-.226.15-.39.232-.547L7.65 12H2V5.152L7.4 9.3a.988.988 0 0 0 .729.18 5.325 5.325 0 0 1 .67-1.711A3.762 3.762 0 0 1 12 6c.292 0 .569.04.836.1.479.127.842.289 1.164.477.498.313.909.727 1.201 1.193.488.78.719 1.668.799 2.543V3a1 1 0 0 0-1-1H1zm2.668 2h8.664L8 7.25 3.668 4zM12 7c-2.227 0-3.037 2.122-3.037 4.031C8.963 12.743 6.94 14 8.762 14h6.478c1.822 0-.203-1.257-.203-2.969C15.037 9.122 14.227 7 12 7zm1 7a1 1 0 1 0 0 2 1 1 0 1 0 0-2z"/></svg>