<svg xmlns="http://www.w3.org/2000/svg" width="24" height="24" fill="none"><path fill="#212121" d="m19.414 8.414-5.829-5.828-.049-.04-.036-.03a2 2 0 0 0-.219-.18 1 1 0 0 0-.08-.044l-.048-.024-.05-.029c-.054-.031-.109-.063-.166-.087a2 2 0 0 0-.624-.138l-.059-.007L12.172 2H6a2 2 0 0 0-2 2v16a2 2 0 0 0 2 2h6.81a6.5 6.5 0 0 1-1.078-1.5H6a.5.5 0 0 1-.5-.5V4a.5.5 0 0 1 .5-.5h6V8a2 2 0 0 0 2 2h4.5v1.076a6.5 6.5 0 0 1 1.5.422v-1.67a2 2 0 0 0-.586-1.414M13.5 4.621 17.378 8.5H14a.5.5 0 0 1-.5-.5zM10.75 17.5H11q.002.776.174 1.5h-.424a.75.75 0 0 1 0-1.5m.424-1.5c.125-.528.314-1.03.558-1.5h-.982a.75.75 0 0 0 0 1.5zm1.636-3a6.5 6.5 0 0 1 2.186-1.5H10.75a.75.75 0 0 0 0 1.5zm-5.06-1.5a.75.75 0 1 0 0 1.5.75.75 0 0 0 0-1.5M7 15.25a.75.75 0 1 1 1.5 0 .75.75 0 0 1-1.5 0m0 3a.75.75 0 1 1 1.5 0 .75.75 0 0 1-1.5 0m16-.75a5.5 5.5 0 1 0-11 0 5.5 5.5 0 0 0 11 0m-5.78.418a.5.5 0 0 1-.219-.489L17 13.5a.5.5 0 1 1 1 0l.001 3.5h2.496a.5.5 0 0 1 0 1H17.56a.5.5 0 0 1-.34-.082"/></svg>