<svg xmlns="http://www.w3.org/2000/svg" width="16" height="16" viewBox="0 0 16 16">
 <path style="fill:#6d6d70"
       d="M 7,1 C 6,1 6,2 6,2 L 2,2 C 2,2 1,2 1,3 L 1,4 14,4 14,3 C 14,2 13,2 13,2 L 9,2 C 9,2 9,1 8,1 Z m -5,4 0,9 c 0,0.5 0.5,1 1,1 l 7,0 0,-1 -6,0 0,-8 9,0 0,-1 z"
       />
 <path style="fill:#19b5f1"
       d="m 11.5,7.0253906 c -0.27231,0 -0.5,0.2276379 -0.490234,0.5 L 11,10 5.5,10 c -0.2761309,2.8e-5 -0.4999724,0.223869 -0.5,0.5 l 0,2 c 2.76e-5,0.276131 0.2238691,0.5 0.5,0.5 l 5.5,0 0,2.474609 c 0.0019,0.44306 0.536443,0.664973 0.851562,0.353516 l 4,-3.972656 c 0.197802,-0.195704 0.197802,-0.515234 0,-0.710938 l -4,-3.972656 C 11.7559,7.0761691 11.625535,7.0233184 11.490234,7.0253906 Z"
       />
</svg>

