<svg xmlns="http://www.w3.org/2000/svg" width="16" height="16"><path fill="#6d6d70" d="M3.5 10a2.5 2.5 0 1 0 0 5 2.52 2.52 0 0 0 1.5-.5v.004a.5.5 0 1 0 1 0v-4a.5.5 0 1 0-1 0v.002a2.51 2.51 0 0 0-1.5-.502zm0 1a1.5 1.5 0 1 1 0 3 1.5 1.5 0 1 1 0-3z"/><path fill="#19b5f1" d="M5.5 2a.5.5 0 0 0-.059 0H1.516a.5.5 0 1 0 0 1h2.961L1.131 7.184A.5.5 0 0 0 1.615 8h3.9a.5.5 0 1 0 0-1h-3l3.35-4.188A.5.5 0 0 0 6 2.684.5.5 0 0 0 5.5 2z"/><path fill="#6d6d70" d="M11.5 15a.5.5 0 0 1-.178-.037.5.5 0 0 1-.172-.109l-2.999-2.996a.501.5 0 1 1 .708-.707l2.145 2.145V2.5a.5.5 0 1 1 1.001 0v10.795l2.145-2.145a.5.5 0 0 1 .708.707l-2.999 2.996a.5.5 0 0 1-.352.146.5.5 0 0 1-.008 0 .5.5 0 0 1-.002 0z"/></svg>