<svg xmlns="http://www.w3.org/2000/svg" width="16" height="16" viewBox="0 0 16 16">
 <path style="fill:#6d6d70"
       d="M 12 0 L 12 2 L 10.033203 2 C 10.014423 2 10 2.446 10 3 C 10 3.554 10.014423 4 10.033203 4 L 12 4 L 12 6 L 14 6 L 14 4 L 15.966797 4 C 15.985577 4 16 3.554 16 3 C 16 2.446 15.985577 2 15.966797 2 L 14 2 L 14 0 L 12 0 z M 7 0.00390625 C 5.8954 0.00390625 5 0.8993365 5 2.0039062 L 2 2.0039062 C 1 2.0039062 1 3.0039062 1 3.0039062 L 1 14.003906 C 1 15.003906 2 15.003906 2 15.003906 L 14 15.003906 C 14 15.003906 15.141344 14.993866 15 14.003906 L 15 7 L 13 7 L 13 13.003906 L 3 13.003906 L 3 4.0039062 L 4 4.0039062 L 4 5.0039062 L 9 5.0039062 L 9 5 L 9 4.421875 L 9 2.0039062 L 9 2 C 8.9999029 1.8632525 8.9946996 1.7266119 8.96875 1.5976562 C 8.78226 0.6862865 7.9666 0.00390625 7 0.00390625 z M 7 1.0039062 C 7.41421 1.0039062 7.75444 1.2699862 7.90625 1.6289062 C 7.95685 1.7485462 8 1.8658364 8 2.0039062 C 8 2.5561863 7.55229 3.0039063 7 3.0039062 C 6.44771 3.0039062 6 2.5561863 6 2.0039062 C 6 1.4516267 6.44771 1.0039067 7 1.0039062 z M 4.5722656 6 C 4.2556941 6 4 6.223 4 6.5 L 4 11.5 C 4 11.777002 4.2556941 12 4.5722656 12 L 11.427734 12 C 11.744305 12 12 11.777002 12 11.5 L 12 6.5 C 12 6.223 11.744305 6 11.427734 6 L 4.5722656 6 z M 5.5371094 7.0078125 L 8 8.625 L 10.464844 7.0078125 L 11.173828 7.7929688 L 8.3417969 9.6503906 C 8.1387079 9.7835126 7.8612941 9.7835126 7.6582031 9.6503906 L 4.9785156 7.8925781 L 4.8261719 7.7929688 L 5.5371094 7.0078125 z "
       />
</svg>
