<svg xmlns="http://www.w3.org/2000/svg" width="16" height="16"><path fill="#6d6d70" d="M3.68 1a.68.68 0 0 0-.68.68V2H2a1 1 0 0 0-1 1v11a1 1 0 0 0 1 1h7.338a1.54 1.54 0 0 1-.088-.5c0-.719.302-1.3.768-1.77H3V5h10v3.25c.872 0 1.627.513 2 1.246V3a1 1 0 0 0-1-1h-1v-.32a.68.68 0 0 0-.68-.68h-1.64a.68.68 0 0 0-.68.68V2H6v-.32A.68.68 0 0 0 5.32 1zM5 6a1 1 0 1 0 0 2 1 1 0 1 0 0-2zm3 0a1 1 0 1 0 0 2 1 1 0 1 0 0-2zm3 0a1 1 0 1 0 0 2 1 1 0 1 0 0-2zM5 9a1 1 0 1 0 0 2 1 1 0 1 0 0-2zm3 0a1 1 0 1 0 0 2 1 1 0 1 0 0-2z"/><path fill="#f03d21" d="M13 9a1.5 1.5 0 1 0 0 3 1.5 1.5 0 1 0 0-3zm0 3a3 2.5 0 0 0-3 2.5 3 1.5 0 0 0 3 1.5 3 1.5 0 0 0 3-1.5 3 2.5 0 0 0-3-2.5z"/></svg>