<svg xmlns="http://www.w3.org/2000/svg" width="16" height="16"><path fill="#6d6d70" d="M1 2a1 1 0 0 0-1 1v10a1 1 0 0 0 1 1h2v-1h1v-1H2V5.152l3 2.305V7h1V6H5V5L3.668 4H7V3h1V2H1zm7 1v1h1V3H8zm1 0h1V2H9v1zm1 0v1h1V3h-1zm1 0h1V2h-1v1zm1 0v1h1V3h-1zm1 0h1V2h-1v1zm0 1v1h1V4h-1zm0 1h-1v1h.969L13 5.977V5zm-1 1h-1v1h.645L12 6.732V6zm-1 1h-1v1h.32l.68-.514V7zm-1 1H9v.998l1-.756V8zM9 8V7h-.666L8 7.25V8h1zM8 8H7v.992L7.01 9H8V8zm0 1v.5a1 1 0 0 0 .6-.199L8.998 9H8zM7 8V7H6v1h1zM6 8h-.293L6 8.225V8zm1-1h.666L7 6.5V7zm2 0h1V6h-.334L9 6.5V7zm1-1h1V5l-1 .75V6zm1-1h1v-.75L11 5zM6 6h.334L6 5.75V6zm-2 7v1h1v-1H4zm1 0h1v-1H5v1zm1 0v1h1v-1H6zm1 0h1v-1H7v1zm1 0v1h1v-1H8zm1 0h1v-1H9v1zm1 0v1h1v-1h-1z"/><path fill="#fcc907" d="M12 7v6h2V7zm1 7a1 1 0 1 0 0 2 1 1 0 1 0 0-2z"/></svg>