<svg xmlns="http://www.w3.org/2000/svg" width="16" height="16" viewBox="0 0 16 16">
 <path style="fill:#6d6d70"
       d="m 12,0 0,2 -1.966797,0 C 10.014423,2 10,2.446 10,3 c 0,0.554 0.01442,1 0.0332,1 L 12,4 l 0,2 2,0 0,-2 1.966797,0 C 15.985577,4 16,3.554 16,3 16,2.446 15.985577,2 15.966797,2 L 14,2 14,0 Z M 7,0.00390625 c -1.1046,0 -2,0.8954302 -2,1.99999995 l -3,0 c -1,0 -1,1 -1,1 L 1,14.003906 c 0,1 1,1 1,1 l 11,0 c 0,0 1.141344,-0.01004 1,-1 L 14,7 l -2,0 0,6.003906 -9,0 0,-8.9999998 1,0 0,1 5,0 L 9,5 9,4.421875 9,2.0039062 9,2 C 8.9999029,1.8632525 8.9946996,1.7266119 8.96875,1.5976562 8.78226,0.68628645 7.9666,0.00390625 7,0.00390625 Z M 7,1.0039062 c 0.41421,0 0.75444,0.26608 0.90625,0.625 C 7.95685,1.7485462 8,1.8658364 8,2.0039062 c 0,0.5522801 -0.44771,1.0000001 -1,1 -0.55229,0 -1,-0.4477199 -1,-1 0,-0.5522796 0.44771,-0.9999996 1,-1 z"
       />
</svg>
