<svg xmlns="http://www.w3.org/2000/svg" width="16" height="16" viewBox="0 0 16 16">
 <path style="fill:#6d6d70"
       d="m 3,1.0039062 c 0,0 -1,0 -1,1 L 2,14.003906 c 0,1 1,1 1,1 L 7,15 6,14 4,14 4,3.0039062 l 5,0 0,1.9921876 c 0,1 1,1 1,1 l 2,0 L 12,9 14,9 14,5 12,3 10.003906,1.0039062 Z"
       />
 <path style="fill:#3caa3e"
       d="m 9.5096795,7.0253906 c 0.27231,0.00535 0.490259,0.2276379 0.490234,0.5 l 0,2.4746094 5.5000005,0 c 0.27613,2.8e-5 0.499972,0.223869 0.5,0.5 l 0,2 c -2.8e-5,0.276131 -0.22387,0.499972 -0.5,0.5 l -5.5000005,0 0,2.474609 c -0.0019,0.44306 -0.536443,0.664973 -0.851562,0.353516 l -4,-3.972656 c -0.197802,-0.195704 -0.197802,-0.515234 0,-0.710938 l 4,-3.972656 c 0.095662,-0.095706 0.226027,-0.1485566 0.361328,-0.1464844 z"
       />
</svg>

