<?xml version="1.0" encoding="utf-8"?>
<!-- Generator: Adobe Illustrator 16.0.0, SVG Export Plug-In . SVG Version: 6.00 Build 0)  -->
<!DOCTYPE svg PUBLIC "-//W3C//DTD SVG 1.1//EN" "http://www.w3.org/Graphics/SVG/1.1/DTD/svg11.dtd">
<svg version="1.1" id="Layer_1" xmlns="http://www.w3.org/2000/svg" xmlns:xlink="http://www.w3.org/1999/xlink" x="0px" y="0px"
	 width="16px" height="16px" viewBox="0 0 16 16" enable-background="new 0 0 16 16" xml:space="preserve">
<path fill="#6D6D70" d="M9,1.004H2.001c0,0-1,0-1,1v9c0,0,0,1,1,1h1v-9H9V1.004z"/>
<rect x="16.344" y="1.438" fill="#00DD69" width="0.031" height="0.016"/>
<path fill="#6D6D70" d="M15.982,2.985h-1.967v-2h-2v2h-1.968c0,0-0.001,0.005-0.001,0.006v1.988l0.001,0.006h1.968v2h2v-2h1.967
	c0.019,0,0.033-0.445,0.033-1C16.016,3.431,16.001,2.985,15.982,2.985z"/>
<g>
	<rect x="13" y="5.984" fill="#6D6D70" width="0.001" height="2"/>
	<path fill="#6D6D70" d="M12.001,7.985v6.019h-6v-8H9v-2H5.001c0,0-1,0-1,1v10c0,1,1,1,1,1h8c0,0,1-0.001,1-1.004V7.985H12.001z"/>
</g>
</svg>
