<svg xmlns="http://www.w3.org/2000/svg" width="16" height="16"><path d="M1 5v9a1 1 0 0 0 1 1h12a1 1 0 0 0 1-1V5h-2v8H3V5H1zm4 1a1 1 0 1 0 0 2 1 1 0 1 0 0-2zm3 0a1 1 0 1 0 0 2 1 1 0 1 0 0-2zm3 0a1 1 0 1 0 0 2 1 1 0 1 0 0-2zM5 9a1 1 0 1 0 0 2 1 1 0 1 0 0-2zm3 0a1 1 0 1 0 0 2 1 1 0 1 0 0-2zm3 0a1 1 0 1 0 0 2 1 1 0 1 0 0-2z" fill="#6d6d70"/><path d="M3.68 1a.68.68 0 0 0-.68.68V2H2a1 1 0 0 0-1 1v2h2 10 2V3a1 1 0 0 0-1-1h-1v-.32a.68.68 0 0 0-.68-.68H10.68a.68.68 0 0 0-.68.68V2H6v-.32A.68.68 0 0 0 5.32 1H3.68z" fill="#19b5f1"/></svg>