<svg xmlns="http://www.w3.org/2000/svg" width="16" height="16" viewBox="0 0 16 16">
 <path style="fill:#6d6d70"
       d="M 10,3 A 2.5,2.5 0 0 0 7.5,5.5 2.5,2.5 0 0 0 10,8 2.5,2.5 0 0 0 12.5,5.5 2.5,2.5 0 0 0 10,3 Z m 0,5 a 4,4 0 0 0 -4,4 4,2 0 0 0 4,2 4,2 0 0 0 4,-2 4,4 0 0 0 -4,-4 z"
       />
 <path style="fill:#6d6d70"
       d="M 6,2 C 3.790861,2 2,3.7908579 2,6 2,8.2017952 3.7795115,9.98619 5.9785156,9.9980469 6.1055828,9.7475323 6.2613173,9.5157475 6.4316406,9.2949219 6.2889467,9.3098537 6.1485362,9.3339844 6,9.3339844 5.8731113,9.3339844 5.7479101,9.326643 5.625,9.3125 5.5270936,9.3013259 5.4291271,9.2909531 5.3339844,9.2714844 5.1452014,9.2328537 4.966701,9.1530617 4.7910156,9.0839844 c -0.00625,-0.011433 -0.020948,-0.029555 -0.019531,-0.042969 0.03465,-0.014667 0.099671,0.049333 0.125,0 0.012687,-0.023333 -0.016683,-0.080182 0,-0.1035156 C 4.9084744,8.9215 4.9753383,8.9206816 5,8.9160156 c 0.035347,-0.00667 0.083518,-0.010198 0.1035156,-0.019531 0.022,-0.014 0.046969,-0.064402 0.042969,-0.1054688 C 5.1446544,8.7716826 5.1188056,8.767334 5.1035156,8.75 c -0.01265,-0.014667 0.00865,-0.027016 0,-0.041016 -0.015987,-0.023333 -0.055834,-0.0285 -0.0625,-0.0625 0.047997,-0.00933 0.1181743,0.038865 0.1875,0.019531 0.03267,-0.00933 0.090135,-0.072782 0.1054688,-0.1035156 0.00466,-0.00933 -0.00532,-0.029016 0,-0.041016 0.00601,-0.012 0.017515,-0.036302 0.019531,-0.042969 0.00465,-0.018 -0.004,-0.00753 0,-0.019531 0.01199,-0.034 0.042498,-0.059784 0.0625,-0.083984 0.015327,-0.018667 0.048482,-0.043167 0.0625,-0.0625 C 5.4945026,8.291833 5.489367,8.2901514 5.5,8.2714844 5.51001,8.2108174 5.4638486,8.1567823 5.4785156,8.1035156 c 0.015987,-0.06 0.1099768,-0.097667 0.1679688,-0.125 0.019983,-0.00933 0.045835,-0.013531 0.0625,-0.019531 0.039996,-0.014 0.08767,-0.029635 0.125,-0.042969 0.062663,-0.022667 0.072848,-0.067733 0.1035156,-0.125 0.014667,-0.026667 0.038339,-0.062498 0.041016,-0.082031 0.00257,-0.017333 -0.0033,-0.022302 0,-0.042969 0.0033,-0.019333 -0.00532,-0.039833 0,-0.0625 C 5.985849,7.5748496 6,7.510449 6,7.4785156 c 0,-0.026667 -0.020824,-0.0385 -0.021484,-0.0625 -0.00466,-0.086667 0.030508,-0.077667 0.0625,-0.125 0.015987,-0.023333 0.031675,-0.065298 0.042969,-0.082031 0.053995,-0.08 0.1511972,-0.1091354 0.1445312,-0.2304688 -0.00257,-0.04 -0.033181,-0.1318645 -0.0625,-0.1445312 C 6.1493326,6.8266544 6.1281816,6.821166 6.1035156,6.8125 6.024854,6.783166 5.9569904,6.6941666 5.875,6.6875 l -0.041016,0 c -0.03201,0 -0.069473,-0.016818 -0.1054688,-0.021484 -0.02266,-0.00667 -0.068699,0.00667 -0.082031,0 -0.02068,-0.01 -0.026322,-0.051167 -0.042969,-0.0625 -0.013347,-0.00933 -0.041838,-0.012198 -0.0625,-0.019531 -0.03267,-0.012 -0.044034,-0.040302 -0.082031,-0.042969 -0.01199,0 -0.029647,0.00667 -0.042969,0 -0.02068,-0.00667 -0.043169,-0.00753 -0.0625,-0.019531 -0.02398,-0.014667 -0.052501,-0.022302 -0.0625,-0.042969 0.022,-0.071933 -0.047833,-0.083 -0.0625,-0.125 -0.00667,-0.019333 0.00667,-0.064698 0,-0.082031 -0.00865,-0.024667 -0.035165,-0.041833 -0.0625,-0.0625 -0.047997,-0.037333 -0.075869,-0.0539 -0.1445312,-0.0625 -0.030653,-0.00667 -0.068806,0.00667 -0.1054688,0 -0.038661,-0.00667 -0.09567,-0.029167 -0.125,-0.0625 C 4.7630026,6.0513174 4.7531786,6.0154 4.7285156,6 4.7051956,5.985333 4.6820136,5.9743184 4.6660156,5.9589844 4.6586856,5.9523144 4.6531574,5.952833 4.6464844,5.9375 4.6344944,5.912833 4.610333,5.905 4.625,5.875 c -0.026657,-0.013333 -0.012354,0.026151 -0.041016,0.021484 -0.025997,-0.036667 -0.04681,-0.073167 -0.1054688,-0.0625 -0.026657,0.00667 -0.0507,0.061833 -0.082031,0.0625 -0.025997,0 -0.049987,-0.057167 -0.083984,-0.0625 -0.025997,-0.00667 -0.065985,0.022865 -0.083984,0.019531 C 4.1998426,5.8468456 4.1919976,5.829834 4.1660156,5.8125 4.1466926,5.799833 4.1141826,5.7708184 4.1035156,5.7714844 4.0701856,5.7714844 4.0459947,5.836766 4,5.8125 3.97734,5.783833 4.0481634,5.776667 4.0214844,5.75 c -0.019983,-0.019333 -0.02696,0.012151 -0.042969,0.021484 -0.018663,0.012 -0.041838,0.012198 -0.0625,0.019531 -0.045999,0.017333 -0.089004,0.023635 -0.125,0.042969 -0.03333,0.017333 -0.043169,0.0283 -0.0625,0.0625 -0.015327,0.028 -0.039169,0.080698 -0.0625,0.082031 -0.028013,0 -0.037167,-0.029682 -0.0625,-0.041016 -0.076659,-0.033333 -0.124173,0.020151 -0.1875,0.021484 -0.058663,0 -0.1471968,-0.091151 -0.1445312,-0.1464844 0.00183,-0.034 0.015535,-0.083 0.019531,-0.125 0.0033,-0.033333 0.042345,-0.073116 0.042969,-0.1035156 7.334e-4,-0.041333 -0.078805,-0.057767 -0.1054688,-0.0625 -0.062663,-0.011333 -0.1357035,0.028 -0.2070312,0 -0.013347,-0.022667 0.011538,-0.039833 0.019531,-0.0625 0.00465,-0.012 -0.00466,-0.028969 0,-0.042969 0.00799,-0.021333 0.052505,-0.039833 0.0625,-0.0625 0.00733,-0.017333 -0.00733,-0.0405 0,-0.0625 0.00865,-0.024 0.040952,-0.045167 0.042969,-0.0625 0.00257,-0.022667 -0.025002,-0.047833 -0.042969,-0.0625 -0.05533,0.00667 -0.093001,0.00548 -0.125,0.021484 -0.071991,0.032667 -0.052338,0.1238177 -0.125,0.1464844 -0.024677,0.008 -0.054033,0.014865 -0.082031,0.019531 -0.01221,0.00667 -0.029289,-0.00133 -0.042969,0 0.0013,-0.00674 -0.00134,-0.012802 0,-0.019531 0.00311,-0.015189 0.01817,-0.027855 0.021484,-0.042969 0.04751,-0.2166643 0.121581,-0.4263771 0.2089844,-0.625 l 0.019531,0 c 0.025337,0.00667 0.040503,0.040969 0.0625,0.042969 0.061329,0.00667 0.074334,-0.057184 0.125,-0.083984 0.051997,0.00733 0.077671,-0.00667 0.125,0 0.03201,0.00667 0.080139,0.038349 0.1054688,0.041016 0.02134,0 0.021014,-0.022198 0.041016,-0.019531 0.019983,0.00667 0.059167,0.0385 0.0625,0.0625 0.0033,0.03 -0.030174,0.070449 -0.021484,0.1035156 0.03135,0.032 0.1018207,0.043833 0.1464844,0.0625 0.029333,-0.024667 0.00465,-0.068849 0,-0.1035156 -7.333e-4,-0.015333 0.00183,-0.0485 0,-0.0625 -0.0033,-0.024 -0.021484,-0.041833 -0.021484,-0.0625 0,-0.095333 0.08249,-0.1307021 0.1464844,-0.1679688 0.027317,-0.016 0.059986,-0.0505 0.083984,-0.0625 0.03399,-0.016667 0.054033,-0.00353 0.082031,-0.019531 0.050659,-0.028667 0.085668,-0.073002 0.125,-0.1054688 0.018003,-0.043333 -0.00183,-0.1018646 0,-0.1445312 0.018003,-0.011333 0.043188,0 0.0625,0 0.030653,-0.00667 0.045164,-0.045167 0.0625,-0.0625 0.01001,-0.01 0.030957,-0.011484 0.042969,-0.021484 0.030653,-0.024 0.035825,-0.051833 0.0625,-0.0625 0.00935,-0.00667 0.026331,-0.016818 0.041016,-0.021484 0.02002,-0.00667 0.051989,-0.00753 0.083984,-0.019531 0.02068,-0.00733 0.074031,-0.012818 0.082031,-0.021484 0.01001,-0.01 -0.00257,-0.047167 0,-0.0625 0.015987,-0.075267 0.1201726,-0.078116 0.1875,-0.1035156 0.046662,-0.017333 0.094487,-0.071833 0.1464844,-0.0625 -0.01001,0.036 -0.049683,0.038631 -0.041016,0.082031 0.01133,0.060667 0.082183,-0.010865 0.1035156,-0.019531 0.040663,-0.017333 0.1126839,-0.0425 0.1660156,-0.0625 C 5.0876776,3.6923174 5.168993,3.678733 5.125,3.625 5.088333,3.61833 5.0730106,3.6526816 5.0410156,3.6660156 5.0190156,3.6726856 5.018652,3.6484844 5,3.6464844 c -0.018003,0 -0.022998,0.022865 -0.041016,0.019531 -0.018003,-0.00667 -0.040303,-0.0405 -0.042969,-0.0625 -0.00733,-0.056 0.03984,-0.062249 0.0625,-0.1035156 -0.015327,-0.050667 -0.082338,-0.021016 -0.125,-0.041016 0.00466,-0.03 0.027171,-0.055833 0.0625,-0.0625 0.028673,-0.00667 0.1076676,0.0042 0.125,0.019531 0.01001,0.00867 -0.015293,0.028969 0,0.042969 0.017343,0.015333 0.039836,0.00667 0.0625,0 0.00799,-0.038 -0.047682,-0.018302 -0.041016,-0.042969 0.045327,-0.029333 0.13217,-0.012198 0.1875,-0.019531 0.03201,-0.00667 0.07485,-0.027635 0.1035156,-0.042969 0.026657,-0.015333 0.034501,-0.044865 0.0625,-0.019531 0.00799,0.027333 -0.00424,0.047833 -0.019531,0.0625 C 5.3451569,3.4418166 5.289996,3.4884156 5.25,3.5410156 c 0.024677,0.024 0.062185,0.016818 0.1035156,0.021484 0.015987,0.00667 0.045831,-0.00333 0.0625,0 0.02002,0.00667 0.046499,-0.00667 0.0625,0 0.028013,0.00667 0.034505,0.0625 0.0625,0.0625 0.045331,0 0.026015,-0.053851 0,-0.083984 0.00799,-0.031333 0.032851,-0.059898 0.021484,-0.082031 -0.02068,-0.041333 -0.099515,0.011031 -0.1035156,-0.042969 -0.00257,-0.033333 0.029011,-0.037167 0.041016,-0.0625 -0.00532,-0.064 0.047682,-0.067 0.041016,-0.125 C 5.5377156,3.2045156 5.516672,3.210167 5.5,3.1875 5.49135,3.1755 5.4884886,3.134333 5.4785156,3.125 5.4438656,3.095667 5.3790004,3.11863 5.375,3.0625 5.37317,3.029167 5.37965,2.994718 5.375,2.9589844 5.37034,2.9249844 5.341819,2.8191667 5.3125,2.8125 5.27517,2.8045 5.2536481,2.8756184 5.2089844,2.8964844 5.1850044,2.9078174 5.1281772,2.9200156 5.1035156,2.9160156 5.0875285,2.9093499 5.064502,2.9063334 5.0625,2.875 5.05986,2.846733 5.0930796,2.834145 5.1035156,2.8125 c 0.00261,-0.00541 -0.00133,-0.014004 0,-0.021484 C 5.1518936,2.7775166 5.2008107,2.761515 5.25,2.75 c 0.027945,-0.00648 0.055775,-0.015712 0.083984,-0.021484 0.019918,-0.00415 0.042457,0.00381 0.0625,0 C 5.4855204,2.7120076 5.5746461,2.696779 5.6660156,2.6875 5.7768415,2.6758542 5.8859346,2.6660156 6,2.6660156 c 0.1150594,0 0.2219274,0.010101 0.3339844,0.021484 0.026893,0.00265 0.055337,-0.00328 0.082031,0 0.035081,0.00445 0.070737,0.015957 0.1054688,0.021484 0.095768,0.015053 0.1767147,0.039483 0.2695312,0.0625 0.1710644,0.042198 0.3404822,0.098545 0.5,0.1660156 0.087951,0.0372 0.1660993,0.080657 0.25,0.125 -5e-5,0.006 5.333e-4,0.014151 0,0.021484 0.01932,0.00867 0.029853,0.0445 0.0625,0.0625 0.011987,0.00667 0.010191,0.013531 0.021484,0.019531 0.01932,0.010667 0.045009,0.023635 0.041016,0.042969 -0.00533,0.026667 -0.043833,0.020349 -0.0625,0.041016 0.00253,0.038667 -0.031042,0.0365 -0.041016,0.0625 0.006,0.016667 0.038376,0.021016 0.041016,0.041016 -0.00327,0.021333 -0.049029,0.020969 -0.041016,0.042969 0.036007,0.028 0.069518,0.00667 0.1035156,0 0.074661,-0.00933 0.141502,-0.00497 0.1875,-0.042969 -0.006,-0.035333 0.066493,-0.030433 0.0625,-0.0625 0.012417,0.00905 0.027064,0.01833 0.041016,0.027344 C 8.1250286,3.1609117 8.3131804,3.0280289 8.5136719,2.9121094 7.8249999,2.3507289 6.9577679,2 6,2 Z M 4.6464844,2.9785156 C 4.6252619,3.1002315 4.5106684,3.1499981 4.375,3.1464844 c -0.030653,0.029333 -0.00484,0.084333 -0.021484,0.125 -0.014007,0.034 -0.069522,0.065167 -0.1035156,0.0625 -0.024677,0 -0.0625,-0.039167 -0.0625,-0.0625 0,-0.028667 0.046165,-0.0297 0.021484,-0.0625 0.0011,-0.00667 0.012601,-0.014818 0.019531,-0.021484 0.013493,-0.0085 0.029371,-0.013156 0.042969,-0.021484 0.1208017,-0.074344 0.244641,-0.1287814 0.375,-0.1875 z m 2.7910156,0.125 c -0.012287,0.00667 -0.010671,0.014818 -0.021484,0.021484 -0.02534,0.015333 -0.04316,0.033682 -0.0625,0.041016 -0.027313,0.01 -0.058497,0.018302 -0.0625,0.042969 C 7.2877156,3.2296514 7.313197,3.230666 7.3125,3.25 7.30249,3.274667 7.2963686,3.2825 7.2910156,3.3125 7.3250056,3.367833 7.3955054,3.2996816 7.4375,3.2910156 c 0.018667,-0.00667 0.031016,-0.00353 0.041016,-0.019531 0.011327,-0.018 0.012858,-0.037033 0.021484,-0.0625 0.00935,-0.028 0.044356,-0.037833 0.041016,-0.0625 C 7.5384856,3.1218174 7.4788267,3.1001826 7.4375,3.1035156 Z m 0.40625,0.3222656 c -0.016471,0.017939 -0.039234,0.052734 -0.052734,0.052734 -0.019327,0 -0.0485,-0.023531 -0.0625,-0.019531 C 7.7084956,3.4656544 7.710127,3.492 7.6875,3.5 7.643507,3.516 7.5563456,3.4750156 7.5410156,3.5410156 c 0.018667,0.038 0.09167,0.021635 0.125,0.042969 0.00752,0.00485 0.013994,0.018275 0.023437,0.029297 0.051283,-0.062606 0.098223,-0.1292347 0.1542969,-0.1875 z M 3.7910156,3.5214844 C 3.8226236,3.5468824 3.867706,3.6012334 3.8125,3.625 3.80583,3.63167 3.7249821,3.6491514 3.7089844,3.6464844 3.7025344,3.6464844 3.693156,3.629833 3.6875,3.625 3.721942,3.591461 3.7551539,3.55352 3.7910156,3.5214844 Z m 0.125,0.125 c 0.015987,0 0.024291,0.039682 0.042969,0.041016 0.018003,0 0.030331,-0.024151 0.041016,-0.021484 0.028013,0.00733 0.048163,0.063184 0.021484,0.083984 -0.022,0.00667 -0.026993,-0.024151 -0.042969,-0.021484 -0.045331,0.008 -0.069519,0.1081354 -0.1035156,0.1054688 -0.03201,-0.00667 -0.054166,-0.082135 -0.021484,-0.1054688 7.333e-4,-0.02 -0.00136,-0.020349 0,-0.041016 0.01001,-0.012 0.035821,-0.043016 0.0625,-0.041016 z M 3.75,3.6660156 c 0.00935,0 0.018148,-0.00667 0.021484,0 -0.00465,0.035333 -0.015663,0.045833 -0.042969,0.0625 -0.047329,0.028667 -0.088182,0.064 -0.1035156,0.125 -0.00466,0.018 -0.061321,0.066967 -0.083984,0.0625 -0.052664,-0.011333 0.030979,-0.1097333 0.042969,-0.125 C 3.5973314,3.7743486 3.609684,3.769334 3.625,3.75 3.640327,3.731333 3.6513856,3.698167 3.6660156,3.6875 3.6820016,3.676167 3.722005,3.6646823 3.75,3.6660156 Z m 0.3339844,0.125 0.0625,0 c 0.016683,0 0.03435,-0.00667 0.041016,0 -0.01067,0.044 -0.1118198,0.037484 -0.1464844,0.021484 0.00183,-0.016667 0.021614,-0.018818 0.042969,-0.021484 z m 3.3105468,0.023437 c -0.043751,-0.00321 -0.080183,0.00206 -0.1035156,0.039063 0.0033,0.056667 0.012687,0.097151 0,0.1464844 -0.00931,0.036 -0.064499,0.072449 -0.0625,0.1035156 7.333e-4,0.016 0.038972,0.039833 0.042969,0.0625 0.00257,0.012 -0.00538,0.031635 0,0.042969 0.00702,0.013222 0.021793,0.00255 0.033203,0 C 7.3676525,4.0785007 7.4312442,3.9493422 7.5117188,3.8300781 7.4708547,3.8248653 7.4295324,3.8170195 7.3945312,3.8144531 Z M 3.9375,3.875 c -0.029122,0.021188 -0.057295,0.048056 -0.1035156,0.0625 -0.025337,0.008 -0.057832,0.00652 -0.0625,-0.021484 -0.00535,-0.034667 0.039825,-0.016198 0.0625,-0.019531 C 3.8633174,3.8898144 3.9035023,3.876333 3.9375,3.875 Z m 3.1894531,0.8105469 c -0.023661,0.032135 -0.043318,0.066229 -0.085937,0.085937 -0.018003,0.008 -0.045835,0.00753 -0.0625,0.019531 -0.013347,0.00933 -0.022334,0.041167 -0.041016,0.0625 -0.02332,0.026 -0.049835,0.0425 -0.0625,0.0625 -0.00935,0.015333 -0.011511,0.041167 -0.021484,0.0625 -0.014667,0.028 -0.043837,0.034367 -0.0625,0.0625 -0.00865,0.013333 -0.010218,0.045167 -0.019531,0.0625 -0.02134,0.038667 -0.046969,0.071469 -0.042969,0.1054688 0.0033,0.032 0.04097,0.033167 0.042969,0.0625 C 6.7733144,5.2874844 6.74934,5.2945 6.75,5.3125 c 7.334e-4,0.025333 0.019504,0.0425 0.021484,0.0625 0.00466,0.049333 -0.033655,0.069782 -0.042969,0.1035156 -0.00466,0.016 0.004,0.029635 0,0.042969 -0.00799,0.024667 -0.040348,0.052565 -0.041016,0.082031 -7.333e-4,0.020667 0.039036,0.033167 0.041016,0.0625 0.00147,0.019333 -0.023528,0.043833 -0.019531,0.0625 0.00733,0.036 0.075521,0.077469 0.1035156,0.1054688 0.037998,0.038 0.086854,0.063516 0.1035156,0.1035156 0.014007,0.034 0.016991,0.0996 0.042969,0.125 0.019323,0.018667 0.057369,0.021016 0.082031,0.041016 0.01732,0.013369 0.031503,0.02113 0.046875,0.03125 C 7.0342266,5.9344699 7,5.7248482 7,5.5 7,5.2161951 7.0525387,4.9461908 7.1269531,4.6855469 Z M 2.7089844,5.5410156 c 0.037576,0.034 0.058544,0.083202 0.1035156,0.1054688 0.016683,0.00867 0.041167,0.014198 0.0625,0.019531 0.017343,0.00667 0.024358,-0.00533 0.041016,0 0.035347,0.012 0.077474,0.030302 0.1054688,0.042969 0.042665,0.018667 0.088333,0.082182 0.125,0.1035156 0.00183,0.021333 -0.00667,0.0465 0,0.0625 0.017343,0.023333 0.034498,0.0465 0.0625,0.0625 0.03399,0.018667 0.050036,0.0477 0.082031,0.0625 0.01133,0.00667 0.025611,-0.00667 0.042969,0 C 3.3779804,6.013333 3.3995023,6.0737 3.4375,6.0625 3.462177,6.05517 3.4549884,6.024 3.4589844,6 c 0.016683,-0.018 0.036481,-0.041016 0.0625,-0.041016 0.041327,0 0.047166,0.063116 0.0625,0.1035156 0.00865,0.022667 0.035039,0.0385 0.041016,0.0625 0.01001,0.041333 0.00865,0.1628333 0,0.1875 -0.01067,0.030667 -0.058652,0.028967 -0.083984,0.0625 -0.01199,0.016 -0.010218,0.051167 -0.019531,0.0625 -0.015987,0.019333 -0.030953,0.022349 -0.042969,0.041016 -0.00667,0.01 -0.013555,0.028969 -0.019531,0.042969 -0.02002,0.042667 -0.059645,0.073667 -0.042969,0.125 0.00667,0.020667 0.042969,0.037833 0.042969,0.0625 0,0.029333 -0.057833,0.049898 -0.0625,0.082031 -0.0033,0.023333 0.012235,0.052851 0.019531,0.083984 0.00532,0.023333 0.048501,0.047167 0.0625,0.0625 0.02332,0.026 0.041167,0.070516 0.0625,0.1035156 0.041994,0.064667 0.064145,0.145651 0.1054688,0.2089844 0.022,0.032667 0.067365,0.049584 0.082031,0.083984 0.00733,0.017333 -0.00667,0.0465 0,0.0625 0.02398,0.054 0.1335046,0.1179312 0.1875,0.1445312 C 3.9413526,7.5536826 3.976673,7.549167 4,7.5625 c 0.035347,0.02 0.107004,0.072449 0.125,0.1035156 0.015987,0.028 0.013491,0.1018844 0.021484,0.1464844 0.01001,0.058667 -0.00257,0.1026156 0,0.1660156 0.00183,0.034667 0.019531,0.049584 0.019531,0.083984 0,0.012 7.333e-4,0.049833 0,0.0625 -7.334e-4,0.041333 0.0033,0.083 0,0.125 -0.00183,0.022667 -0.00147,0.043167 0,0.0625 0.00183,0.020667 0.020164,0.022349 0.021484,0.041016 0.00147,0.019333 -0.023501,0.047167 -0.021484,0.0625 0.00466,0.042 0.034968,0.066735 0.042969,0.1054688 0.00667,0.030667 0.023528,0.1078646 0.019531,0.1445312 -0.00257,0.019333 -0.016855,0.0405 -0.019531,0.0625 -0.00183,0.017333 0.00257,0.026969 0,0.042969 -0.00183,0.015333 0.00396,0.028349 0,0.041016 -0.021231,-0.013653 -0.041603,-0.026896 -0.0625,-0.041016 -0.1773344,-0.1198047 -0.3491963,-0.2671648 -0.5,-0.4179688 -0.020396,-0.020395 -0.042636,-0.041584 -0.0625,-0.0625 C 3.4635979,8.1642518 3.349425,8.0194546 3.25,7.875 3.240991,7.8619106 3.2373414,7.8472077 3.2285156,7.8339844 3.1131513,7.6611397 3.0193762,7.484593 2.9375,7.2910156 2.9315963,7.2770578 2.9217337,7.2640542 2.9160156,7.25 2.845764,7.077334 2.7907157,6.8946634 2.75,6.7089844 2.7423157,6.6739412 2.7350876,6.6389622 2.7285156,6.6035156 2.7120075,6.5144794 2.6967791,6.4253539 2.6875,6.3339844 2.67612,6.2219275 2.6660156,6.1150594 2.6660156,6 c 0,-0.1584278 0.021593,-0.3064485 0.042969,-0.4589844 z"
       />
</svg>
