<svg xmlns="http://www.w3.org/2000/svg" width="16" height="16"><path d="M3.68 1a.68.68 0 0 0-.68.68V2H2a1 1 0 0 0-1 1v11a1 1 0 0 0 1 1h12a1 1 0 0 0 1-1V3a1 1 0 0 0-1-1h-1v-.32a.68.68 0 0 0-.68-.68H10.68a.68.68 0 0 0-.68.68V2H6v-.32A.68.68 0 0 0 5.32 1zM3 5h10v8H3zm5 1a1 1 0 1 0 0 2 1 1 0 1 0 0-2zM5 9a1 1 0 1 0 0 2 1 1 0 1 0 0-2z" fill="#6d6d70"/><path d="M5 6a1 1 0 1 0 0 2 1 1 0 1 0 0-2z" fill="#f03d21"/><path d="M11 6a1 1 0 1 0 0 2 1 1 0 1 0 0-2zM8 9a1 1 0 1 0 0 2 1 1 0 1 0 0-2z" fill="#3caa3e"/><path d="M11 9a1 1 0 1 0 0 2 1 1 0 1 0 0-2z" fill="#fcc907"/></svg>