<svg xmlns="http://www.w3.org/2000/svg" version="1.1" viewBox="0 0 16 16" width="16" height="16">
 <path style="fill:#6d6d70" d="m4.5 2.225v1.75h-1.8105c-.9361 0-1.6895.8212-1.6895 1.8418v5.9412c0 1.021.7534 1.842 1.6895 1.842h10.621c.937 0 1.69-.821 1.69-1.842v-5.8988c0-1.0205-.755-1.7895-1.689-1.8418h-1.8105v1.75h1.748c-.0017.0079.002.022517.002.091797v5.899c0 .06921-.0038.08404-.002.0918h-10.494c.0008-.008-.004-.023-.004-.092v-5.9414c-5e-7-.0693.00478-.084036.00391-.091797l1.7461.0002v1.75l3.5-2.625z"/>
</svg>
