<svg xmlns="http://www.w3.org/2000/svg" width="16" height="16" viewBox="0 0 16 16">
  <path
     style="fill:#f03d21"
     d="M 3 1.9902344 A 1.0001 1.0001 0 0 0 2.3027344 3.7070312 L 6.5898438 7.9960938 L 2.3027344 12.283203 A 1.0001 1.0001 0 1 0 3.7167969 13.697266 L 8.0039062 9.4101562 L 12.292969 13.697266 A 1.0001 1.0001 0 1 0 13.707031 12.283203 L 9.4179688 7.9960938 L 13.707031 3.7070312 A 1.0001 1.0001 0 0 0 12.980469 1.9902344 A 1.0001 1.0001 0 0 0 12.292969 2.2929688 L 8.0039062 6.5820312 L 3.7167969 2.2929688 A 1.0001 1.0001 0 0 0 3 1.9902344 z "
     />
</svg>
