<svg xmlns="http://www.w3.org/2000/svg" width="12" height="12" viewBox="0 0 12 12">
 <path style="fill:#6d6d70"
       d="M 5.9765673,6.2623139e-4 C 5.8767573,0.00617123 5.7820243,0.04643643 5.7087643,0.11445958 L 0.13845227,5.2570484 c -0.2863768,0.2648581 -0.09882,0.7435333 0.291237,0.7432648 l 1.28545603,0 0,0.8570981 -0.0012,4.2854907 C 1.7138133,11.617734 2.0961553,12 2.5709163,12 l 0.856971,0 5.141826,0 0.289563,0 0.567408,0 c 0.474762,0 0.8568387,-0.382266 0.8569707,-0.857098 l 0.0012,-4.2854907 0,-0.8570981 1.285457,0 c 0.390053,2.687e-4 0.577613,-0.4784066 0.291236,-0.7432648 L 6.2912373,0.11445958 c -0.08512,-0.079027 -0.198687,-0.12010756 -0.31467,-0.11383334861 z M 4,7 8,7 8,11 4,11 Z"
       />
</svg>
