<svg xmlns="http://www.w3.org/2000/svg" width="16" height="16"><path fill="#6d6d70" d="m6.252.998-.154 1.844a5.5 5.5 0 0 0-1.607.93l-1.676-.789-1.75 3.031L2.586 7.07a5.5 5.5 0 0 0-.084.928 5.5 5.5 0 0 0 .08.932L1.064 9.982l1.75 3.033 1.672-.787a5.5 5.5 0 0 0 1.611.924l.15 1.85h3.5l.154-1.844a5.5 5.5 0 0 0 1.607-.93l1.676.789 1.75-3.033-1.521-1.057A5.5 5.5 0 0 0 13.498 8a5.5 5.5 0 0 0-.08-.932l1.518-1.053-1.75-3.031-1.672.787a5.5 5.5 0 0 0-1.611-.924l-.15-1.85h-3.5zM8 5a3 3 0 1 1 0 6 3 3 0 1 1 0-6z"/></svg>