<svg xmlns="http://www.w3.org/2000/svg" width="16" height="16" viewBox="0 0 16 16">
 <path style="fill:#6d6d70"
       d="M 3,1 3,6 1,6 5,10 6.2070312,8.7929688 C 5.8542435,8.0492031 5.9761085,7.1254598 6.5859375,6.515625 6.8509247,6.2506353 7.1776516,6.0834017 7.5214844,6 L 7,6 7,1 Z"
       />
 <path style="fill:#f03d21"
       d="m 15.77809,7.2218077 a 0.9999904,1 0 0 0 -1.414199,0 0.9999904,1 0 0 0 -0.0014,0.00138 l -2.827,2.8270473 -2.8284004,-2.8284273 a 0.9999904,1 0 0 0 -1.4142,0 0.9999904,1 0 0 0 0,1.4142136 l 2.8284004,2.8284267 -2.8284004,2.828426 a 0.9999904,1 0 0 0 0,1.414214 0.9999904,1 0 0 0 1.4142,0 l 2.8284004,-2.828426 2.827019,2.827045 a 0.9999904,1 0 0 0 0.0014,0.0014 0.9999904,1 0 0 0 1.414199,0 0.9999904,1 0 0 0 0,-1.414214 0.9999904,1 0 0 0 -0.0014,-0.0014 l -2.827018,-2.827045 2.827018,-2.8270457 a 0.9999904,1 0 0 0 0.0014,-0.00138 0.9999904,1 0 0 0 0,-1.4142136 z"
       />
</svg>

