<svg xmlns="http://www.w3.org/2000/svg" width="16" height="16" viewBox="0 0 16 16">
 <path style="fill:#6d6d70"
       d="m 3.5,10 c -1.3807119,0 -2.5,1.119288 -2.5,2.5 0,1.380712 1.119288,2.5 2.5,2.5 0.5413714,-0.0011 1.067749,-0.177957 1.5,-0.5 l 0,0.0039 c 0,0.277 0.223,0.5 0.5,0.5 0.277,0 0.5,-0.223 0.5,-0.5 l 0,-4 c 0,-0.277 -0.223,-0.5 -0.5,-0.5 -0.277,0 -0.5,0.2230004 -0.5,0.5 l 0,0.002 c -0.4324963,-0.325252 -0.958852,-0.5 -1.5,-0.5019504 z m 0,1 c 0.8284271,0 1.5,0.671572 1.5,1.5 0,0.828427 -0.6715729,1.5 -1.5,1.5 -0.8284271,0 -1.5,-0.671573 -1.5,-1.5 0,-0.828428 0.6715729,-1.5 1.5,-1.5 z"
       />
 <path style="fill:#19b5f1"
       d="m 5.5,2 a 0.5,0.5 0 0 0 -0.058594,0 l -3.9257811,0 c -0.277,0 -0.5,0.223 -0.5,0.5 0,0.277 0.223,0.5 0.5,0.5000001 l 2.9609374,0 -3.345703,4.183594 a 0.5,0.5 0 0 0 0.484375,0.816406 l 3.9003905,0 c 0.277,0 0.5,-0.223 0.5,-0.5 0,-0.277 -0.223,-0.5 -0.5,-0.5 l -3,0 3.3496094,-4.1875001 A 0.5,0.5 0 0 0 6,2.6837638 0.5,0.5 0 0 0 5.5,2 Z"
       />
 <path style="fill:#6d6d70"
       d="m 11.5,15 a 0.5,0.5 0 0 1 -0.177935,-0.03711 c -0.0053,-0.0021 -0.01048,-0.0036 -0.01564,-0.0059 A 0.5,0.5 0 0 1 11.150025,14.8535 L 8.1505557,11.857407 a 0.50051001,0.49994663 0 1 1 0.707828,-0.707032 l 2.1449923,2.144532 0,-10.7949221 c 0,-0.277 0.223251,-0.5 0.5,-0.5 0.277312,0 0.500563,0.223 0.500563,0.5 l 0,10.7949221 2.144992,-2.144532 a 0.5,0.5 0 0 1 0.707828,0.707032 L 11.857854,14.8535 a 0.5,0.5 0 0 1 -0.15056,0.101563 c -0,0 -0.0088,0.0058 -0.01369,0.0078 -5.8e-4,2.36e-4 -0,-2.34e-4 -0.002,0 a 0.5,0.5 0 0 1 -0.185709,0.03711 0.5,0.5 0 0 1 -0.0078,0 0.5,0.5 0 0 1 -0.002,0 z"
       />
</svg>

