<svg xmlns="http://www.w3.org/2000/svg" width="16" height="16"><path fill="#cac8c8" d="M6 1a2.5 2.5 0 1 0 0 5 2.5 2.5 0 0 0 .545-.062C6.525 5.793 6.5 5.65 6.5 5.5c0-1.293.724-2.418 1.777-3.023A2.5 2.5 0 0 0 6 1zm0 5a4 4 0 0 0-4 4 4 2 0 0 0 3.004 1.936c.024-1.761 1.018-3.242 2.424-4.115a3.54 3.54 0 0 1-.873-1.777A4 4 0 0 0 6 6zm3.871 3.014a2.972 2.972 0 0 0-2.865 2.92A4 2 0 0 0 10 10a4 4 0 0 0-.129-.986z"/><path fill="#6d6d70" d="M10 3a2.5 2.5 0 1 0 0 5 2.5 2.5 0 1 0 0-5zm0 5a4 4 0 0 0-4 4 4 2 0 0 0 4 2 4 2 0 0 0 4-2 4 4 0 0 0-4-4z"/></svg>