<svg xmlns="http://www.w3.org/2000/svg" width="24" height="24" fill="none"><path fill="#000" d="M8.502 11.5a1.002 1.002 0 1 1 0 2.004 1.002 1.002 0 0 1 0-2.004"/><path fill="#000" d="M12 4.354v6.651l7.442-.001L17.72 9.28a.75.75 0 0 1-.073-.976l.073-.084a.75.75 0 0 1 .976-.073l.084.073 2.997 2.997a.75.75 0 0 1 .073.976l-.073.084-2.996 3.004a.75.75 0 0 1-1.134-.975l.072-.085 1.713-1.717-7.431.001L12 19.25a.75.75 0 0 1-.88.739l-8.5-1.502A.75.75 0 0 1 2 17.75v-12a.75.75 0 0 1 .628-.74l8.5-1.396a.75.75 0 0 1 .872.74m-1.5.883-7 1.15V17.12l7 1.236z"/><path fill="#000" d="M13 18.501h.765l.102-.006a.75.75 0 0 0 .648-.745l-.007-4.25H13zM13.002 10 13 8.725V5h.745a.75.75 0 0 1 .743.647l.007.102.007 4.251z"/></svg>