<svg xmlns="http://www.w3.org/2000/svg" width="16" height="16" viewBox="0 0 16 16">
 <path style="fill:#6d6d70"
       d="m 3,1.0039062 c 0,0 -1,0 -1,1 0,3.9999999 0,7.9999998 0,11.9999998 0,1 1,1 1,1 l 7.25,0 L 10.25,14 4,14 C 4,10.334635 4,6.6692708 4,3.0039062 l 5,0 0,1.9921876 c 0,1 1,1 1,1 l 2,0 0,0.3886718 c 0.140159,0.061739 0.270577,0.1459704 0.380859,0.2558594 l 0.002,0.00195 L 14,8.2480469 14,5 12,3 10.003906,1.0039062 Z m 9,7.3730469 0,4.6269529 -0.25,0 0,1.867188 2.25,-2.234375 0,-2.273438 z"
       />
 <path style="fill:#19b5f1"
       d="m 11.490234,7.0253906 c -0.27231,0.00535 -0.490259,0.2276379 -0.490234,0.5 L 11,10 5.5,10 c -0.2761309,2.8e-5 -0.4999724,0.223869 -0.5,0.5 l 0,2 c 2.76e-5,0.276131 0.2238691,0.499972 0.5,0.5 l 5.5,0 0,2.474609 c 0.0019,0.44306 0.536443,0.664973 0.851562,0.353516 l 4,-3.972656 c 0.197802,-0.195704 0.197802,-0.515234 0,-0.710938 l -4,-3.972656 C 11.7559,7.0761691 11.625535,7.0233184 11.490234,7.0253906 Z"
       />
</svg>

