<svg xmlns="http://www.w3.org/2000/svg" width="16" height="16" viewBox="0 0 16 16">
 <path style="fill:#ffffff"
       d="M 3.6796875,1 C 3.3026272,1 3,1.3026272 3,1.6796875 L 3,2 2,2 C 1.446,2 1,2.446 1,3 l 0,11 c 0,0.554 0.446,1 1,1 l 12,0 c 0.554,0 1,-0.446 1,-1 L 15,3 C 15,2.446 14.554,2 14,2 L 13,2 13,1.6796875 C 13,1.3026272 12.697373,1 12.320312,1 L 10.679688,1 C 10.302627,1 10,1.3026272 10,1.6796875 L 10,2 6,2 6,1.6796875 C 6,1.3026272 5.6973728,1 5.3203125,1 Z M 3,5 13,5 13,13 3,13 Z M 5,6 C 4.446,6 4,6.446 4,7 4,7.554 4.446,8 5,8 5.554,8 6,7.554 6,7 6,6.446 5.554,6 5,6 Z M 8,6 C 7.446,6 7,6.446 7,7 7,7.554 7.446,8 8,8 8.554,8 9,7.554 9,7 9,6.446 8.554,6 8,6 Z m 3,0 c -0.554,0 -1,0.446 -1,1 0,0.554 0.446,1 1,1 0.554,0 1,-0.446 1,-1 C 12,6.446 11.554,6 11,6 Z M 5,9 C 4.446,9 4,9.446 4,10 4,10.554 4.446,11 5,11 5.554,11 6,10.554 6,10 6,9.446 5.554,9 5,9 Z M 8,9 C 7.446,9 7,9.446 7,10 7,10.554 7.446,11 8,11 8.554,11 9,10.554 9,10 9,9.446 8.554,9 8,9 Z m 3,0 c -0.554,0 -1,0.446 -1,1 0,0.554 0.446,1 1,1 0.554,0 1,-0.446 1,-1 0,-0.554 -0.446,-1 -1,-1 z"
       />
</svg>
