<svg xmlns="http://www.w3.org/2000/svg" width="16" height="16" viewBox="0 0 16 16">
 <path style="fill:#6d6d70"
       d="M 8 0.00390625 C 6.8954 0.00390625 6 0.89933635 6 2.0039062 L 2 2.0039062 C 1 2.0039062 1 3.0039062 1 3.0039062 L 1 14.003906 C 1 15.003906 2 15.003906 2 15.003906 L 14 15.003906 C 14 15.003906 15 15.003906 15 14.003906 L 15 3.0039062 C 15 2.0039062 14 2.0039063 14 2.0039062 L 10 2.0039062 C 10 1.8658367 9.99495 1.7278564 9.96875 1.5976562 C 9.78226 0.68628635 8.9666 0.00390625 8 0.00390625 z M 8 1.0039062 C 8.41421 1.0039062 8.75444 1.2699862 8.90625 1.6289062 C 8.95685 1.7485462 9 1.8658364 9 2.0039062 C 9 2.5561863 8.55229 3.0039063 8 3.0039062 C 7.44771 3.0039062 7 2.5561863 7 2.0039062 C 7 1.4516265 7.44771 1.0039064 8 1.0039062 z M 8.0058594 3.0996094 A 0.90008998 0.90008998 0 0 1 8.8417969 3.6796875 L 9.3457031 5.0039062 L 11 5.0039062 L 11 4.0039062 L 13 4.0039062 L 13 13.003906 L 3 13.003906 L 3 4.0039062 L 5 4.0039062 L 5 5.0039062 L 6.6542969 5.0039062 L 7.1582031 3.6796875 A 0.90008998 0.90008998 0 0 1 8.0058594 3.0996094 z M 8 6.53125 L 7.6992188 7.3203125 A 0.90008998 0.90008998 0 0 1 6.8574219 7.9003906 L 6.3867188 7.9003906 L 6.8789062 8.3320312 A 0.90008998 0.90008998 0 0 1 7.1699219 9.1757812 L 7.0351562 9.8828125 L 7.4589844 9.5644531 A 0.90008998 0.90008998 0 0 1 8.5410156 9.5644531 L 8.9648438 9.8828125 L 8.8300781 9.1757812 A 0.90008998 0.90008998 0 0 1 9.1210938 8.3320312 L 9.6132812 7.9003906 L 9.1425781 7.9003906 A 0.90008998 0.90008998 0 0 1 8.3007812 7.3203125 L 8 6.53125 z "
       />
 <path style="fill:#6d6d70"
       d="M 8,3.9999998 6.8574219,6.9999997 4,6.9999997 6.2851562,9.0078123 5.7148438,12 8,10.285156 10.285156,12 9.7148438,9.0078123 12,6.9999997 l -2.8574219,0 z"
       />
</svg>
