<svg xmlns="http://www.w3.org/2000/svg" width="16" height="16" viewBox="0 0 16 16">
  <path
     style="fill:#ffffff"
     d="M 3.6796875 1 C 3.3026272 1 3 1.3026272 3 1.6796875 L 3 2 L 2 2 C 1.446 2 1 2.446 1 3 L 1 14 C 1 14.554 1.446 15 2 15 L 14 15 C 14.554 15 15 14.554 15 14 L 15 3 C 15 2.446 14.554 2 14 2 L 13 2 L 13 1.6796875 C 13 1.3026272 12.697374 1 12.320312 1 L 10.679688 1 C 10.302626 1 10 1.3026272 10 1.6796875 L 10 2 L 6 2 L 6 1.6796875 C 6 1.3026272 5.6973728 1 5.3203125 1 L 3.6796875 1 z M 3 5 L 13 5 L 13 12.730469 L 3 12.730469 L 3 5 z M 7.9863281 5.5 C 7.9281051 5.50323 7.872813 5.5267323 7.8300781 5.5664062 L 4.5800781 8.5664062 C 4.4130247 8.720884 4.5224694 9.0001567 4.75 9 L 6 9 L 6 9.5 L 6 12 L 7 12 L 7 10 L 9 10 L 9 12 L 10 12 L 10 9.5 L 10 9 L 11.25 9 C 11.477531 9.0001568 11.586976 8.720884 11.419922 8.5664062 L 8.1699219 5.5664062 C 8.1202619 5.5203141 8.053983 5.4963406 7.9863281 5.5 z "
     />
</svg>
