<svg xmlns="http://www.w3.org/2000/svg" width="16" height="16"><path fill="#19b5f1" d="M10.932 1a.93.93 0 0 0-.932.932v12.137a.93.93 0 0 0 .932.932h4.137a.93.93 0 0 0 .932-.932V1.932A.93.93 0 0 0 15.068 1h-4.137zM11 2h4v12h-4V2z"/><path fill="#6d6d70" d="M2 1a1 1 0 0 0-1 1v12a1 1 0 0 0 1 1h1a1 1 0 0 0 1-1V2a1 1 0 0 0-1-1H2zm3.932 0A.93.93 0 0 0 5 1.932v.137A.93.93 0 0 0 5.932 3h2.137A.93.93 0 0 0 9 2.068v-.137A.93.93 0 0 0 8.068 1H5.932zm0 4A.93.93 0 0 0 5 5.932v.137A.93.93 0 0 0 5.932 7h2.137A.93.93 0 0 0 9 6.068v-.137A.93.93 0 0 0 8.068 5H5.932zm0 4A.93.93 0 0 0 5 9.932v.137a.93.93 0 0 0 .932.932h2.137A.93.93 0 0 0 9 10.068v-.137A.93.93 0 0 0 8.068 9H5.932zm0 4a.93.93 0 0 0-.932.932v.137a.93.93 0 0 0 .932.932h2.137A.93.93 0 0 0 9 14.068v-.137A.93.93 0 0 0 8.068 13H5.932z"/></svg>