<svg xmlns="http://www.w3.org/2000/svg" width="16" height="16"><path d="M8 3a2 2 0 1 0 0 4 2 2 0 1 0 0-4zm0 4a4 4 0 0 0-4 4 4 1 0 0 0 4 1 4 1 0 0 0 4-1 4 4 0 0 0-4-4z" fill="#fcc907"/><path d="M8 .004a2 2 0 0 0-2 2H2c-1 0-1 1-1 1v11c0 1 1 1 1 1h12s1 0 1-1v-11c0-1-1-1-1-1h-4c0-.138-.005-.276-.031-.406A2.01 2.01 0 0 0 8 .004zm0 1c.414 0 .754.266.906.625A.94.94 0 0 1 9 2.004c0 .026-.013.048-.016.074.904.309 1.616 1.022 1.93 1.922H13v.004V13H3V4.004 4h2.086c.313-.9 1.026-1.613 1.93-1.922C7.013 2.052 7 2.03 7 2.004a1 1 0 0 1 1-1z" fill="#6d6d70"/></svg>