<svg xmlns="http://www.w3.org/2000/svg" width="16" height="16"><path d="M6.343 10v-.657c0-.509.119-.951.356-1.327S7.369 7.24 8 6.816c.607-.397 1.007-.721 1.197-.97.197-.249.295-.527.295-.834 0-.344-.139-.607-.416-.787s-.665-.27-1.163-.27c-.868 0-1.857.26-2.967.779L4 2.993A8.86 8.86 0 0 1 8.104 2c1.192 0 2.137.262 2.837.787A2.48 2.48 0 0 1 12 4.885c0 .583-.145 1.086-.434 1.51s-.839.901-1.649 1.43c-.555.376-.908.662-1.059.858-.145.196-.217.453-.217.771V10zm-.329 2.641c0-.445.13-.781.39-1.009s.639-.342 1.137-.342c.48 0 .85.117 1.111.35.266.233.399.567.399 1.001 0 .419-.133.75-.399.993-.266.238-.636.358-1.111.358-.486 0-.862-.117-1.128-.35-.266-.238-.399-.572-.399-1.001z" fill="#fcc907"/></svg>