<svg xmlns="http://www.w3.org/2000/svg" width="16" height="16"><path fill="#6d6d70" d="M12 0v2h-1.967C10.014 2 10 2.446 10 3l.033 1H12v2h2V4h1.967c.019 0 .033-.446.033-1l-.033-1H14V0h-2zM5 2a2.5 2.5 0 1 0 0 5 2.5 2.5 0 0 0 .545-.062C5.525 6.793 5.5 6.65 5.5 6.5c0-1.293.724-2.418 1.777-3.023A2.5 2.5 0 0 0 5 2zm0 5a4 4 0 0 0-4 4 4 2 0 0 0 3.004 1.936c.024-1.761 1.018-3.242 2.424-4.115a3.54 3.54 0 0 1-.873-1.777A4 4 0 0 0 5 7zm4-3a2.5 2.5 0 1 0 0 5 2.5 2.5 0 1 0 0-5zm0 5a4 4 0 0 0-4 4 4 2 0 0 0 4 2 4 2 0 0 0 4-2 4 4 0 0 0-4-4z"/></svg>