<svg xmlns="http://www.w3.org/2000/svg" width="16" height="16"><path d="M1 5c-.554 0-1 .523-1 1.156v4.563C0 11.352.417 12 .971 12h1.002c0 .633.475 1 1.029 1H4a.93.93 0 0 0 .979-1h6c0 .633.467 1 1.021 1h.996c.554 0 1-.367 1-1H15c.554 0 1-.648 1-1.281V6.156C16 5.523 15.554 5 15 5H1zm0 1h1v2.5V11H1V8.5 6zm2 0h1v2.691V11H3V8.5 6zm2 0h1v2.5V11H5V8.5 6zm7.498 0C13.879 6 15 7.119 15 8.5S13.879 11 12.498 11a2.5 2.5 0 1 1 0-5zm-.006 1a1.503 1.5 0 0 0-1.502 1.5 1.503 1.5 0 0 0 1.502 1.5 1.503 1.5 0 0 0 1.504-1.5A1.503 1.5 0 0 0 12.492 7z" fill="#6d6d70"/></svg>