<svg xmlns="http://www.w3.org/2000/svg" width="16" height="16" viewBox="0 0 16 16">
 <path style="fill:#6d6d70"
       d="M 8 0.00390625 C 6.8954 0.00390625 6 0.89933625 6 2.0039062 L 2 2.0039062 C 1 2.0039062 1 3.0039062 1 3.0039062 L 1 14.003906 C 1 15.003906 2 15.003906 2 15.003906 L 14 15.003906 C 14 15.003906 15 15.003906 15 14.003906 L 15 3.0039062 C 15 2.0039061 14 2.0039062 14 2.0039062 L 10 2.0039062 C 10 1.8658365 9.99495 1.7278563 9.96875 1.5976562 C 9.78226 0.68628625 8.9666 0.00390625 8 0.00390625 z M 8 1.0039062 C 8.41421 1.0039062 8.75444 1.2699862 8.90625 1.6289062 C 8.95685 1.7485462 9 1.8658364 9 2.0039062 C 9 2.5561863 8.55229 3.0039063 8 3.0039062 C 7.44771 3.0039062 7 2.5561863 7 2.0039062 C 7 1.4516263 7.44771 1.0039062 8 1.0039062 z M 3 4.0039062 L 5 4.0039062 L 5 5.0039062 L 11 5.0039062 L 11 4.0039062 L 13 4.0039062 L 13 13.003906 L 3 13.003906 L 3 4.0039062 z "
       />
 <path style="fill:#19b5f1"
       d="M 4.5722656 6.0234375 C 4.2556941 6.0234375 4 6.2464375 4 6.5234375 L 4 11.523438 C 4 11.800439 4.2556941 12.023437 4.5722656 12.023438 L 11.427734 12.023438 C 11.744305 12.023438 12 11.800438 12 11.523438 L 12 6.5234375 C 12 6.2464375 11.744305 6.0234375 11.427734 6.0234375 L 4.5722656 6.0234375 z M 5.5371094 7.03125 L 8 8.6484375 L 10.464844 7.03125 L 11.173828 7.8164062 L 8.3417969 9.6738281 C 8.1387079 9.8069501 7.8612941 9.8069501 7.6582031 9.6738281 L 4.9785156 7.9160156 L 4.8261719 7.8164062 L 5.5371094 7.03125 z "
       />
</svg>

