<svg xmlns="http://www.w3.org/2000/svg" width="16" height="16" viewBox="0 0 16 16">
 <path style="fill:#6d6d70"
       d="M 1,2 C 0.446,2 0,2.446 0,3 l 0,10 c 0,0.554 0.446,1 1,1 L 5.8886719,14 4.4433594,12.564453 C 4.2800695,12.402292 4.1673782,12.206861 4.0957031,12 L 2,12 2,5.2033898 6.3671875,8.5253906 7.8007812,7.1015625 3.6679688,4 12.332031,4 9.6191406,6.0351562 c 0.7561774,0.062307 1.3664644,0.7020094 1.3789064,1.4667969 L 14,5.136 14,9 16,9 16,3 C 16,2.446 15.554,2 15,2 Z"
       />
 <path style="fill:#3caa3e"
       d="m 9.5096795,7.0253906 c 0.27231,0.00535 0.490259,0.2276379 0.490234,0.5 l 0,2.4746094 5.5000005,0 c 0.27613,2.8e-5 0.499972,0.223869 0.5,0.5 l 0,2 c -2.8e-5,0.276131 -0.22387,0.499972 -0.5,0.5 l -5.5000005,0 0,2.474609 c -0.0019,0.44306 -0.536443,0.664973 -0.851562,0.353516 l -4,-3.972656 c -0.197802,-0.195704 -0.197802,-0.515234 0,-0.710938 l 4,-3.972656 c 0.095662,-0.095706 0.226027,-0.1485566 0.361328,-0.1464844 z"
       />
</svg>

