<svg xmlns="http://www.w3.org/2000/svg" width="24" height="24" fill="none"><path fill="#212121" d="M5.694 12 2.299 3.272a.75.75 0 0 1 .942-.982l.093.04 18 9a.752.752 0 0 1 .264 1.124 6.47 6.47 0 0 0-4.272-1.452L4.402 4.54l2.61 6.71h6.627a.75.75 0 0 1 .724.556c-.472.26-.909.578-1.3.944H7.011l-2.609 6.71 6.753-3.377a6.5 6.5 0 0 0-.147 1.75l-7.674 3.838a.75.75 0 0 1-1.065-.847l.03-.096zM23 17.5a5.5 5.5 0 1 0-11 0 5.5 5.5 0 0 0 11 0m-5.5 0h2a.5.5 0 1 1 0 1H17a.5.5 0 0 1-.5-.5v-3a.5.5 0 0 1 1 0z"/></svg>