<svg
        xmlns="http://www.w3.org/2000/svg"
        width="16"
        height="16"
        viewBox="3 3 16 16"
>

    <path
            style="fill:#f03d21"
            d="m 15.77809,7.2218077 a 0.9999904,1 0 0 0 -1.414199,0 0.9999904,1 0 0 0 -0.0014,0.00138 l -2.827,2.8270473 -2.8284004,-2.8284273 a 0.9999904,1 0 0 0 -1.4142,0 0.9999904,1 0 0 0 0,1.4142136 l 2.8284004,2.8284267 -2.8284004,2.828426 a 0.9999904,1 0 0 0 0,1.414214 0.9999904,1 0 0 0 1.4142,0 l 2.8284004,-2.828426 2.827019,2.827045 a 0.9999904,1 0 0 0 0.0014,0.0014 0.9999904,1 0 0 0 1.414199,0 0.9999904,1 0 0 0 0,-1.414214 0.9999904,1 0 0 0 -0.0014,-0.0014 l -2.827018,-2.827045 2.827018,-2.8270457 a 0.9999904,1 0 0 0 0.0014,-0.00138 0.9999904,1 0 0 0 0,-1.4142136 z"
            id="path6" />
</svg>
