<svg xmlns="http://www.w3.org/2000/svg" width="16" height="16" viewBox="0 0 16 16">
 <path style="fill:#6d6d70"
       d="m 12,0 0,2 -1.966797,0 C 10.014423,2 10,2.446 10,3 c 0,0.554 0.01442,1 0.0332,1 L 12,4 l 0,2 2,0 0,-2 1.966797,0 C 15.985577,4 16,3.554 16,3 16,2.446 15.985577,2 15.966797,2 L 14,2 14,0 Z M 3,1 C 2.446,1 2,1.446 2,2 l 0,10 3,3 8,0 c 0.554,0 1,-0.446 1,-1 L 14,7 12,7 12,13 6,13 6,11 4,11 4,3 9,3 9,1 Z M 6,5 C 5.446,5 5,5.446 5,6 5,6.554 5.446,7 6,7 l 4,0 C 10.554,7 11,6.554 11,6 11,5.446 10.554,5 10,5 Z"
       />
</svg>
