<svg xmlns="http://www.w3.org/2000/svg" width="16" height="16" viewBox="0 0 16 16">
 <path style="fill:#6d6d70"
       d="m 8,0.003906 c -1.1046,0 -2,0.89543 -2,2 l -3,0 c -1,0 -1,1 -1,1 l 0,11 c 0,1 1,1 1,1 l 10,0 c 0,0 1,0 1,-1 l 0,-11 C 14,2.0039059 13,2.0039059 13,2.0039059 l -3,0 C 10,1.8658361 9.99495,1.727856 9.96875,1.597656 9.78226,0.686286 8.9666,0.003906 8,0.003906 Z m 0,1 c 0.41421,0 0.75444,0.26608 0.90625,0.625 C 8.95685,1.7485459 9,1.8658361 9,2.0039059 9,2.556186 8.55229,3.003906 8,3.003906 7.44771,3.003906 7,2.556186 7,2.0039059 7,1.4516259 7.44771,1.003906 8,1.003906 Z m -4,3 1,0 0,1 6,0 0,-1 1,0 0,9 -8,0 0,-9 z"
       />
 <path style="fill:#3caa3e"
       d="M 13,3.166016 6.974609,10.0625 4.726562,7.8125 C 4.350484,7.4361 3.667193,7.4362 3.291016,7.8125 3.102927,8.0007 3.007812,8.26595 3.007812,8.53125 c 0,0.2654 0.09511,0.53055 0.283204,0.71875 l 2.998046,3 L 7.068359,13 7.755859,12.1875 15,3.518782 13.705376,2.402088 Z"
       />
</svg>
