<svg xmlns="http://www.w3.org/2000/svg" width="16" height="16" viewBox="0 0 16 16">
 <path style="fill:#6d6d70"
       d="M 6.5292969,2 C 6.3942387,1.9921535 6.2617643,2.0393652 6.1621094,2.1308594 l -6.00000002,5.5 c -0.21697207,0.1982694 -0.21697205,0.5400118 0,0.7382812 L 6.1621094,13.869141 C 6.483027,14.163227 7.0004147,13.935287 7,13.5 L 7,12.804688 2.1621094,8.3691406 c -0.216972,-0.1982694 -0.216972,-0.5400118 0,-0.7382812 L 7,3.1953125 7,2.5 C 7.0004304,2.2349155 6.7939248,2.0155569 6.5292969,2 Z M 10.529297,2 C 10.394239,1.99215 10.261764,2.039365 10.162109,2.1308594 l -5.9999996,5.5 c -0.216972,0.1982694 -0.216972,0.5400118 0,0.7382812 L 10.162109,13.869141 C 10.483027,14.163227 11.000415,13.935291 11,13.5 l 0,-3.5 4,0 c 0.554,0 1,-0.446 1,-1 L 16,7 C 16,6.446 15.554,6 15,6 L 11,6 11,2.5 C 11.00043,2.2349155 10.793925,2.0155569 10.529297,2 Z"
       />
</svg>
