<svg xmlns="http://www.w3.org/2000/svg" width="16" height="16" viewBox="0 0 16 16">
 <path style="fill:#6d6d70"
       d="M 8,0 C 3.5457004,0 1.9257813,3.2426469 1.9257812,7.0605469 1.9257812,10.484247 -2.1229156,13 1.5214844,13 l 12.9570316,0 c 3.644,0 -0.404297,-2.515753 -0.404297,-5.9394531 C 14.074219,3.2426469 12.4541,0 8,0 Z m 0,2 c 2.209139,0 4,1.790861 4,4 0,2 0,3 1,5 L 3,11 C 4,8 4,8 4,6 4,3.790861 5.790861,2 8,2 Z M 5,14 c 0.44321,1.1583 1.6119004,2 3,2 1.3881,0 2.557,-0.842 3,-2 z"
       />
</svg>
