<svg xmlns="http://www.w3.org/2000/svg" width="24" height="24" fill="none"><path fill="#212121" d="M17.5 12a5.5 5.5 0 1 1 0 11 5.5 5.5 0 0 1 0-11m0 7.75a.625.625 0 1 0 0 1.25.625.625 0 0 0 0-1.25m0-5.876c-1.048 0-1.864.817-1.853 1.954a.5.5 0 1 0 1-.01c-.006-.579.36-.944.853-.944.473 0 .854.392.854.95 0 .192-.056.342-.224.56l-.094.117-.1.113-.265.29-.136.157c-.384.457-.535.793-.535 1.31a.5.5 0 1 0 1 0c0-.203.059-.359.239-.59l.085-.104.1-.116.267-.29.134-.155c.378-.45.529-.783.529-1.293 0-1.103-.823-1.95-1.854-1.95Zm-5.478.125a6.5 6.5 0 0 0-.708 1.5H4.253a.75.75 0 0 0-.75.75v.577c0 .536.192 1.054.54 1.461 1.253 1.468 3.219 2.214 5.957 2.214q.895 0 1.68-.106c.245.495.553.953.912 1.366q-1.194.24-2.592.24c-3.146 0-5.532-.905-7.098-2.74a3.75 3.75 0 0 1-.898-2.435v-.577a2.25 2.25 0 0 1 2.249-2.25zM10 2.004a5 5 0 1 1 0 10 5 5 0 0 1 0-10m0 1.5a3.5 3.5 0 1 0 0 7 3.5 3.5 0 0 0 0-7"/></svg>