<svg xmlns="http://www.w3.org/2000/svg" width="16" height="16" viewBox="0 0 16 16">
 <path style="fill:#6d6d70"
       d="M 1,2 C 0.446,2 0,2.446 0,3 l 0,10 c 0,0.554 0.446,1 1,1 l 3,0 0,-2 -2,0 0,-6.7670311 5.4003906,4.0678123 c 0.3554074,0.266243 0.8438114,0.266243 1.1992188,0 L 10,8.25 10,7 c 0,-0.554 0.446,-1 1,-1 l 1,0 c 0.254634,0 0.480068,0.1021899 0.65625,0.2578125 L 16,9.3485302 16,3 C 16,2.446 15.554,2 15,2 Z M 3.6679688,4 12.332031,4 8,7.25 Z"
       />
 <path style="fill:#19b5f1"
       d="m 11.490234,7.0253906 c -0.27231,0.00535 -0.490259,0.2276379 -0.490234,0.5 L 11,10 5.5,10 c -0.2761309,2.8e-5 -0.4999724,0.223869 -0.5,0.5 l 0,2 c 2.76e-5,0.276131 0.2238691,0.499972 0.5,0.5 l 5.5,0 0,2.474609 c 0.0019,0.44306 0.536443,0.664973 0.851562,0.353516 l 4,-3.972656 c 0.197802,-0.195704 0.197802,-0.515234 0,-0.710938 l -4,-3.972656 C 11.7559,7.0761691 11.625535,7.0233184 11.490234,7.0253906 Z"
       />
</svg>

