<svg xmlns="http://www.w3.org/2000/svg" width="24" height="24" fill="none"><path fill="#212121" d="M16 6.5H5.25a1.75 1.75 0 0 0-1.744 1.606l-.004.1L11 12.153l6.03-3.174a3.49 3.49 0 0 0 2.97.985v6.786a3.25 3.25 0 0 1-3.066 3.245L16.75 20H5.25a3.25 3.25 0 0 1-3.245-3.066L2 16.75v-8.5a3.25 3.25 0 0 1 3.066-3.245L5.25 5h11.087A3.5 3.5 0 0 0 16 6.5m2.5 3.399-7.15 3.765a.75.75 0 0 1-.603.042l-.096-.042L3.5 9.9v6.85a1.75 1.75 0 0 0 1.606 1.744l.144.006h11.5a1.75 1.75 0 0 0 1.744-1.607l.006-.143zM19.5 4a2.5 2.5 0 1 1 0 5 2.5 2.5 0 0 1 0-5"/></svg>