<svg xmlns="http://www.w3.org/2000/svg" width="16" height="16"><path d="M0 0v2a1 1 0 1 1 0 2v1a1 1 0 1 1 0 2v2a1 1 0 0 1 1 1 1 1 0 0 1-1 1v1a1 1 0 1 1 0 2v2h2a1 1 0 1 1 2 0h1a1 1 0 1 1 2 0h2a1 1 0 1 1 2 0h1a1 1 0 1 1 2 0h2v-2a1 1 0 1 1 0-2v-1a1 1 0 1 1 0-2V7a1 1 0 1 1 0-2V4a1 1 0 1 1 0-2V0h-2a1 1 0 1 1-2 0h-1a1 1 0 0 1-1 1 1 1 0 0 1-1-1H7a1 1 0 1 1-2 0H4a1 1 0 1 1-2 0H0zm2 2h12v12H2V2zm6 1a2 2 0 1 0 0 4 2 2 0 1 0 0-4zm0 4c-2.209 0-4 1.918-4 4.285C4 12.232 5.791 13 8 13s4-.768 4-1.715C12 8.918 10.209 7 8 7z" fill="#6d6d70"/></svg>