<svg xmlns="http://www.w3.org/2000/svg" width="16" height="16" viewBox="0 0 16 16">
  <path
     style="fill:#6d6d70"
     d="M 3 1 C 2.446 1 2 1.446 2 2 L 2 14 C 2 14.554 2.446 15 3 15 L 13 15 C 13.554 15 14 14.554 14 14 L 14 10.996094 L 13 11.988281 L 13 14 L 3 14 L 3 2 L 13 2 L 13 5.0644531 L 14 6.0566406 L 14 2 C 14 1.446 13.554 1 13 1 L 3 1 z M 10.496094 4.0527344 C 10.225541 4.0549286 10.000047 4.2816939 10.009766 4.5527344 L 10 7.0273438 L 4.5 7.0273438 C 4.223869 7.0273718 4.000028 7.2512128 4 7.5273438 L 4 9.5273438 C 4.000028 9.8034747 4.223869 10.027344 4.5 10.027344 L 10 10.027344 L 10 12.501953 C 10.0019 12.945013 10.536444 13.166926 10.851562 12.855469 L 14.851562 8.8828125 C 15.049364 8.6871085 15.049365 8.367579 14.851562 8.171875 L 10.851562 4.1992188 C 10.757324 4.1049034 10.629281 4.0522626 10.496094 4.0527344 z "
     />
</svg>
