<svg xmlns="http://www.w3.org/2000/svg" width="12" height="12"><path d="M5 0a3 3 0 0 0-3 3c0 .962.462 1.808 1.166 2.357C1.315 6.09 0 7.888 0 10c0 1.105 2.239 2 5 2s5-.895 5-2c0-2.112-1.315-3.91-3.166-4.643C7.538 4.808 8 3.962 8 3a3 3 0 0 0-3-3z" fill="#6d6d70"/><path d="M9.078 3C7.994 3 6.967 3.249 6 3.746l.709 1.307c.833-.39 1.576-.586 2.227-.586.373 0 .663.068.871.203a.66.66 0 0 1 .313.59c0 .231-.073.44-.221.627s-.443.43-.898.729c-.473.318-.799.618-.977.9s-.266.614-.266.996v.492h1.725v-.41c0-.239.054-.431.162-.578s.376-.362.793-.645c.607-.398 1.019-.754 1.236-1.072S12 5.603 12 5.166c0-.656-.264-1.183-.793-1.576S9.972 3 9.078 3zm-.422 6.973c-.373 0-.658.085-.854.256s-.293.424-.293.758c0 .322.101.573.301.752s.481.262.846.262c.356 0 .632-.089.832-.268s.301-.432.301-.746c0-.326-.101-.577-.301-.752s-.472-.262-.832-.262z" fill="#fcc907"/></svg>