<svg xmlns="http://www.w3.org/2000/svg" width="16" height="16"><path d="M3.68 1a.68.68 0 0 0-.68.68V2H2a1 1 0 0 0-1 1v11a1 1 0 0 0 1 1h4v-2H3V5h10v1h2V3a1 1 0 0 0-1-1h-1v-.32a.68.68 0 0 0-.68-.68H10.68a.68.68 0 0 0-.68.68V2H6v-.32A.68.68 0 0 0 5.32 1zM5 6a1 1 0 1 0 0 2 1 1 0 1 0 0-2zm0 3a1 1 0 1 0 0 2 1 1 0 1 0 0-2z" fill="#6d6d70"/><path d="M15.778 7.222a1 1 0 0 0-1.416.001l-2.827 2.827-2.828-2.828a1 1 0 0 0-1.414 1.414l2.828 2.828-2.828 2.828a1 1 0 0 0 1.414 1.414l2.828-2.828 2.827 2.827a1 1 0 0 0 1.416.001 1 1 0 0 0-.001-1.416l-2.827-2.827 2.827-2.827a1 1 0 0 0 .001-1.416z" fill="#f03d21"/></svg>