<svg xmlns="http://www.w3.org/2000/svg" width="24" height="24" fill="none"><path fill="#212121" d="M17.5 12a5.5 5.5 0 1 1 0 11 5.5 5.5 0 0 1 0-11m-2.646 5.146a.5.5 0 0 0-.707.707l2 2a.5.5 0 0 0 .707 0l4-4a.5.5 0 0 0-.707-.707L16.5 18.793zM12.022 14a6.5 6.5 0 0 0-.708 1.5H4.253a.75.75 0 0 0-.75.75v.577c0 .536.192 1.054.54 1.461 1.253 1.468 3.219 2.214 5.957 2.214q.895 0 1.68-.106c.245.495.553.953.912 1.366q-1.194.24-2.592.24c-3.146 0-5.532-.905-7.098-2.74a3.75 3.75 0 0 1-.898-2.435v-.577A2.25 2.25 0 0 1 4.253 14zM10 2.004a5 5 0 1 1 0 10 5 5 0 0 1 0-10m0 1.5a3.5 3.5 0 1 0 0 7 3.5 3.5 0 0 0 0-7"/></svg>