<svg xmlns="http://www.w3.org/2000/svg" width="16" height="16" fill="#6d6d70"><path d="M10 3a2.5 2.5 0 1 0 0 5 2.5 2.5 0 1 0 0-5zm0 5a4 4 0 0 0-4 4 4 2 0 0 0 4 2 4 2 0 0 0 4-2 4 4 0 0 0-4-4z"/><path d="M6 2a4 4 0 0 0-4 4 4 4 0 0 0 3.979 3.998 4.46 4.46 0 0 1 .453-.703L6 9.334a3.28 3.28 0 0 1-.375-.021l-.291-.041c-.189-.039-.367-.118-.543-.187-.006-.011-.021-.03-.02-.043.035-.015.1.049.125 0 .013-.023-.017-.08 0-.104.012-.016.079-.017.104-.021.035-.007.084-.01.104-.02s.047-.064.043-.105c-.002-.019-.028-.024-.043-.041s.009-.027 0-.041c-.016-.023-.056-.028-.062-.062.048-.009.118.039.188.02.033-.009.09-.073.105-.104.005-.009-.005-.029 0-.041l.02-.043c.012-.054.042-.079.063-.104.015-.019.048-.043.063-.062s.011-.022.021-.041c.01-.061-.036-.115-.021-.168.016-.06.11-.098.168-.125.02-.009.046-.014.063-.02l.125-.043c.063-.023.073-.068.104-.125.015-.027.038-.062.041-.082s-.003-.022 0-.043-.005-.04 0-.062A.69.69 0 0 0 6 7.479c0-.027-.021-.038-.021-.062-.005-.087.031-.078.063-.125.016-.023.032-.065.043-.082.054-.08.151-.109.145-.23-.003-.04-.033-.132-.062-.145-.017-.007-.038-.013-.063-.021-.079-.029-.147-.118-.229-.125h-.041c-.032 0-.069-.017-.105-.021-.023-.007-.069.007-.082 0-.021-.01-.026-.051-.043-.062s-.042-.012-.062-.02c-.033-.012-.044-.04-.082-.043-.012 0-.03.007-.043 0-.021-.007-.043-.008-.062-.02s-.053-.022-.062-.043c.022-.072-.048-.083-.062-.125-.007-.019.007-.065 0-.082-.009-.025-.035-.042-.062-.062a.244.244 0 0 0-.145-.062c-.031-.007-.069.007-.105 0s-.096-.029-.125-.062-.038-.069-.062-.084-.047-.026-.062-.041c-.007-.007-.013-.006-.02-.021-.012-.025-.036-.032-.021-.062-.027-.013-.012.026-.041.021-.026-.037-.047-.073-.105-.062-.027.007-.051.062-.082.063-.026 0-.05-.057-.084-.062-.026-.007-.066.023-.084.02-.029-.007-.037-.024-.063-.041-.019-.013-.052-.042-.062-.041-.033 0-.058.065-.104.041-.023-.029.048-.036.021-.062-.02-.019-.027.012-.043.021s-.042.012-.062.02c-.046.017-.089.024-.125.043s-.043.028-.062.063c-.015.028-.039.081-.062.082s-.037-.03-.062-.041c-.077-.033-.124.02-.187.021s-.147-.091-.145-.146c.002-.034.016-.083.02-.125.003-.033.042-.073.043-.104.001-.041-.079-.058-.105-.062-.063-.011-.136.028-.207 0-.013-.023.012-.04.02-.062.005-.012-.005-.029 0-.043.008-.021.053-.04.063-.062.007-.017-.007-.04 0-.062s.041-.045.043-.062c.003-.023-.025-.048-.043-.062-.055.007-.093.005-.125.021-.072.033-.052.124-.125.146a.59.59 0 0 1-.082.02c-.012.007-.029-.001-.043 0 .003-.035.018-.047.021-.062a3.33 3.33 0 0 1 .209-.625h.02c.025.007.041.041.063.043.061.007.074-.057.125-.084.052.007.078-.007.125 0 .032.007.08.038.105.041s.021-.022.041-.02.059.038.063.063c.003.03-.03.07-.021.104.031.032.102.044.146.063.029-.025.005-.069 0-.104v-.062c-.003-.024-.021-.042-.021-.062 0-.095.082-.131.146-.168.027-.016.06-.051.084-.062.034-.017.054-.004.082-.02.051-.029.086-.073.125-.105.018-.043-.002-.102 0-.145.018-.011.043 0 .063 0 .031-.007.045-.045.063-.062.01-.01.031-.011.043-.021.031-.024.036-.052.063-.062a.131.131 0 0 1 .041-.021c.02-.007.052-.008.084-.02.021-.007.074-.013.082-.021s-.003-.047 0-.062c.016-.075.12-.078.188-.104.047-.017.094-.072.146-.062-.01.036-.05.039-.041.082.011.061.082-.011.104-.02l.166-.062c.047-.017.128-.03.084-.084-.037-.007-.052.028-.084.041-.022.007-.022-.018-.041-.02s-.023.023-.041.02-.04-.041-.043-.062c-.007-.056.04-.062.063-.104-.015-.051-.082-.021-.125-.041a.074.074 0 0 1 .063-.062c.029-.007.108.004.125.02.01.009-.015.029 0 .043s.04.007.063 0c.008-.038-.048-.018-.041-.043.045-.029.132-.012.188-.02.032-.007.075-.028.104-.043s.035-.045.063-.02c.008.027-.004.048-.02.063-.051.045-.106.092-.146.145.025.024.062.017.104.021.016.007.046-.003.063 0s.046-.007.063 0c.028.007.035.063.063.063.045 0 .026-.054 0-.084.008-.031.033-.06.021-.082-.021-.041-.1.011-.104-.043-.003-.033.029-.037.041-.062-.005-.064.048-.067.041-.125-.003-.024-.024-.018-.041-.041-.009-.012-.012-.053-.021-.062-.035-.029-.1-.006-.104-.062-.002-.033.005-.068 0-.104s-.033-.14-.062-.146c-.037-.008-.059.063-.104.084a.261.261 0 0 1-.105.02c-.016-.007-.039-.01-.041-.041s.031-.041.041-.062c.003-.005-.001-.014 0-.021l.146-.041.084-.021c.02-.004.042.004.063 0l.27-.041L6 2.666c.115 0 .222.01.334.021.027.003.055-.003.082 0 .035.004.071.016.105.021.096.015.177.039.27.063.171.042.34.099.5.166.088.037.166.081.25.125v.021c.019.009.03.045.063.063.012.007.01.014.021.02.019.011.045.024.041.043-.005.027-.044.02-.062.041.003.039-.031.037-.041.063.006.017.038.021.041.041-.003.021-.049.021-.041.043.036.028.07.007.104 0 .075-.009.142-.005.188-.043-.006-.035.066-.03.063-.062l.041.027c.168-.157.356-.29.557-.406A3.97 3.97 0 0 0 6 2zm-1.354.979c-.021.122-.136.171-.271.168-.031.029-.005.084-.021.125-.014.034-.07.065-.104.063-.025 0-.062-.039-.062-.062 0-.029.046-.03.021-.062.001-.007.013-.015.02-.021.013-.009.029-.013.043-.021.121-.074.245-.129.375-.187zm2.791.125c-.012.007-.011.015-.021.021-.025.015-.043.034-.062.041-.027.01-.058.018-.062.043s.022.022.021.041c-.01.025-.016.033-.021.063.034.055.104-.013.146-.021.019-.007.031-.004.041-.02s.013-.037.021-.062.044-.038.041-.062-.062-.046-.104-.043zm.406.322c-.016.018-.039.053-.053.053-.019 0-.048-.024-.062-.02-.02.007-.018.033-.041.041-.044.016-.131-.025-.146.041.019.038.092.022.125.043.008.005.014.018.023.029l.154-.187zm-4.053.096c.032.025.077.08.021.104a.34.34 0 0 1-.104.021c-.006 0-.016-.017-.021-.021l.104-.104zm.125.125c.016 0 .024.04.043.041s.03-.024.041-.021c.028.007.048.063.021.084-.022.007-.027-.024-.043-.021-.045.008-.07.108-.104.105s-.054-.082-.021-.105v-.041c.01-.012.036-.043.063-.041zm-.166.02c.009 0 .018-.007.021 0-.005.035-.016.046-.043.063-.047.029-.088.064-.104.125-.005.018-.061.067-.084.063-.053-.011.031-.11.043-.125s.026-.022.041-.041.026-.052.041-.062.056-.023.084-.021zm.334.125h.063c.017 0 .034-.007.041 0-.011.044-.112.037-.146.021.002-.017.022-.019.043-.021zm3.311.023c-.044-.003-.08.002-.104.039.003.057.013.097 0 .146-.009.036-.064.072-.062.104.001.016.039.04.043.063.003.012-.005.032 0 .043s.022.003.033 0a3 3 0 0 1 .207-.379l-.117-.016zm-3.457.061c-.029.021-.057.048-.104.063-.025.008-.058.007-.062-.021-.005-.035.04-.016.063-.02.029-.007.07-.02.104-.021zm3.189.811c-.024.032-.043.066-.086.086-.018.008-.046.008-.062.02s-.022.041-.041.063-.05.043-.062.063-.012.041-.021.063c-.015.028-.044.034-.062.063-.009.013-.01.045-.02.063-.021.039-.047.071-.043.105s.041.033.043.063c.002.016-.022.023-.021.041.001.025.02.043.021.063.005.049-.034.07-.043.104-.005.016.004.03 0 .043-.008.025-.04.053-.041.082-.001.021.039.033.041.063.001.019-.024.044-.02.063.007.036.076.077.104.105.038.038.087.064.104.104.014.034.017.1.043.125.019.019.057.021.082.041.017.013.032.021.047.031A2.43 2.43 0 0 1 7 5.5c0-.284.053-.554.127-.814zm-4.418.855c.038.034.059.083.104.105.017.009.041.014.063.02s.024-.005.041 0c.035.012.077.03.105.043.043.019.088.082.125.104.002.021-.007.046 0 .063a.21.21 0 0 0 .063.063c.034.019.05.048.082.063.011.007.026-.007.043 0 .044.013.066.074.104.063.025-.007.017-.038.021-.062.017-.018.036-.041.063-.041.041 0 .047.063.063.104.009.023.035.038.041.063a.63.63 0 0 1 0 .188c-.011.031-.059.029-.084.063-.012.016-.01.051-.02.063-.016.019-.031.022-.043.041-.007.01-.014.029-.02.043-.02.043-.06.074-.043.125.007.021.043.038.043.063s-.058.05-.062.082c-.003.023.012.053.02.084.005.023.049.047.063.063.023.026.041.071.063.104.042.065.064.146.105.209.022.033.067.05.082.084.007.017-.007.046 0 .063.024.054.134.118.188.145.025.013.061.008.084.021.035.02.107.072.125.104s.013.102.021.146c.01.059-.003.103 0 .166.002.035.02.05.02.084v.188c-.002.023-.001.043 0 .063s.02.022.021.041-.024.047-.021.063c.005.042.035.067.043.105a.611.611 0 0 1 .02.145c-.003.019-.017.04-.02.063s.003.027 0 .043.004.028 0 .041l-.062-.041a3.507 3.507 0 0 1-.5-.418l-.062-.062a3.516 3.516 0 0 1-.334-.416c-.009-.013-.013-.028-.021-.041a3.25 3.25 0 0 1-.291-.543c-.006-.014-.016-.027-.021-.041a3.39 3.39 0 0 1-.166-.541l-.021-.105-.041-.27L2.666 6c0-.158.022-.306.043-.459z"/></svg>