<svg xmlns="http://www.w3.org/2000/svg" width="16" height="16" viewBox="0 0 16 16">
  <path
     style="fill:#6d6d70"
     d="m 1,5 0,2 c 4.418278,0 8,3.581722 8,8 l 2,0 C 11,9.4771525 6.5228475,5 1,5 Z m 0,4 0,2 c 2.209139,0 4,1.790861 4,4 l 2,0 C 7,11.686292 4.3137085,9 1,9 Z m 1,4 c -0.5522847,0 -1,0.447715 -1,1 0,0.552285 0.4477153,1 1,1 0.5522847,0 1,-0.447715 1,-1 0,-0.552285 -0.4477153,-1 -1,-1 z"
     />
  <path
     style="fill:#19b5f1"
     d="m 1,1 0,2 c 6.627417,0 12,5.372583 12,12 l 2,0 C 15,7.2680135 8.7319865,1 1,1 Z"
     />
</svg>
