<svg xmlns="http://www.w3.org/2000/svg" width="12" height="12" viewBox="0 0 12 12">
 <path style="fill:#6d6d70"
       d="M 5 0 C 3.3431458 0 2 1.3431458 2 3 C 2.0000001 3.962211 2.4616532 4.8084484 3.1660156 5.3574219 C 1.3145138 6.0900647 -4.9999999e-08 7.8878799 0 10 C 0 11.104569 2.2385762 12 5 12 C 7.7614237 12 10 11.104569 10 10 C 10 7.8878799 8.6854861 6.0900647 6.8339844 5.3574219 C 7.5383468 4.8084484 7.9999999 3.962211 8 3 C 8 1.3431458 6.6568542 0 5 0 z "
       />
 <path style="fill:#19b5f1"
       d="M 10 2 C 9.4477 2 9 2.448 9 3 C 9 3.552 9.4477 4 10 4 C 10.5523 4 11 3.552 11 3 C 11 2.448 10.5523 2 10 2 z M 9 5 L 9 11 L 11 11 L 11 5 L 9 5 z "
       />
</svg>

