<svg xmlns="http://www.w3.org/2000/svg" width="16" height="16" fill="#6d6d70"><path d="M8 .004a2 2 0 0 0-2 2H2c-1 0-1 1-1 1v11c0 1 1 1 1 1h12s1 0 1-1v-11c0-1-1-1-1-1h-4c0-.138-.005-.276-.031-.406A2.01 2.01 0 0 0 8 .004zm0 1c.414 0 .754.266.906.625A.94.94 0 0 1 9 2.004a1 1 0 1 1-2 0 1 1 0 0 1 1-1zM8.006 3.1a.9.9 0 0 1 .836.58l.504 1.324H11v-1h2v9H3v-9h2v1h1.654l.504-1.324a.9.9 0 0 1 .848-.58zM8 6.531l-.301.789a.9.9 0 0 1-.842.58h-.471l.492.432a.9.9 0 0 1 .291.844l-.135.707.424-.318a.9.9 0 0 1 1.082 0l.424.318-.135-.707a.9.9 0 0 1 .291-.844l.492-.432h-.471a.9.9 0 0 1-.842-.58L8 6.531z"/><path d="M8 4 6.857 7H4l2.285 2.008L5.715 12 8 10.285 10.285 12l-.57-2.992L12 7H9.143z"/></svg>