<svg xmlns="http://www.w3.org/2000/svg" width="16" height="16"><path fill="#6d6d70" d="M12 0v2h-1.967C10.014 2 10 2.446 10 3l.033 1H12v2h2V4h1.967c.019 0 .033-.446.033-1l-.033-1H14V0h-2zM7 .004a2 2 0 0 0-2 2H2c-1 0-1 1-1 1v11c0 1 1 1 1 1h12s1.141-.01 1-1V7h-2v6.004H3v-9h1v1h5V2c0-.137-.005-.273-.031-.402A2.01 2.01 0 0 0 7 .004zm0 1c.414 0 .754.266.906.625A.94.94 0 0 1 8 2.004a1 1 0 1 1-2 0 1 1 0 0 1 1-1zM4.572 6C4.256 6 4 6.223 4 6.5v5c0 .277.256.5.572.5h6.855c.317 0 .572-.223.572-.5v-5c0-.277-.256-.5-.572-.5H4.572zm.965 1.008L8 8.625l2.465-1.617.709.785L8.342 9.65a.636.636 0 0 1-.684 0l-2.68-1.758-.152-.1.711-.785z"/></svg>