<svg xmlns="http://www.w3.org/2000/svg" width="16" height="16" viewBox="0 0 16 16">
 <path style="fill:#6d6d70"
       d="M 12 0 L 12 2 L 10.033203 2 C 10.014423 2 10 2.446 10 3 C 10 3.554 10.014423 4 10.033203 4 L 12 4 L 12 6 L 14 6 L 14 4 L 15.966797 4 C 15.985577 4 16 3.554 16 3 C 16 2.446 15.985577 2 15.966797 2 L 14 2 L 14 0 L 12 0 z M 5 2 A 2.5 2.5 0 0 0 2.5 4.5 A 2.5 2.5 0 0 0 5 7 A 2.5 2.5 0 0 0 5.5449219 6.9375 C 5.5251155 6.7929386 5.5 6.6501903 5.5 6.5 C 5.5 5.206819 6.2237278 4.082407 7.2773438 3.4765625 A 2.5 2.5 0 0 0 5 2 z M 5 7 A 4 4 0 0 0 1 11 A 4 2 0 0 0 4.0039062 12.935547 C 4.0281512 11.174896 5.0215078 9.6933243 6.4277344 8.8203125 C 5.9833995 8.3280687 5.6696134 7.7187289 5.5546875 7.0429688 A 4 4 0 0 0 5 7 z M 9 4 A 2.5 2.5 0 0 0 6.5 6.5 A 2.5 2.5 0 0 0 9 9 A 2.5 2.5 0 0 0 11.5 6.5 A 2.5 2.5 0 0 0 9 4 z M 9 9 A 4 4 0 0 0 5 13 A 4 2 0 0 0 9 15 A 4 2 0 0 0 13 13 A 4 4 0 0 0 9 9 z "
       />
</svg>
