<svg xmlns="http://www.w3.org/2000/svg" width="16" height="16" fill-rule="evenodd" viewBox="0 0 86.5 122.88"><path fill="#999" d="M5.54 53.25H81a5.57 5.57 0 0 1 5.54 5.54v58.55a5.56 5.56 0 0 1-5.54 5.54H5.54A5.55 5.55 0 0 1 0 117.34V58.79a5.56 5.56 0 0 1 5.54-5.54Z"/><path fill="#666" d="m38.7 91.82-6 15.66h21.07L48.23 91.6a10.9 10.9 0 1 0-9.53.22zm27.99-57.66a25.17 25.17 0 0 0-6.94-16.49 22.56 22.56 0 0 0-33 0 25.22 25.22 0 0 0-7 17.52v18.06H9.29V35.19a35.76 35.76 0 0 1 9.91-24.77 33 33 0 0 1 48.09 0 35.69 35.69 0 0 1 9.9 23.74z"/></svg>