<svg xmlns="http://www.w3.org/2000/svg" width="16" height="16" fill-rule="evenodd" viewBox="0 0 106.11 122.88"><path fill="#6d6d70" d="M56.36 2.44A104.34 104.34 0 0 0 79.77 13.9a48.25 48.25 0 0 0 19.08 2.57l6.71-.61.33 6.74c1.23 24.79-2.77 46.33-11.16 63.33-8.73 17.67-22.15 30.44-39.38 36.93h-4.48c-16.85-6.15-30.16-18.57-39-36.47C3.63 69.58-.61 47.88.07 22l.17-6.65 6.62.34a64.65 64.65 0 0 0 21.37-2.19A60.41 60.41 0 0 0 48.92 2.79L52.51 0l3.85 2.44z"/><path fill="#fff" d="M52.89 7.91c17.38 11 33.07 16.22 46.55 15 2.35 47.59-15.22 82.18-46.37 93.9C23 105.83 5.21 72.45 6.53 22.18c15.81.82 31.33-2.59 46.36-14.27Z"/><path fill="#6d6d70" d="M52.92 16.31c14.47 9.17 27.54 13.51 38.76 12.49 2 39.63-12.68 69.83-38.61 79.6C28 99.26 13.2 70.06 14.3 28.2c13.17.69 26.1-2.16 38.62-11.89Z"/><path fill="#fff" d="M37.13 49.73H40v-2a13.73 13.73 0 0 1 3.82-9.54 12.7 12.7 0 0 1 18.52 0 13.77 13.77 0 0 1 3.82 9.54v2H69a2.14 2.14 0 0 1 2.14 2.13v26.91A2.14 2.14 0 0 1 69 80.9H37.13A2.13 2.13 0 0 1 35 78.77V51.86a2.13 2.13 0 0 1 2.13-2.13Zm11.63 15.16a14.8 14.8 0 0 1 1.51 1.46A59.7 59.7 0 0 1 55 59.81c4.68-5.66 2.56-4.57 9.06-4.57l-.91 1a64.73 64.73 0 0 0-6 8A94.44 94.44 0 0 0 51 74.38l-.56 1.09-.52-1.11a26.94 26.94 0 0 0-3.46-5.6 18.68 18.68 0 0 0-4.4-4c.85-2.78 4.88-1.36 6.68.17ZM44 49.73h18.09v-2A9.73 9.73 0 0 0 59.41 41a8.69 8.69 0 0 0-12.72 0A9.73 9.73 0 0 0 44 47.74v2Z"/></svg>