<svg xmlns="http://www.w3.org/2000/svg" width="16" height="16" fill-rule="evenodd" viewBox="0 0 93.63 122.88"><path fill="#00d423" d="M6 47.51h81.64a6 6 0 0 1 6 6v63.38a6 6 0 0 1-6 6H6a6 6 0 0 1-6-6V53.5a6 6 0 0 1 6-6Z"/><path fill="#666" d="m41.89 89.26-6.47 16.95h22.79l-6-17.21a11.79 11.79 0 1 0-10.32.24zm41.68-41.75H72.22v-9.42a27.32 27.32 0 0 0-7.54-19 24.4 24.4 0 0 0-35.73 0 27.32 27.32 0 0 0-7.54 19v9.42H10.06v-9.42a38.73 38.73 0 0 1 10.72-26.81 35.69 35.69 0 0 1 52.07 0 38.67 38.67 0 0 1 10.72 26.81v9.42z"/></svg>