<svg xmlns="http://www.w3.org/2000/svg" width="16" height="16" shape-rendering="geometricPrecision" image-rendering="optimizeQuality" fill-rule="evenodd" viewBox="0 0 500 512.24"><path d="M65.5 0h315.71c6.94 0 12.61 5.68 12.61 12.63v157.15c-23.99-12.13-50.71-18.61-78.16-18.61-23.45 0-45.88 4.68-66.32 13.18A172.735 172.735 0 0 0 193.06 202c-45.13 45.11-61.73 111.81-43.51 172.45h-88.7c-19 0-34.53 15.55-34.53 34.53 0 19 15.55 34.54 34.53 34.54h128.59l3.6 3.7c8.17 8.17 17.05 15.43 26.51 21.73H62.16C27.97 468.95 0 440.99 0 406.8V65.51C0 29.48 29.47 0 65.5 0zm253.98 185.1c38.15 0 74.59 15.1 101.56 42.06 37.26 37.26 51.12 92.19 36.11 142.62a142.778 142.778 0 0 1-14.59 33.02l55.63 60.63a6.892 6.892 0 0 1-.4 9.71l-40.85 37.3c-2.79 2.56-7.13 2.36-9.69-.43l-53.21-58.53c-22.53 13.73-48.17 20.89-74.56 20.89-38.15 0-74.59-15.1-101.56-42.07a143.873 143.873 0 0 1-31.17-46.64c-22.26-53.62-9.61-115.7 31.19-156.48 13.19-13.22 29-23.88 46.61-31.17 16.94-7.04 35.51-10.91 54.93-10.91zm81.04 62.59c-32.71-32.72-82.29-42.55-124.89-24.9-76.44 31.65-94 130.21-37.21 186.97 32.77 32.69 82.24 42.57 124.9 24.91 42.88-17.81 70.76-59.52 70.76-105.94 0-15.55-3.07-30.38-8.65-43.83-5.82-14-14.33-26.63-24.91-37.21zM58.17 416.08h106.68l1.9 2.92c2.34 3.48 4.79 6.87 7.34 10.16H58.17c-2.75 0-5.02-2.25-5.02-5.01v-3.05c0-2.75 2.25-5.02 5.02-5.02zm0-25.9h92.97c1.87 4.43 3.95 8.8 6.23 13.08h-99.2c-2.75 0-5.02-2.25-5.02-5.01v-3.05c0-2.77 2.25-5.02 5.02-5.02zm19.5-339.05h10.91c5.59 0 10.15 3.69 10.15 8.21v257.5c0 4.51-4.57 8.2-10.15 8.2H77.67c-5.58 0-10.14-3.69-10.14-8.2V59.33c0-4.51 4.56-8.2 10.14-8.2z" fill="#6d6d70"/></svg>
