<svg xmlns="http://www.w3.org/2000/svg" width="20" height="20" viewBox="0 0 108.05 122.88"><path fill="#6d6d70" fill-rule="evenodd" d="M2.89 56.04h14.93V37.12c0-10.21 4.18-19.48 10.9-26.21v-.01C35.44 4.18 44.73 0 54.94 0c10.2 0 19.48 4.18 26.21 10.9l.01.01c6.72 6.72 10.9 16 10.9 26.21v18.91h13.11a2.9 2.9 0 0 1 2.89 2.89v61.06a2.9 2.9 0 0 1-2.89 2.89H2.89A2.9 2.9 0 0 1 0 119.98V58.93a2.9 2.9 0 0 1 2.89-2.89m22.9 29.75a7.92 7.92 0 0 1 7.92 7.91 7.92 7.92 0 1 1-15.84 0 7.91 7.91 0 0 1 7.92-7.91m56.48 0a7.91 7.91 0 0 1 7.91 7.91 7.92 7.92 0 0 1-7.91 7.92 7.92 7.92 0 0 1-7.92-7.92 7.92 7.92 0 0 1 7.92-7.91m-28.24 0a7.91 7.91 0 0 1 7.91 7.91 7.92 7.92 0 0 1-7.91 7.92 7.92 7.92 0 0 1-7.92-7.92 7.91 7.91 0 0 1 7.92-7.91m-38.44-5.83h76.86a7.47 7.47 0 0 1 7.45 7.44V100a7.47 7.47 0 0 1-7.45 7.44H15.59c-4.09 0-7.44-3.35-7.44-7.44V87.4c0-4.09 3.35-7.44 7.44-7.44m16.65-23.92h45.39V36.91c0-6.24-2.55-11.92-6.66-16.03s-9.79-6.67-16.02-6.67c-6.24 0-11.92 2.55-16.03 6.66s-6.66 9.79-6.66 16.03v18.05z"/></svg>