<svg xmlns="http://www.w3.org/2000/svg" width="17" height="16" fill="none"><path fill="#000" fill-rule="evenodd" d="m3.49 1.302-.181.849a.38.38 0 0 1-.293.292l-.85.183c-.401.087-.401.66 0 .747l.85.182a.38.38 0 0 1 .293.293l.182.85c.087.401.66.401.747 0l.183-.85a.38.38 0 0 1 .293-.292l.848-.183c.402-.088.402-.662 0-.748l-.85-.182a.381.381 0 0 1-.292-.292l-.182-.85C4.15.9 3.577.9 3.49 1.302Zm7.375 12.697a1.62 1.62 0 0 1-1.615-1.305l-.357-1.667a1.377 1.377 0 0 0-1.056-1.054L6.17 9.616A1.622 1.622 0 0 1 4.865 8 1.62 1.62 0 0 1 6.17 6.385l1.667-.357a1.38 1.38 0 0 0 1.056-1.056l.358-1.668A1.618 1.618 0 0 1 10.865 2a1.62 1.62 0 0 1 1.615 1.304l.357 1.667c.114.529.528.942 1.056 1.056l1.667.356A1.622 1.622 0 0 1 16.865 8a1.62 1.62 0 0 1-1.305 1.614l-1.667.357a1.378 1.378 0 0 0-1.056 1.057l-.358 1.666A1.618 1.618 0 0 1 10.865 14Zm0-10.75c-.098 0-.331.03-.392.317l-.358 1.668A2.63 2.63 0 0 1 8.099 7.25l-1.667.356c-.286.063-.317.296-.317.394 0 .098.03.33.317.393l1.667.356a2.63 2.63 0 0 1 2.016 2.016l.358 1.668c.06.287.294.316.392.316.098 0 .33-.03.392-.316l.358-1.666a2.63 2.63 0 0 1 2.016-2.018l1.667-.357c.286-.061.317-.294.317-.392 0-.098-.031-.332-.317-.394L13.63 7.25a2.63 2.63 0 0 1-2.016-2.016l-.358-1.668c-.061-.286-.294-.317-.392-.317ZM3.309 12.15l.182-.848c.086-.402.66-.402.747 0l.182.848a.381.381 0 0 0 .293.293l.849.183c.402.085.402.66 0 .747l-.85.182a.381.381 0 0 0-.292.293l-.182.848c-.086.402-.66.402-.747 0l-.182-.848a.381.381 0 0 0-.293-.293l-.85-.182c-.401-.086-.401-.66 0-.747l.85-.182a.38.38 0 0 0 .293-.294Z" clip-rule="evenodd"/></svg>