<svg xmlns="http://www.w3.org/2000/svg" width="17" height="16" fill="none"><path fill="#000" fill-rule="evenodd" d="M8.782 2.639a.74.74 0 0 0-.657-.389.74.74 0 0 0-.657.389l-5.497 10a.74.74 0 0 0 .012.743.74.74 0 0 0 .645.368h10.994a.73.73 0 0 0 .645-.368.74.74 0 0 0 .012-.743zm-2.41-.602A1.98 1.98 0 0 1 8.126 1a1.98 1.98 0 0 1 1.753 1.036l5.497 10c.733 1.333-.231 2.964-1.752 2.964H2.628C1.107 15 .142 13.37.876 12.037zM8.75 9.062a.625.625 0 0 1-1.25 0V5.625a.625.625 0 1 1 1.25 0zM7.75 12l-.25-.25V11l.25-.25h.75l.25.25v.75L8.5 12z" clip-rule="evenodd"/></svg>