<svg xmlns="http://www.w3.org/2000/svg" width="64" height="64"><path d="M25.471 9.493c-.169 2.648 4.668 4.953 9.234 4.036 5.922-.987 6.694-6.143 1.27-7.751-4.574-1.623-10.817.767-10.504 3.716zM4.525 17.652c-.456-5.819 4.75-11.725 13.913-14.554C29.752-.872 45.496 1.401 53.604 7.11c9.276 6.189 7.158 16.208-3.171 21.594-1.784 1.636-6.38 1.214-7.068 3.186-1.04.972-1.288 2.05-1.233 3.168 1.015 2-3.832 1.633-3.271 3.76.589 5.265-.179 10.537-.363 15.806-.492 2.185 1.163 4.574-.735 6.611-2.483 2.325-7.306 2.189-9.193-.275-2.734-1.741-8.254-3.615-6.104-6.34 3.468-1.709-2.116-3.45.431-5.08 5.058-1.393-2.393-2.304-.147-4.335 3.069-.977 2.057-2.518-.219-3.54 1.877-1.807 1.484-4.869-2.565-5.942.151-1.805 2.906-4.137-1.68-5.205-8.025-2.636-13.598-7.568-13.761-12.866z" fill="#ff0" stroke="#000" stroke-width="1.727"/></svg>