<svg xmlns="http://www.w3.org/2000/svg" width="40" height="40"><g stroke="#000"><path d="M1.77 2.597H38.23v34.806H1.77z" fill="#ff0" fill-rule="evenodd" stroke-width="1.308"/><path d="M19.999 6.263c-7.585 0-13.734 6.149-13.734 13.734s6.149 13.734 13.734 13.734 13.734-6.149 13.734-13.734S27.585 6.263 19.999 6.263zm-.363 8.422c3.131 0 5.675 2.521 5.675 5.623s-2.545 5.623-5.675 5.623-5.675-2.521-5.675-5.623 2.545-5.623 5.675-5.623z" fill="#fff" stroke-width=".912"/></g><path d="M8.668 12.736l4.412 3.694c-1.491 2.291-1.282 5.387.141 7.702l-4.55 3.04c.599 1.093 2.678 3.149 3.757 3.723l3.468-4.054c2.256 1.296 5.087 1.236 7.49-.112l3.08 5.422c1.003-.394 4.209-3.062 4.808-4.441l-4.848-3.919c1.281-2.152 1.466-4.675.495-6.878l5.24-3.403c-.495-.876-2.738-3.26-4.146-4.171l-3.656 4.422c-2.218-1.571-5.334-1.808-7.872-.573l-3.191-4.724c-1.195.514-3.665 2.593-4.627 4.272zm7.19 3.042c2.443-2.171 6.008-1.904 8.032.374s1.876 5.855-.567 8.027-6.014 1.897-8.038-.38-1.87-5.849.573-8.02z"/></svg>