<svg xmlns="http://www.w3.org/2000/svg" width="40" height="40"><g stroke="#000"><path d="M1.77 2.597H38.23v34.806H1.77z" fill="#ff0" fill-rule="evenodd" stroke-width="1.308"/><path d="M20 6.265C12.414 6.265 6.265 12.414 6.265 20S12.414 33.735 20 33.735 33.735 27.586 33.735 20 27.586 6.265 20 6.265zm-.363 8.422c3.131 0 5.675 2.521 5.675 5.624s-2.545 5.624-5.675 5.624-5.675-2.521-5.675-5.624 2.545-5.624 5.675-5.624z" fill="#fff" stroke-width=".912"/></g><path d="M8.668 12.739l4.412 3.694c-1.491 2.292-1.282 5.388.141 7.703l-4.55 3.04c.599 1.093 2.678 3.149 3.758 3.723l3.469-4.054c2.256 1.296 5.087 1.236 7.49-.112l3.08 5.422c1.003-.394 4.209-3.062 4.808-4.442l-4.848-3.919c1.281-2.152 1.466-4.676.495-6.878l5.24-3.403c-.495-.876-2.738-3.26-4.146-4.171l-3.656 4.422c-2.218-1.571-5.335-1.808-7.873-.573l-3.191-4.724c-1.195.514-3.665 2.593-4.627 4.272zm7.191 3.042c2.444-2.171 6.009-1.904 8.032.374s1.876 5.856-.567 8.027-6.014 1.897-8.038-.38-1.871-5.849.573-8.02z"/></svg>