<svg xmlns="http://www.w3.org/2000/svg" width="16" height="16" fill="none" viewBox="0 0 16 16"><g fill="#000"><path d="M10.75 7h1.5V5.5h-1.5zM7.5 7H9V5.5H7.5zM4.25 7h1.5V5.5h-1.5z"/><path fill-rule="evenodd" d="M2 0a2 2 0 0 0-2 2v8.5a2 2 0 0 0 2 2h1v2.75a.75.75 0 0 0 1.229.577l4.042-3.35 5.723.02a2 2 0 0 0 2.006-2V2a2 2 0 0 0-2-2zm12 1.5a.5.5 0 0 1 .5.5v8.496a.5.5 0 0 1-.502.5l-5.996-.019-.13.012a.75.75 0 0 0-.35.161L4.5 13.654V11.75a.75.75 0 0 0-.75-.75H2a.5.5 0 0 1-.5-.5V2a.5.5 0 0 1 .5-.5z" clip-rule="evenodd"/></g></svg>