<svg xmlns="http://www.w3.org/2000/svg" width="16" height="16" fill="none"><path fill="#000" fill-rule="evenodd" d="m13.469 2.685-.541-.541H2.406l-.54.54v7.426l.54.541h4.305c.217 0 .43.075.604.206l3.12 2.54V11.23c0-.125.05-.245.144-.34a.476.476 0 0 1 .34-.143h2.009l.54-.541V2.685ZM2.527.805h10.191c.523 0 1.03.215 1.42.604.388.39.603.896.603 1.419v7c0 .523-.215 1.03-.604 1.419-.39.39-.896.603-1.419.603h-1.25v2.356h-1.032L6.627 11.85h-4.1c-.523 0-1.03-.214-1.419-.603a2.007 2.007 0 0 1-.603-1.42v-7c0-.522.214-1.029.603-1.418.39-.39.896-.603 1.42-.603Zm8.297 4.315H4.463a.59.59 0 1 1 0-1.178h6.361a.59.59 0 1 1 0 1.178Zm-2 3.041H4.463a.59.59 0 1 1 0-1.178h4.361a.59.59 0 1 1 0 1.178Z" clip-rule="evenodd"/></svg>