<svg xmlns="http://www.w3.org/2000/svg" width="16" height="16" fill="none"><path fill="#000" fill-rule="evenodd" d="M11 3h2.6c.4 0 .7.3.7.6s-.3.6-.6.6h-.4V14c0 1.1-.9 2-2 2H4.8c-1.1 0-2-.9-2-2V4.2h-.4c-.4 0-.6-.2-.6-.6 0-.4.2-.6.6-.6H5V2c0-1.1.9-2 2-2h2c1.1 0 2 .9 2 2v1ZM6.9 1.2l-.6.6V3h3.5V1.8l-.6-.6H6.9Zm4.5 13.5.6-.6V4.2H4v9.9l.6.6h6.8ZM7 12.4c0 .3-.3.6-.6.6s-.6-.3-.6-.6V7.6c-.1-.3.2-.6.6-.6.4 0 .6.3.6.6v4.8Zm3.2 0c0 .3-.3.6-.6.6s-.6-.3-.6-.6V7.6c0-.3.3-.6.6-.6s.6.3.6.6v4.8Z" clip-rule="evenodd"/></svg>