<svg xmlns="http://www.w3.org/2000/svg" width="16" height="16" fill="none" viewBox="0 0 16 16"><path fill="#000" d="M7.75 2.125a.625.625 0 0 1 1.25 0V8h1.5V3.125a.625.625 0 0 1 1.25 0V8h1.5V4.625a.625.625 0 0 1 1.25 0v7.394l-1.12 1.644a.75.75 0 0 0-.13.422V16h1.5v-1.684l1.12-1.644a.75.75 0 0 0 .13-.422V4.625a2.126 2.126 0 0 0-2.812-2.011 2.126 2.126 0 0 0-2.911-1.438 2.126 2.126 0 0 0-3.804 0A2.126 2.126 0 0 0 3.5 3.125v4.128a2.126 2.126 0 0 0-2.878 3.123l4.877 4.874V16h1.5v-1.061a.75.75 0 0 0-.22-.53L1.682 9.316a.626.626 0 0 1 .885-.885L3.72 9.584A.75.75 0 0 0 5 9.054V3.125a.626.626 0 0 1 1.25-.002V8h1.5V2.125"/></svg>