<svg xmlns="http://www.w3.org/2000/svg" width="16" height="16" fill="none"><path fill="#000" d="M2 1v.25h.015C2.118 2.133 2.762 3 3.78 3h7.94c1.018 0 1.662-.867 1.765-1.75h.015V1H12c0 .181-.06.323-.13.407-.068.083-.125.093-.15.093H3.78c-.025 0-.082-.01-.15-.093A.645.645 0 0 1 3.5 1H2Zm2 5a.5.5 0 0 0-.5.5V10a.5.5 0 0 0 .5.5h7.5a.5.5 0 0 0 .5-.5V6.5a.5.5 0 0 0-.5-.5H4Zm-2 .5a2 2 0 0 1 2-2h7.5a2 2 0 0 1 2 2V10a2 2 0 0 1-2 2H4a2 2 0 0 1-2-2V6.5Zm1.78 7c-1.018 0-1.662.867-1.765 1.75H2v.25h1.5c0-.181.06-.323.13-.407.068-.083.125-.093.15-.093h7.94c.025 0 .082.01.15.093.07.084.13.226.13.407h1.5v-.25h-.015c-.103-.883-.747-1.75-1.765-1.75H3.78Z"/></svg>