<svg xmlns="http://www.w3.org/2000/svg" width="16" height="16" fill="none"><path d="M2 1v.25h.015C2.118 2.133 2.762 3 3.78 3h7.94c1.018 0 1.662-.867 1.765-1.75h.015V1H12c0 .181-.061.323-.13.407s-.124.093-.15.093H3.78c-.025 0-.082-.01-.15-.093S3.5 1.181 3.5 1H2zm2 5a.5.5 0 0 0-.5.5V10a.5.5 0 0 0 .5.5h7.5a.5.5 0 0 0 .5-.5V6.5a.5.5 0 0 0-.5-.5H4zm-2 .5a2 2 0 0 1 2-2h7.5a2 2 0 0 1 2 2V10a2 2 0 0 1-2 2H4a2 2 0 0 1-2-2V6.5zm1.78 7c-1.018 0-1.662.867-1.765 1.75H2v.25h1.5c0-.181.061-.323.13-.407S3.755 15 3.78 15h7.94c.025 0 .082.01.15.093s.13.226.13.407h1.5v-.25h-.015c-.104-.883-.747-1.75-1.765-1.75H3.78z" fill="#000"/></svg>