<svg xmlns="http://www.w3.org/2000/svg" width="16" height="16" fill="none"><path d="M7.75 2.125c0-.345.28-.625.625-.625S9 1.78 9 2.125v1V8h1.5V3.125c0-.345.28-.625.625-.625s.625.28.625.625v1.5V8h1.5V4.625c0-.345.28-.625.625-.625s.625.28.625.625v7.394l-1.12 1.644a.75.75 0 0 0-.13.422V16h1.5v-1.684l1.12-1.644a.75.75 0 0 0 .13-.422V4.625c0-1.173-.952-2.125-2.125-2.125a2.12 2.12 0 0 0-.687.114C12.959 1.687 12.122 1 11.125 1c-.302 0-.588.063-.848.176C9.928.479 9.207 0 8.375 0S6.822.479 6.473 1.176C6.213 1.063 5.927 1 5.625 1 4.452 1 3.5 1.952 3.5 3.125v4.128c-.835-.71-2.09-.671-2.878.117-.83.83-.83 2.176 0 3.006h0l4.877 4.873V16h1.5v-1.061a.75.75 0 0 0-.22-.53L1.682 9.316c-.244-.244-.244-.64 0-.884s.64-.244.884 0L3.72 9.584A.75.75 0 0 0 5 9.054V3.125c0-.345.28-.625.625-.625s.624.279.625.623V8h1.5V3.125v-.003-.997z" fill="#000"/></svg>