<svg xmlns="http://www.w3.org/2000/svg" width="16" height="16" fill="none"><path fill="#000" d="M2.5 1a.5.5 0 0 0 .5.5h2a.5.5 0 0 0 .5-.5H7a2 2 0 0 1-2 2H3a2 2 0 0 1-2-2h1.5Zm0 5a.5.5 0 0 1 .5-.5h2a.5.5 0 0 1 .5.5v4a.5.5 0 0 1-.5.5H3a.5.5 0 0 1-.5-.5V6ZM3 4a2 2 0 0 0-2 2v4a2 2 0 0 0 2 2h2a2 2 0 0 0 2-2V6a2 2 0 0 0-2-2H3Zm7 2a.5.5 0 0 1 .5-.5h2a.5.5 0 0 1 .5.5v4a.5.5 0 0 1-.5.5h-2a.5.5 0 0 1-.5-.5V6Zm.5-2a2 2 0 0 0-2 2v4a2 2 0 0 0 2 2h2a2 2 0 0 0 2-2V6a2 2 0 0 0-2-2h-2ZM3 14.5a.5.5 0 0 0-.5.5H1a2 2 0 0 1 2-2h2a2 2 0 0 1 2 2H5.5a.5.5 0 0 0-.5-.5H3Zm7 .5a.5.5 0 0 1 .5-.5h2a.5.5 0 0 1 .5.5h1.5a2 2 0 0 0-2-2h-2a2 2 0 0 0-2 2H10Zm.5-13.5A.5.5 0 0 1 10 1H8.5a2 2 0 0 0 2 2h2a2 2 0 0 0 2-2H13a.5.5 0 0 1-.5.5h-2Z"/></svg>