<svg xmlns="http://www.w3.org/2000/svg" width="16" height="16" fill="none"><path d="M3 3.78c0-1.018-.867-1.662-1.75-1.765V2H1v1.5c.181 0 .323.061.407.13s.093.124.093.15v7.94c0 .025-.01.082-.093.15S1.181 12 1 12v1.5h.25v-.015C2.133 13.382 3 12.738 3 11.72V3.78zm7.5.22a.5.5 0 0 0-.5-.5H6.5A.5.5 0 0 0 6 4v7.5a.5.5 0 0 0 .5.5H10a.5.5 0 0 0 .5-.5V4zM10 2a2 2 0 0 1 2 2v7.5a2 2 0 0 1-2 2H6.5a2 2 0 0 1-2-2V4a2 2 0 0 1 2-2H10zm5.5 0h-.25v.015c-.883.104-1.75.747-1.75 1.765v7.94c0 1.018.867 1.662 1.75 1.765v.015h.25V12c-.181 0-.323-.061-.407-.13S15 11.745 15 11.72V3.78c0-.025.01-.082.093-.15s.226-.13.407-.13V2z" fill="#000"/></svg>