<svg xmlns="http://www.w3.org/2000/svg" width="16" height="16" fill="none"><path fill-rule="evenodd" d="M2 3.5a.5.5 0 0 0-.5.5v8.5a.5.5 0 0 0 .5.5h5.25V3.5H2zM14 13H8.75V3.5H14a.5.5 0 0 1 .5.5v8.5a.5.5 0 0 1-.5.5zM0 4a2 2 0 0 1 2-2h12a2 2 0 0 1 2 2v8.5a2 2 0 0 1-2 2H2a2 2 0 0 1-2-2V4zm10 2.5h1.5v1H10V9h1.5v1H10v1.5h2.25a.75.75 0 0 0 .75-.75v-5a.75.75 0 0 0-.75-.75H10v1.5zm-5.5 0H3V5h2.25a.75.75 0 0 1 .75.75v2a.75.75 0 0 1-.415.671L4.5 8.964V10H6v1.5H3.75a.75.75 0 0 1-.75-.75V8.5a.75.75 0 0 1 .415-.671L4.5 7.286V6.5z" fill="#000"/></svg>