<svg xmlns="http://www.w3.org/2000/svg" width="16" height="16" fill="none"><path fill="#000" d="M3 3.78c0-1.018-.867-1.662-1.75-1.765V2H1v1.5c.181 0 .323.06.407.13.083.068.093.125.093.15v7.94c0 .025-.01.082-.093.15A.65.65 0 0 1 1 12v1.5h.25v-.015C2.133 13.382 3 12.738 3 11.72zm7.5.22a.5.5 0 0 0-.5-.5H6.5A.5.5 0 0 0 6 4v7.5a.5.5 0 0 0 .5.5H10a.5.5 0 0 0 .5-.5zM10 2a2 2 0 0 1 2 2v7.5a2 2 0 0 1-2 2H6.5a2 2 0 0 1-2-2V4a2 2 0 0 1 2-2zm5.5 0h-.25v.015c-.883.103-1.75.747-1.75 1.765v7.94c0 1.018.867 1.662 1.75 1.765v.015h.25V12a.65.65 0 0 1-.407-.13c-.083-.068-.093-.125-.093-.15V3.78c0-.025.01-.082.093-.15a.65.65 0 0 1 .407-.13z"/></svg>