<svg xmlns="http://www.w3.org/2000/svg" width="16" height="16" fill="none"><path d="M10.429 1.084A.5.5 0 0 1 10.707 1H14.7l.3.3v3.993a.5.5 0 0 1-.854.353l-1.173-1.173-.281-.281-3.625 3.625a.63.63 0 0 1-.885.001.63.63 0 0 1 0-.885l3.625-3.625-1.454-1.454a.5.5 0 0 1 .075-.77zm-2.612.983c-.117.117-.276.183-.442.183H2.85l-.6.6v10.3l.6.6h10.3l.6-.6V8.625c0-.166.066-.325.183-.442S14.209 8 14.375 8s.325.066.442.183.183.276.183.442V13a2 2 0 0 1-2 2H3a2 2 0 0 1-2-2V3a2 2 0 0 1 2-2h4.375c.166 0 .325.066.442.183S8 1.459 8 1.625s-.066.325-.183.442z" fill="#000"/></svg>