<svg xmlns="http://www.w3.org/2000/svg" width="16" height="16" fill="none"><path fill="#000" d="M2.5 12.625c.12 0 .24-.02.357-.059L6.29 11.42l7-6.998a1.88 1.88 0 0 0 0-2.652L12.23.71a1.88 1.88 0 0 0-2.653 0l-6.999 7-1.145 3.435a1.123 1.123 0 0 0 1.066 1.48Zm7.961-11.03a.624.624 0 0 1 .883 0l1.061 1.061a.624.624 0 0 1 0 .883L11.34 4.605 9.395 2.66l1.066-1.065Zm-6.79 6.79 4.84-4.84 1.943 1.944-4.84 4.841-2.917.973.973-2.918Zm11.146 4.929-1.794.548a4.375 4.375 0 0 1-2.137.106l-2.082-.417a5.665 5.665 0 0 0-3.62.485 3.196 3.196 0 0 1-3.692-.6l-.051-.051-.833.936a4.448 4.448 0 0 0 5.136.832 4.394 4.394 0 0 1 2.815-.376l2.082.417c.91.182 1.86.133 2.747-.138l1.794-.548-.365-1.194Z"/></svg>