<svg xmlns="http://www.w3.org/2000/svg" width="16" height="16" fill="none"><path fill-rule="evenodd" d="M16 4v8.25a2 2 0 0 1-2 2H2a2 2 0 0 1-2-2V4a2 2 0 0 1 2-2h12a2 2 0 0 1 2 2zM1.25 3.85v8.55l.6.6h4.9V3.25h-4.9l-.6.6zM14.15 13H8V3.25h6.15l.6.6v8.55l-.6.6zm-8.796-2.854a.5.5 0 0 1 0 .707A.5.5 0 0 1 5 11H3a.5.5 0 0 1-.5-.5.5.5 0 0 1 .5-.5h2a.5.5 0 0 1 .354.146zM5.5 8a.5.5 0 0 0-.5-.5H3a.5.5 0 0 0-.5.5.5.5 0 0 0 .5.5h2a.5.5 0 0 0 .5-.5zm-.146-2.854a.5.5 0 0 1 0 .707A.5.5 0 0 1 5 6H3a.5.5 0 0 1-.5-.5A.5.5 0 0 1 3 5h2a.5.5 0 0 1 .354.146z" fill="#000"/></svg>