<svg xmlns="http://www.w3.org/2000/svg" width="16" height="16" fill="none"><path d="M7.005 9.75V14c0 .166.066.325.183.442s.276.183.442.183.325-.066.442-.183.183-.276.183-.442V9.75l.5-.5h4.25c.166 0 .325-.066.442-.183s.183-.276.183-.442-.066-.325-.183-.442S13.171 8 13.005 8h-4.25l-.5-.5V3.25c0-.166-.066-.325-.183-.442s-.276-.183-.442-.183-.325.066-.442.183-.183.276-.183.442V7.5l-.5.5h-4.25c-.166 0-.325.066-.442.183s-.183.276-.183.442.066.325.183.442.276.183.442.183h4.137l.613.5z" fill="#000"/></svg>