<svg xmlns="http://www.w3.org/2000/svg" width="16" height="16" fill="none"><path d="M2.534 13.818l5.465-5.466L8 7.647 2.536 2.182c-.118-.112-.276-.174-.439-.172s-.319.068-.435.183-.181.271-.183.435.06.321.172.439l4.934 4.931-4.935 4.934c-.113.118-.174.276-.172.439s.068.319.183.435.271.181.434.184.321-.059.439-.171zm6 0l5.465-5.466.001-.705-5.464-5.465c-.118-.112-.276-.174-.439-.172s-.319.068-.435.183-.181.271-.183.435.06.321.172.439l4.934 4.931-4.935 4.934c-.113.118-.174.276-.172.439s.068.319.183.435.271.181.434.184.321-.059.439-.171z" fill="#000"/></svg>