<svg xmlns="http://www.w3.org/2000/svg" width="16" height="16" fill="#000"><path d="M2.499 12.625a1.14 1.14 0 0 0 .358-.059L6.29 11.42l6.999-6.998a1.88 1.88 0 0 0 0-2.652L12.229.71a1.88 1.88 0 0 0-2.652 0L2.578 7.709l-1.145 3.436a1.12 1.12 0 0 0 .272 1.15c.216.215.501.33.794.33zm7.962-11.03c.242-.244.641-.244.883 0l1.061 1.061c.244.243.244.64 0 .883L11.34 4.605 9.395 2.66l1.066-1.065zM3.67 8.385l4.84-4.84 1.944 1.944-4.84 4.841-2.917.973.973-2.918zm11.147 4.929l-1.794.548c-.692.211-1.432.249-2.137.106l-2.082-.417c-1.219-.243-2.506-.071-3.619.485-1.232.616-2.718.376-3.693-.6l-.051-.051-.833.936c.855.854 1.992 1.304 3.145 1.304.676 0 1.357-.154 1.991-.472.865-.432 1.865-.567 2.815-.376l2.082.417c.91.182 1.86.133 2.747-.138l1.794-.548-.365-1.194z"/></svg>