<svg xmlns="http://www.w3.org/2000/svg" width="16" height="16" fill="none"><path fill="#000" d="m11.618 12.868-.364.382h-.831a.5.5 0 0 1-.423.25H2a.5.5 0 0 1-.5-.5V2c0-.275.225-.5.5-.5h4.939L7 1.561V4.5a.5.5 0 0 0 .5.5h2.939l.061.061v1.454l1.5-1.5V4.75a.75.75 0 0 0-.22-.53l-4-4A.75.75 0 0 0 7.25 0H2a2 2 0 0 0-2 2v11a2 2 0 0 0 2 2h8a2 2 0 0 0 2-2v-.514zM13.836 4.946a.667.667 0 0 1 .946-.001l1.023 1.024a.66.66 0 0 1 .195.472c0 .18-.069.348-.195.474l-.865.865-1.97-1.969z"/><path fill="#000" d="m12.44 6.342-3.6 3.6a.25.25 0 0 0-.073.177v1.631c0 .138.112.25.25.25h1.599l.177-.073 3.616-3.616zM7.517 9.848v.168h-.001v1.501q-.037-.034-.076-.064a.7.7 0 0 1-.136-.131l-.223-.313a.11.11 0 0 0-.115-.052.13.13 0 0 0-.107.089c-.154.44-.367 1.041-.921 1.041h-.017c-.604-.017-.912-.53-1.176-2.101l-.363.968a1.63 1.63 0 0 1-1.521 1.055H2.5v-1.25h.361a.38.38 0 0 0 .352-.244l.67-1.787a1.016 1.016 0 0 1 1.072-.655c.479.055.841.413.903.891.063.473.122.84.177 1.121.205-.194.469-.324.76-.365.253-.036.496.026.722.128"/></svg>