<svg xmlns="http://www.w3.org/2000/svg" viewBox="0 0 16 16"><path d="M12.681 1.362H.255c-.141 0-.255.114-.255.255v3.745c0 .141.114.255.255.255h1.021c.141 0 .255-.114.255-.255v-.766H4.51V8.34c0 .141.114.255.255.255s.255-.114.255-.255v-4c0-.141-.114-.255-.255-.255H1.277c-.141 0-.255.114-.255.255v.766H.511V1.872h11.915v3.234h-.511V4.34c0-.141-.114-.255-.255-.255H8.17c-.141 0-.255.114-.255.255v9.021c0 .141.114.255.255.255h1.787v.511H2.979v-.511h1.787c.141 0 .255-.114.255-.255v-4c0-.141-.114-.255-.255-.255s-.255.114-.255.255v3.745H2.723c-.141 0-.255.114-.255.255v1.021c0 .141.114.255.255.255h7.489c.141 0 .255-.114.255-.255v-1.021c0-.141-.114-.255-.255-.255H8.426v-8.51h2.979v.766c0 .141.114.255.255.255h1.021c.141 0 .255-.114.255-.255V1.617c0-.141-.114-.255-.255-.255zm3.064 12.766h-.766V1.872h.766c.141 0 .255-.114.255-.255s-.114-.255-.255-.255h-2.043c-.141 0-.255.114-.255.255s.114.255.255.255h.766v12.255h-.766c-.141 0-.255.114-.255.255s.114.255.255.255h2.043c.141 0 .255-.114.255-.255s-.114-.255-.255-.255z"/></svg>