<svg xmlns="http://www.w3.org/2000/svg" width="16" height="16" fill="none"><path d="M8.625 2.942c0-.217.11-.415.293-.53l1.108-.692a.63.63 0 0 1 .332-.095H12V.375h-1.642a1.88 1.88 0 0 0-.994.285l-1.108.693c-.095.059-.175.135-.256.209-.082-.074-.161-.15-.256-.209L6.635.66a1.88 1.88 0 0 0-.993-.285H4v1.25h1.642a.63.63 0 0 1 .332.095l1.108.692a.62.62 0 0 1 .294.53V8v5.058a.62.62 0 0 1-.294.53l-1.109.692a.63.63 0 0 1-.332.095H4v1.25h1.642a1.88 1.88 0 0 0 .994-.285l1.108-.692c.096-.06.175-.136.256-.209.081.073.161.149.256.209l1.109.693a1.88 1.88 0 0 0 .994.285H12v-1.25h-1.642a.63.63 0 0 1-.332-.095l-1.108-.692a.62.62 0 0 1-.293-.53V8 2.942z" fill="#000"/></svg>