<svg xmlns="http://www.w3.org/2000/svg" width="16" height="16" fill="none"><path fill="#000" d="M2 3.5a.5.5 0 0 0-.5.5v8a.5.5 0 0 0 .5.5h12a.5.5 0 0 0 .5-.5V4a.5.5 0 0 0-.5-.5H2ZM0 4a2 2 0 0 1 2-2h12a2 2 0 0 1 2 2v8a2 2 0 0 1-2 2H2a2 2 0 0 1-2-2V4Zm8.75 4.75h-1.5v-1.5h1.5v1.5ZM8 4.625a4.867 4.867 0 0 0-4.548 3.153L3.368 8l.084.222A4.866 4.866 0 0 0 8 11.375a4.866 4.866 0 0 0 4.548-3.153L12.632 8l-.084-.222A4.866 4.866 0 0 0 8 4.625Zm0 5.5c-1.46 0-2.715-.87-3.287-2.125A3.612 3.612 0 0 1 8 5.875c1.46 0 2.715.87 3.287 2.125A3.613 3.613 0 0 1 8 10.125Z"/></svg>