<svg xmlns="http://www.w3.org/2000/svg" width="16" height="16" fill="none"><path d="M3.5 2a.5.5 0 0 1 .5-.5h1.25a.5.5 0 0 1 .5.5v3.25a.5.5 0 0 1-.5.5H4a.5.5 0 0 1-.5-.5V2zM4 0a2 2 0 0 0-2 2v3.25a2 2 0 0 0 2 2h1.25a2 2 0 0 0 2-2V2a2 2 0 0 0-2-2H4zm-.5 10.75a.5.5 0 0 1 .5-.5h1.25a.5.5 0 0 1 .5.5V14a.5.5 0 0 1-.5.5H4a.5.5 0 0 1-.5-.5v-3.25zm.5-2a2 2 0 0 0-2 2V14a2 2 0 0 0 2 2h1.25a2 2 0 0 0 2-2v-3.25a2 2 0 0 0-2-2H4zm6.75-7.25a.5.5 0 0 0-.5.5v3.25a.5.5 0 0 0 .5.5H12a.5.5 0 0 0 .5-.5V2a.5.5 0 0 0-.5-.5h-1.25zm-2 .5a2 2 0 0 1 2-2H12a2 2 0 0 1 2 2v3.25a2 2 0 0 1-2 2h-1.25a2 2 0 0 1-2-2V2zm1.5 8.75a.5.5 0 0 1 .5-.5H12a.5.5 0 0 1 .5.5V14a.5.5 0 0 1-.5.5h-1.25a.5.5 0 0 1-.5-.5v-3.25zm.5-2a2 2 0 0 0-2 2V14a2 2 0 0 0 2 2H12a2 2 0 0 0 2-2v-3.25a2 2 0 0 0-2-2h-1.25z" fill="#000"/></svg>