<svg xmlns="http://www.w3.org/2000/svg" width="17" height="16" fill="none" viewBox="0 0 17 16"><g fill="#000"><path fill-rule="evenodd" d="M7.11 11.66a.75.75 0 0 0 1.06 0l6.75-6.75c.35-.34.54-.8.54-1.29s-.19-.95-.54-1.29L13.13.54c-.34-.35-.8-.54-1.29-.54s-.95.2-1.29.54L3.8 7.29c-.29.29-.29.77 0 1.06l.59.59-2.98 2.99h4.24l.864-.865zm.53-1.59L5.39 7.82v-.01l2.475-2.476L10.12 7.59zm3.54-3.541 2.68-2.679a.32.32 0 0 0 0-.46L12.07 1.6a.34.34 0 0 0-.23-.1s-.15.01-.23.09L8.924 4.274z" clip-rule="evenodd"/><path d="M.41 14h15v2h-15z"/></g></svg>