<svg xmlns="http://www.w3.org/2000/svg" width="16" height="16"><path d="M14.222 4.309l-1.012 1.013-2.531-2.534 1.012-1.012a.56.56 0 0 1 .772 0l1.759 1.763c.213.212.213.559 0 .772zm-8.459 8.469l-2.531-2.534 6.544-6.553 2.531 2.534-6.544 6.553zm-3.116-1.312l1.894 1.897-2.637.744.744-2.641zm12.478-8.831L13.366.872c-.344-.344-1.584-.994-2.575 0L1.875 9.794c-.078.078-.134.172-.163.278L.369 14.856a.65.65 0 0 0 .162.625c.162.166.487.194.625.162l4.781-1.347c.106-.028.2-.084.278-.162l8.909-8.922a1.83 1.83 0 0 0 0-2.578z"/></svg>