<svg xmlns="http://www.w3.org/2000/svg" width="16" height="16" fill="#000"><path d="M9.794 7.318H7.863a.5.5 0 0 0-.354.854l2.682 2.682a.5.5 0 0 0 .707 0l2.682-2.682a.5.5 0 0 0-.354-.854h-1.932V4.382h.002v-1.25h-.002v-.824h-1.5v.824h-.003v1.25h.004v2.936h-.001zM14 3.132h-1.204v1.25H14c.345 0 .625.28.625.625v8c0 .345-.28.625-.625.625H2c-.345 0-.625-.28-.625-.625v-10c0-.345.28-.625.625-.625h3.643a.63.63 0 0 1 .465.207l1.428 1.586A.62.62 0 0 0 8 4.382h.291v-1.25h-.013l-1.242-1.38a1.88 1.88 0 0 0-1.394-.62H2A1.88 1.88 0 0 0 .125 3.007v10A1.88 1.88 0 0 0 2 14.882h12a1.88 1.88 0 0 0 1.875-1.875v-8A1.88 1.88 0 0 0 14 3.132z"/></svg>