<svg xmlns="http://www.w3.org/2000/svg" width="16" height="16"><defs><clipPath id="a"><path d="M-4.946-2.179h25.92v21.531h-25.92zM9.037 3.522v10.122h6.084V3.522z"/></clipPath></defs><g fill="#6d6d70"><path d="M.961 2.821h14.105a.917.917 0 0 1 .908.914v9.694a.9.9 0 0 1-.158.519.4.4 0 0 1-.086.13.3.3 0 0 1-.086.06.9.9 0 0 1-.585.214H.962a.917.917 0 0 1-.908-.908V3.735a.917.917 0 0 1 .908-.914zM.923 13.044l4.769-4.956-4.769-4.03zM6.41 8.706l-5.096 4.935H14.67L9.801 8.706 8.375 9.901a.35.35 0 0 1-.447 0zm4.097-.628 4.598 5.005v-9.07zM1.371 3.522l6.766 5.484 6.468-5.484z" clip-path="url(#a)"/><path d="M13.713 3.97a.33.33 0 0 1 .329-.331.33.33 0 0 1 .331.329l.012 6.555a2.68 2.68 0 0 1-.785 1.895 2.68 2.68 0 0 1-1.859.791.4.4 0 0 1-.072 0 2.68 2.68 0 0 1-2.656-2.644.3.3 0 0 1 0-.069l-.015-7.883c.03-.563.189-1.023.498-1.361s.76-.545 1.367-.589l.027-.001h.008a2 2 0 0 1 .812.161 1.64 1.64 0 0 1 .632.491 2 2 0 0 1 .401.888c.054.283.057.574.058.881l.013 7.303c.001.309-.125.589-.327.792a1.1 1.1 0 0 1-.752.328.3.3 0 0 1-.075 0 1.12 1.12 0 0 1-1.084-1.116l-.012-6.31a.33.33 0 0 1 .329-.331.33.33 0 0 1 .331.329l.012 6.31a.46.46 0 0 0 .136.324.46.46 0 0 0 .323.134h.002a.46.46 0 0 0 .322-.137.45.45 0 0 0 .134-.323l-.013-7.303a4 4 0 0 0-.048-.758 1.36 1.36 0 0 0-.269-.604 1 1 0 0 0-.381-.294 1.4 1.4 0 0 0-.537-.105c-.425.032-.727.161-.922.375s-.303.541-.326.952l.015 7.878a2.02 2.02 0 0 0 1.999 2.023.3.3 0 0 1 .06 0c.545-.009 1.04-.237 1.401-.599s.586-.857.593-1.401a.4.4 0 0 1 0-.061z"/></g></svg>