<svg xmlns="http://www.w3.org/2000/svg" width="16" height="16" viewBox="0 0 122.879 103.39"><path fill="#6d6d70" d="m2.971 18.676 3.314-.001v-8.14c0-.817.334-1.561.87-2.098a2.97 2.97 0 0 1 2.102-.873h3.233V2.971A2.97 2.97 0 0 1 15.46 0h36.251a2.96 2.96 0 0 1 2.099.872 2.95 2.95 0 0 1 .873 2.099v4.593h48.155a2.967 2.967 0 0 1 2.971 2.971v8.14h3.342a2.97 2.97 0 0 1 2.971 2.972l-.065.585-3.188 23.435c8.447 5.653 14.011 15.282 14.011 26.209 0 17.404-14.109 31.515-31.515 31.515-11.842 0-22.157-6.534-27.542-16.192H13.975a7.56 7.56 0 0 1-2.918-.578 7.798 7.798 0 0 1-2.49-1.673 8.436 8.436 0 0 1-1.691-2.434 9.355 9.355 0 0 1-.809-2.928L.016 21.956a2.955 2.955 0 0 1 .65-2.175 2.95 2.95 0 0 1 1.997-1.08l.308-.025zm102.96 48.584h-.004l-.003-.001h-.003l-.003-.001h-.008l-.003-.001h-.003l-.003-.001h-.007l-.004-.001h-.003l-.003-.001h-.011l-.003-.001h-.003l-.004-.001h-.007l-.003-.001h-.01l-.004-.001h-.007l-.003-.001h-.014l-.003-.001h-.01l-.004-.001h-.02l-.004-.001h-.024l-.004-.001h-9.757v-9.723c0-.862-.706-1.571-1.571-1.571h-6.116a1.58 1.58 0 0 0-1.572 1.571v9.723h-9.723a1.58 1.58 0 0 0-1.571 1.575v6.112c0 .866.709 1.575 1.571 1.572h9.727V86.268l.001.011v.017l.001.013v.005l.001.017.001.017v.002l.002.015.001.017.001.008.001.01.002.016.002.014v.004l.002.016.003.017v.003l.003.014.002.017.002.009.001.007.004.017.002.015.001.002.004.016.003.017.001.004.003.012.004.016.003.011.001.006.005.016.004.016.005.016.005.016.001.006.004.01.005.016.004.011.001.005.006.016.006.015v.002l.005.014.006.015.003.007.004.009.006.015.005.013.001.003.007.015.007.015.001.002.006.013.007.015.003.008.004.007.007.015.007.013.001.001.007.015.008.014.002.004.006.011.008.014.005.009.003.005.009.015.008.013.009.015.009.014.003.004.006.009.009.014.006.01.003.004.009.013.01.014v.001l.009.012.01.013.004.006.006.007.01.013.008.011.002.002c.289.365.735.602 1.232.602h6.113a1.57 1.57 0 0 0 1.233-.602l.001-.001.009-.012.01-.013.004-.005.006-.008.009-.013.008-.011.002-.002.009-.014.01-.013.001-.003.008-.011.009-.013.009-.014.008-.014.009-.013v-.02l.009-.014.008-.014.002-.004.006-.011.008-.014.005-.009.003-.005.008-.015.007-.014.001-.001.007-.014.007-.015.003-.006.004-.009.007-.015.006-.011.001-.004.007-.015.002-.003.01-.024.001-.002.006-.016.003-.007.003-.008.006-.016.005-.013.001-.002.006-.016.005-.016.002-.003.004-.012.005-.016.003-.01.002-.006.005-.016.004-.016h.001l.004-.016.004-.017.002-.005.003-.011.004-.016.002-.012.001-.005.004-.016.004-.017v-.001l.003-.015.003-.017.001-.007.002-.01.003-.016.002-.014.001-.003.002-.017.002-.017.001-.003.001-.014.002-.017.001-.009.001-.008.002-.017.001-.016v-.002l.001-.017.001-.017.001-.005v-.013l.001-.017v-.011l.001-.006v-9.758H105.727a1.58 1.58 0 0 0 1.571-1.572v-6.116a1.59 1.59 0 0 0-1.367-1.538zm-2.646-24.564 2.456-18.061-96.598-.009H6.265l5.706 54.375c.037.351.126.683.259.979a2.67 2.67 0 0 0 .521.775c.164.162.354.293.562.379l.037.018a1.7 1.7 0 0 0 .617.112h47.306a31.517 31.517 0 0 1-1.422-9.39c0-17.405 14.11-31.515 31.515-31.515 4.218.001 8.242.832 11.919 2.337zM12.227 13.515v5.147l87.64-.93v-4.218H51.711c-.821 0-1.564-.333-2.102-.871s-.87-1.28-.87-2.1V5.951h-30.31v4.593c0 .816-.333 1.559-.87 2.097a2.965 2.965 0 0 1-2.101.874h-3.231z"/></svg>