<svg xmlns="http://www.w3.org/2000/svg" xmlns:xlink="http://www.w3.org/1999/xlink" width="1000" height="1000"><defs><path id="a" d="M-1630.958 63.36c0 22.023-17.854 39.877-39.877 39.877s-39.877-17.853-39.877-39.877 17.853-39.877 39.877-39.877 39.877 17.853 39.877 39.877"/></defs><path d="m-593.75-506-52.062-20.156c33.477-86.606 105.655-154.231 196.531-185.375 169.525-58.099 357.689 23.85 420.125 185.375L-81.219-506c-51.054-132.078-207.68-201.483-349.969-152.719C-507.2-632.669-566.486-576.536-593.75-506m417.094-485.219c-43.641 0-79.875 36.234-79.875 79.875s36.234 79.875 79.875 79.875 79.875-36.234 79.875-79.875-36.234-79.875-79.875-79.875m0 79.75c-.405 0 .125.53.125.125s-.53.125-.125.125-.125-.531-.125-.125.53-.125.125-.125m-321.656-79.75c-43.641 0-79.875 36.234-79.875 79.875s36.234 79.875 79.875 79.875 79.875-36.234 79.875-79.875-36.234-79.875-79.875-79.875m0 79.75c-.405 0 .125.53.125.125s-.53.125-.125.125-.125-.531-.125-.125.53-.125.125-.125M-337.5-1241c-266.151 0-482.5 216.349-482.5 482.5S-603.651-276-337.5-276 145-492.349 145-758.5-71.349-1241-337.5-1241m0 55.827c235.98 0 426.673 190.693 426.673 426.673S-101.52-331.827-337.5-331.827-764.173-522.52-764.173-758.5s190.693-426.673 426.673-426.673m-1172.515 918.884c-266.151 0-482.5 216.349-482.5 482.5s216.349 482.5 482.5 482.5 482.5-216.349 482.5-482.5-216.349-482.5-482.5-482.5m0 55.827c235.98 0 426.673 190.693 426.673 426.673s-190.693 426.673-426.673 426.673-426.673-190.693-426.673-426.673 190.693-426.673 426.673-426.673"/><g stroke="#000" stroke-linejoin="round" stroke-width="80"><use xlink:href="#a"/><use xlink:href="#a" x="321.673"/></g><path d="m-1766.265 304.523-52.062 20.156c33.477 86.606 105.655 154.231 196.531 185.375 169.525 58.099 357.689-23.85 420.125-185.375l-52.062-20.156c-51.054 132.078-207.68 201.483-349.969 152.719-76.012-26.05-135.298-82.183-162.562-152.719zM626.25-730.188l-52.062 20.156c33.477 86.606 105.655 154.231 196.531 185.375 169.525 58.099 357.688-23.85 420.125-185.375l-52.062-20.156c-51.054 132.078-207.68 201.483-349.969 152.719-76.012-26.05-135.297-82.183-162.562-152.719zm417.094-321.031c-43.641 0-79.875 36.234-79.875 79.875s36.234 79.875 79.875 79.875 79.875-36.234 79.875-79.875-36.234-79.875-79.875-79.875m0 79.75c-.405 0 .125.53.125.125s-.53.125-.125.125-.125-.531-.125-.125.531-.125.125-.125m-321.656-79.75c-43.641 0-79.875 36.234-79.875 79.875s36.234 79.875 79.875 79.875 79.875-36.234 79.875-79.875-36.234-79.875-79.875-79.875m0 79.75c-.405 0 .125.53.125.125s-.531.125-.125.125-.125-.531-.125-.125.53-.125.125-.125M882.5-1301C616.349-1301 400-1084.651 400-818.5S616.349-336 882.5-336 1365-552.349 1365-818.5 1148.651-1301 882.5-1301m0 55.827c235.98 0 426.673 190.693 426.673 426.673S1118.48-391.827 882.5-391.827 455.827-582.52 455.827-818.5 646.52-1245.173 882.5-1245.173M214.25 1237.813l-52.062 20.156c33.477 86.606 105.655 154.231 196.531 185.375 169.525 58.099 357.689-23.85 420.125-185.375l-52.062-20.156c-51.054 132.078-207.68 201.483-349.969 152.719-76.012-26.05-135.297-82.183-162.562-152.719zM276.438 680.5v55h452.125v-55zm386.906-395.719c-43.641 0-79.875 36.234-79.875 79.875s36.234 79.875 79.875 79.875 79.875-36.234 79.875-79.875-36.234-79.875-79.875-79.875m0 79.75c-.405 0 .125.53.125.125s-.53.125-.125.125-.125-.531-.125-.125.53-.125.125-.125m-321.656-79.75c-43.641 0-79.875 36.234-79.875 79.875s36.234 79.875 79.875 79.875 79.875-36.234 79.875-79.875-36.234-79.875-79.875-79.875m0 79.75c-.406 0 .125.53.125.125s-.531.125-.125.125-.125-.531-.125-.125.53-.125.125-.125M502.5 35C236.349 35 20 251.349 20 517.5S236.349 1000 502.5 1000 985 783.651 985 517.5 768.651 35 502.5 35m0 55.827c235.98 0 426.673 190.693 426.673 426.673S738.48 944.173 502.5 944.173 75.827 753.48 75.827 517.5 266.52 90.827 502.5 90.827"/></svg>